<?xml version="1.0" encoding="UTF-8" standalone="no"?>
<svg
   width="105.43001mm"
   height="64.202843mm"
   viewBox="0 0 105.43001 64.202843"
   version="1.1"
   id="svg8"
   inkscape:version="1.2.2 (732a01da63, 2022-12-09)"
   sodipodi:docname="kallocain.svg"
   xmlns:inkscape="http://www.inkscape.org/namespaces/inkscape"
   xmlns:sodipodi="http://sodipodi.sourceforge.net/DTD/sodipodi-0.dtd"
   xmlns="http://www.w3.org/2000/svg"
   xmlns:svg="http://www.w3.org/2000/svg"
   xmlns:rdf="http://www.w3.org/1999/02/22-rdf-syntax-ns#"
   xmlns:cc="http://creativecommons.org/ns#"
   xmlns:dc="http://purl.org/dc/elements/1.1/">
  <defs
     id="defs2">
    <inkscape:path-effect
       effect="bspline"
       id="path-effect973"
       is_visible="true"
       lpeversion="1"
       weight="33.333333"
       steps="2"
       helper_size="0"
       apply_no_weight="true"
       apply_with_weight="true"
       only_selected="false" />
    <inkscape:path-effect
       effect="bspline"
       id="path-effect958"
       is_visible="true"
       lpeversion="1"
       weight="33.333333"
       steps="2"
       helper_size="0"
       apply_no_weight="true"
       apply_with_weight="true"
       only_selected="false" />
    <inkscape:path-effect
       effect="bspline"
       id="path-effect901"
       is_visible="true"
       lpeversion="1"
       weight="33.333333"
       steps="2"
       helper_size="0"
       apply_no_weight="true"
       apply_with_weight="true"
       only_selected="false" />
  </defs>
  <sodipodi:namedview
     id="base"
     pagecolor="#ffffff"
     bordercolor="#666666"
     borderopacity="1.0"
     inkscape:pageopacity="0.0"
     inkscape:pageshadow="2"
     inkscape:zoom="0.79039885"
     inkscape:cx="-49.342177"
     inkscape:cy="146.76135"
     inkscape:document-units="mm"
     inkscape:current-layer="layer1"
     inkscape:document-rotation="0"
     showgrid="false"
     fit-margin-top="0"
     fit-margin-left="0"
     fit-margin-right="0"
     fit-margin-bottom="0"
     inkscape:window-width="1920"
     inkscape:window-height="1017"
     inkscape:window-x="-8"
     inkscape:window-y="-8"
     inkscape:window-maximized="1"
     inkscape:showpageshadow="0"
     inkscape:pagecheckerboard="0"
     inkscape:deskcolor="#d1d1d1" />
  <metadata
     id="metadata5">
    <rdf:RDF>
      <cc:Work
         rdf:about="">
        <dc:format>image/svg+xml</dc:format>
        <dc:type
           rdf:resource="http://purl.org/dc/dcmitype/StillImage" />
        <dc:title />
      </cc:Work>
    </rdf:RDF>
  </metadata>
  <g
     inkscape:label="Layer 1"
     inkscape:groupmode="layer"
     id="layer1"
     transform="translate(-0.11566014,-1.5846463)">
    <path
       id="path849"
       style="fill:#b6c1ae;fill-opacity:1;stroke:none;stroke-width:0.878762;stroke-miterlimit:4;stroke-dasharray:none;stroke-opacity:1"
       d="M 29.087997,1.5846463 0.11566014,30.741867 l 3.13661296,0.0064 c 1.981533,-1.645146 4.610346,-3.76283 7.3257999,-5.671387 3.830365,-2.69217 7.769851,-4.924478 11.972333,-6.719236 4.202483,-1.794749 8.666598,-3.150711 12.562683,-3.829128 3.89607,-0.678418 8.431233,-0.122041 10.357003,0.06693 1.940626,0.190419 1.798602,0.08104 0.430418,0.614187 -1.476022,0.575239 -4.876899,1.397884 -8.291439,3.126992 -3.414529,1.729171 -7.004808,4.005862 -10.003428,6.172737 -2.955132,2.135453 -5.332582,4.165032 -7.475002,6.276469 l 16.639952,0.03571 c -0.09511,-0.643262 -0.142841,-1.292668 -0.142717,-1.942933 -5.1e-5,-7.328721 5.941072,-13.269844 13.269792,-13.269794 7.328725,-5e-5 13.269847,5.941073 13.269799,13.269794 -2.17e-4,0.670004 -0.05115,1.339026 -0.152435,2.001331 l 21.789253,0.04698 z"
       sodipodi:nodetypes="cccssssssscccccccc" />
    <path
       id="path851"
       style="fill:#1a1b13;fill-opacity:1;stroke:#1a1b13;stroke-width:0.870339;stroke-opacity:1"
       d="m 49.274045,29.169485 c -4.447355,-0.02767 -8.723727,0.794184 -12.102999,1.646042 A 12.875587,12.875587 0 0 0 49.986916,42.471613 12.875587,12.875587 0 0 0 62.766593,31.164882 C 58.992495,30.211204 54.057619,29.199421 49.274045,29.169485 Z" />
    <path
       style="fill:#b6c1ae;fill-opacity:1;stroke:none;stroke-width:0.878762;stroke-miterlimit:4;stroke-dasharray:none"
       d="m 20.130641,30.78565 -6.641887,7.752461 7.091402,1.838514 z"
       id="path961" />
    <path
       style="fill:#1a1b13;fill-opacity:1;stroke:none;stroke-width:0.878762;stroke-miterlimit:4;stroke-dasharray:none"
       d="m 20.580156,40.376625 -0.603583,4.470359 4.506647,-2.376431 z"
       id="path963"
       sodipodi:nodetypes="cccc" />
    <path
       style="fill:#1a1b13;fill-opacity:1;stroke:none;stroke-width:0.0313843;stroke-miterlimit:4;stroke-dasharray:none;stroke-opacity:1"
       d="m 12.733654,48.026144 v 0.131304 l 0.164139,2.889095 7.616699,-4.070994 -0.537927,-2.128596 z"
       id="path975" />
    <path
       style="fill:#b6c1ae;fill-opacity:1;stroke:none;stroke-width:0.0313843;stroke-miterlimit:4;stroke-dasharray:none;stroke-opacity:1"
       d="M 28.164021,45.728008 21.203934,49.73334 20.51449,46.975556 26.653818,43.626858 Z"
       id="path977" />
    <path
       style="fill:#b6c1ae;fill-opacity:1;stroke:none;stroke-width:0.0313843;stroke-miterlimit:4;stroke-dasharray:none;stroke-opacity:1"
       d="m 21.203934,49.73334 -7.583856,4.103821 1.543039,3.512867 7.222724,-4.596275 z"
       id="path979" />
    <path
       style="fill:#1a1b13;fill-opacity:1;stroke:none;stroke-width:0.0313843;stroke-miterlimit:4;stroke-dasharray:none;stroke-opacity:1"
       d="m 22.385841,52.753753 8.174813,-6.66461 2.363794,1.969838 -8.765763,7.879338 z"
       id="path981" />
    <path
       style="fill:#1a1b13;fill-opacity:1;stroke:none;stroke-width:0.0313843;stroke-miterlimit:4;stroke-dasharray:none;stroke-opacity:1"
       d="m 24.158685,55.938308 -6.113451,4.787543 3.575069,2.785768 5.200097,-5.409027 z"
       id="path983" />
    <path
       style="fill:#b6c1ae;fill-opacity:1;stroke:none;stroke-width:0.0313843;stroke-miterlimit:4;stroke-dasharray:none;stroke-opacity:1"
       d="m 26.8204,58.102592 7.869782,-9.541254 3.900082,0.882159 -6.314414,10.818062 z"
       id="path985" />
    <path
       style="fill:#b6c1ae;fill-opacity:1;stroke:none;stroke-width:0.0313843;stroke-miterlimit:4;stroke-dasharray:none;stroke-opacity:1"
       d="m 32.27585,60.261559 -0.928584,4.689375 5.107237,0.557152 0.74287,-4.503657 z"
       id="path987" />
    <path
       style="fill:#1a1b13;fill-opacity:1;stroke:none;stroke-width:0.0313843;stroke-miterlimit:4;stroke-dasharray:none;stroke-opacity:1"
       d="M 37.197373,61.004429 40.67958,49.76851 44.3475,49.675679 42.258181,61.283038 Z"
       id="path989" />
    <path
       style="fill:#1a1b13;fill-opacity:1;stroke:none;stroke-width:0.0313843;stroke-miterlimit:4;stroke-dasharray:none;stroke-opacity:1"
       d="m 42.258181,61.282996 -0.469478,4.110528 5.187232,0.393964 0.06568,-4.990244 z"
       id="path991" />
    <path
       style="fill:#b6c1ae;fill-opacity:1;stroke:none;stroke-width:0.0313843;stroke-miterlimit:4;stroke-dasharray:none;stroke-opacity:1"
       d="m 47.041618,60.797244 0.393943,-11.293717 4.3008,-0.03281 0.328306,10.341631 z"
       id="path993" />
    <path
       style="fill:#b6c1ae;fill-opacity:1;stroke:none;stroke-width:0.0313843;stroke-miterlimit:4;stroke-dasharray:none;stroke-opacity:1"
       d="m 52.064667,59.812361 0.131303,5.581163 5.023079,-0.197038 -1.116235,-6.66461 z"
       id="path995" />
    <path
       style="fill:#1a1b13;fill-opacity:1;stroke:none;stroke-width:0.0313843;stroke-miterlimit:4;stroke-dasharray:none;stroke-opacity:1"
       d="m 56.102819,58.531912 -1.543018,-9.291034 2.429451,-0.689433 2.921927,8.667261 z"
       id="path997" />
    <path
       style="fill:#1a1b13;fill-opacity:1;stroke:none;stroke-width:0.0313843;stroke-miterlimit:4;stroke-dasharray:none;stroke-opacity:1"
       d="m 62.077993,63.686329 -0.06569,-0.295484 -2.101157,-6.17215 2.921916,-1.116231 3.906842,6.172142 z"
       id="path999" />
    <path
       style="fill:#b6c1ae;fill-opacity:1;stroke:none;stroke-width:0.0313843;stroke-miterlimit:4;stroke-dasharray:none;stroke-opacity:1"
       d="m 62.833064,56.102458 -2.931697,-8.144702 2.460763,-0.975022 4.782231,7.335865 z"
       id="path1001" />
    <path
       style="fill:#b6c1ae;fill-opacity:1;stroke:none;stroke-width:0.0313843;stroke-miterlimit:4;stroke-dasharray:none;stroke-opacity:1"
       d="m 67.144361,54.318599 3.929214,6.445814 3.972499,-2.4623 -5.023078,-5.614023 z"
       id="path1003" />
    <path
       style="fill:#1a1b13;fill-opacity:1;stroke:none;stroke-width:0.0313843;stroke-miterlimit:4;stroke-dasharray:none;stroke-opacity:1"
       d="m 70.022996,52.68809 -4.990246,-7.091399 3.151733,-1.411722 5.351381,6.434802 z"
       id="path1005" />
    <path
       style="fill:#1a1b13;fill-opacity:1;stroke:none;stroke-width:0.0313843;stroke-miterlimit:4;stroke-dasharray:none;stroke-opacity:1"
       d="m 73.535864,50.619771 5.540862,5.857793 4.317938,-3.041138 -6.546546,-4.991165 z"
       id="path1007" />
    <path
       style="fill:#b6c1ae;fill-opacity:1;stroke:none;stroke-width:0.0313843;stroke-miterlimit:4;stroke-dasharray:none;stroke-opacity:1"
       d="m 76.848118,48.445259 v 0 l -6.592991,-5.107232 2.251833,-1.485742 7.451927,4.596513 z"
       id="path1009" />
    <path
       style="fill:#b6c1ae;fill-opacity:1;stroke:none;stroke-width:0.0313843;stroke-miterlimit:4;stroke-dasharray:none;stroke-opacity:1"
       d="m 79.958887,46.448788 7.800145,4.991176 4.039363,-3.250058 -9.285897,-3.621494 z"
       id="path1011" />
    <path
       style="fill:#1a1b13;fill-opacity:1;stroke:none;stroke-width:0.0313843;stroke-miterlimit:4;stroke-dasharray:none;stroke-opacity:1"
       d="m 82.512498,44.568403 -8.171579,-3.807205 2.785771,-1.439316 8.450155,3.203632 z"
       id="path1013" />
    <path
       style="fill:#1a1b13;fill-opacity:1;stroke:none;stroke-width:0.0313843;stroke-miterlimit:4;stroke-dasharray:none;stroke-opacity:1"
       d="m 85.576835,42.525514 9.425185,3.575067 3.110775,-3.064344 -10.2609,-2.275039 z"
       id="path1015" />
    <path
       style="fill:#b6c1ae;fill-opacity:1;stroke:none;stroke-width:0.0313843;stroke-miterlimit:4;stroke-dasharray:none;stroke-opacity:1"
       d="m 87.851895,40.761189 -9.239462,-2.553614 2.739333,-2.460759 10.168044,2.55362 z"
       id="path1017" />
    <path
       style="fill:#b6c1ae;fill-opacity:1;stroke:none;stroke-width:0.0313843;stroke-miterlimit:4;stroke-dasharray:none;stroke-opacity:1"
       d="m 91.51981,38.300436 11.14307,1.764316 2.88279,-3.430813 -10.768427,-1.050577 z"
       id="path1019" />
    <path
       style="fill:#1a1b13;fill-opacity:1;stroke:none;stroke-width:0.0313843;stroke-miterlimit:4;stroke-dasharray:none;stroke-opacity:1"
       d="m 94.777243,35.583362 -10.440121,-1.050574 0.46714,-3.606039 17.589678,-0.793258 z"
       id="path1021" />
  </g>
</svg>
