<?xml version="1.0" encoding="UTF-8" standalone="no"?>
<svg
   height="429"
   viewBox="0 0 512 429"
   width="512"
   version="1.1"
   id="svg3523"
   sodipodi:docname="FriendshipRing.svg"
   inkscape:version="1.2.2 (732a01da63, 2022-12-09)"
   xmlns:inkscape="http://www.inkscape.org/namespaces/inkscape"
   xmlns:sodipodi="http://sodipodi.sourceforge.net/DTD/sodipodi-0.dtd"
   xmlns="http://www.w3.org/2000/svg"
   xmlns:svg="http://www.w3.org/2000/svg">
  <defs
     id="defs3527" />
  <sodipodi:namedview
     id="namedview3525"
     pagecolor="#505050"
     bordercolor="#eeeeee"
     borderopacity="1"
     inkscape:showpageshadow="0"
     inkscape:pageopacity="0"
     inkscape:pagecheckerboard="0"
     inkscape:deskcolor="#505050"
     showgrid="false"
     inkscape:zoom="0.48776224"
     inkscape:cx="-615.05376"
     inkscape:cy="32.802867"
     inkscape:window-width="1920"
     inkscape:window-height="1017"
     inkscape:window-x="-8"
     inkscape:window-y="-8"
     inkscape:window-maximized="1"
     inkscape:current-layer="svg3523" />
  <path
     d="m199 427.77c-8.2834-0.765-19.299-2.0044-33.5-3.7692-24.347-3.0258-54.842-9.4133-62.421-13.075-2.191-1.0586-6.5377-2.5899-9.6595-3.403-5.184-1.35-18.223-7.72-19.42-9.48-0.275-0.41-4.252-3.48-8.839-6.83-8.28-6.04-19.048-15.81-22.421-20.34-7.287-9.8-9.474-13.29-14.829-23.65-3.331-6.45-6.473-12.15-6.983-12.67-0.511-0.52-0.928-1.77-0.928-2.76 0-0.99746-0.43153-2.595-0.95895-3.55-2.9881-5.4107-8.2545-21.12-10.089-30.096-1.1647-5.6975-2.761-12.183-3.5474-14.412-1.3723-3.8896-1.5596-6.6996-1.3642-20.471 0.048712-3.4327-0.26964-6.8077-0.70745-7.5-2.5752-4.0723 0.57202-29.792 5.2449-42.861 1.0434-2.9184 1.0467-4.0676 0.017128-6.0521-0.7001-1.35-1.5657-5.58-1.9247-9.4-0.3589-3.82-1.8396-10.1-3.2904-13.95-3.9151-10.39-2.9554-24.14 2.1287-30.5 0.65963-0.825 2.4657-3.8704 4.0134-6.7676 2.8827-5.3962 8.9876-11.197 14.102-13.399 1.5813-0.68101 5.5751-3.535 8.8751-6.3421 3.3-2.8072 8.1196-5.8963 10.71-6.8648 3.1869-1.1915 5.3735-2.8342 6.7613-5.0798 2.0965-3.3922 4.3892-4.5084 9.3099-4.5325 1.722-0.008 3.0328-0.68023 3.4414-1.7636 1.279-3.3912 7.4033-13.283 9.8753-15.95 2.587-2.79 10.403-17.909 10.403-20.12 0-1.376 2.736-6.105 4.444-7.68 0.59632-0.55 2.9863-3.475 5.311-6.5 5.3983-7.0245 5.4069-7.0332 9.7986-10 2.0354-1.375 4.6816-3.4 5.8805-4.5s5.4866-4.213 9.5283-6.9178 9.418-6.7558 11.947-9.0022c5.5553-4.9339 25.603-15.007 33.09-16.627 3.1174-0.67435 5.3829-1.3954 12.5-3.9781 11.96-4.3401 34.849-5.9041 55.5-3.7922 14.195 1.4517 20.47 1.4877 22.183 0.12719 5.7406-4.5607 32.338-3.123 37.487 2.0263 0.36 0.3654 4.44 0.664 9.06 0.664 9.6181 0 16.725 2.6378 22.203 8.2415 2.5343 2.5921 3.7988 3.1369 6.8387 2.9463 2.337-0.14654 5.5963 0.68344 8.7294 2.223l5 2.4569 2.3222-2.1759c4.2046-3.9399 33.971-2.8007 42.832 1.6392 2.6651 1.3354 6.7364 3.3823 9.0474 4.5485 2.3109 1.1663 5.5914 2.1205 7.2898 2.1205 3.6957 0 9.6376 2.9637 12.795 6.3818 1.2574 1.3613 3.5074 2.7434 5 3.0713 6.3981 1.4053 24.898 18.179 27.624 25.047 0.82327 2.0742 3.7393 11.234 5.5304 17.373 1.6542 5.6692 2.6031 7.0438 8.5963 12.453 3.7053 3.3442 8.6829 9.0265 11.061 12.627 2.3784 3.6009 6.2705 9.0221 8.649 12.047 2.3785 3.025 5.3678 7.975 6.6428 11s4.1353 8.875 6.3563 13c3.9054 7.2536 11.754 29.468 11.754 33.267 0 1.0254 0.39762 2.6223 0.88361 3.5486 2.1274 4.0551 3.2158 35.252 1.7334 49.684-1.289 12.55-2.4582 18.056-7.1124 33.5-0.74588 2.475-2.1597 7.2-3.1418 10.5-0.98209 3.3-2.1405 6.15-2.5742 6.3333-0.43375 0.18334-0.78863 1.1407-0.78863 2.1276 0 0.98682-0.675 2.3544-1.5 3.0391-0.825 0.68469-1.51 1.9773-1.5222 2.8724-0.01 0.9-0.9 2.75-1.98 4.13-1.0755 1.375-1.9655 2.8149-1.9778 3.1999-0.0621 1.9551-7.7341 12.037-21.746 28.577-4.7602 5.619-20.756 21.532-25.857 25.723-2.6776 2.2-7.658 6.8125-11.067 10.25-3.4095 3.4375-6.8886 6.25-7.7314 6.25-0.84278 0-3.6896 1.2686-6.3263 2.819-2.6367 1.5505-7.4041 4.0109-10.594 5.4677-3.1901 1.4567-7.0846 3.5632-8.6544 4.6809-1.5698 1.1178-3.2586 2.0323-3.7529 2.0323s-5.9888 2.7-12.21 6c-6.2213 3.3-11.715 6-12.208 6-0.49304 0-3.029 0.94485-5.6355 2.0997s-5.6391 2.4792-6.7391 2.943c-1.1 0.46384-4.6008 1.994-7.7796 3.4003-3.1788 1.4064-6.3663 2.557-7.0833 2.557-0.71703 0-1.6121 0.3084-1.989 0.68534-0.79847 0.79846-6.6255 3.0086-11.648 4.418-3.3116 0.9293-7.7219 2.5806-14.5 5.429-1.65 0.69339-5.025 1.5855-7.5 1.9824-2.475 0.39695-5.7152 1.3435-7.2003 2.1035-1.4852 0.75996-4.1532 1.3818-5.929 1.3818s-4.6106 0.41782-6.2997 0.92849c-1.689 0.51067-6.671 1.4509-11.071 2.0893-4.4 0.63847-9.8 1.549-12 2.0234-9.4927 2.0469-23.854 3.9115-35 4.5442-17.966 1.0198-21.228 1.0394-30.5 0.18307zm-3.485-10.474c-0.54651-7.1217-0.09-7.7794 3.5382-5.0969 3.61 2.669 3.671 3.8056 0.38088 7.0957-2.9387 2.9387-1.602 4.491 3.8476 4.4684 4.1457-0.0172 5.1724-3.4706 3.358-11.295-0.70025-3.0197-0.7372-3.0343-8.4216-3.331-4.25-0.17-10.42-0.42-13.72-0.57-7.5365-0.33265-8.018-0.0472-5.4427 3.2267l2.0925 2.6602-2.0883 1.691c-1.1486 0.93006-2.6132 1.866-3.2548 2.0799-3.1612 1.0537 0.31282 3.7717 4.9119 3.843 2.6298 0.0408 6.8064 0.4071 9.2814 0.81406 5.9513 0.97857 6.0144 0.91449 5.515-5.5938zm-10.52-0.8c0-1.925-0.1125-3.8375-0.25-4.25s0.75815-0.89323 1.9903-1.0683c3.3896-0.48157 5.2389 4.0787 2.7634 6.8142-2.79 3.09-4.5 2.52-4.5-1.5zm31.411 6.6439c0.291-0.47085 2.6975-0.64773 5.3478-0.39307 3.6215 0.34799 5.1501 0.0638 6.1524-1.1439 0.7335-0.88382 1.0377-1.6069 0.67601-1.6069s-0.18151-0.88964 0.40041-1.977c0.76797-1.435 0.71945-2.5191-0.17696-3.9545-1.6745-2.6814-0.35315-3.6968 2.6908-2.0677 2.5438 1.3614 3.4503 5.2929 1.4985 6.4992-0.55 0.33992-1 1.2665-1 2.059 0 1.7216 8.9704 2.0706 10.627 0.41355 0.56509-0.56509 3.6926-1.0572 6.95-1.0936 4.9885-0.0557 11.21-1.113 27.173-4.6181 2.6188-0.57504 2.8419-2.6023 0.73165-6.6487-0.82832-1.5883-1.388-3.6133-1.2438-4.5 0.31298-1.9245-3.9144-2.8356-5.5532-1.1968-0.59 0.6-2.28 1.09-3.76 1.09-6.4817 0-8.8683 1.0433-7.103 3.105 0.89237 1.0422 2.1975 1.895 2.9003 1.895 1.6986 0 1.627 3.1402-0.12636 5.538-1.3132 1.7959-1.5538 1.5774-3.7158-3.374l-2.3117-5.2942-7.5342 0.67553c-8.967 0.80399-10.182 1.6041-7.221 4.7559 2.5056 2.6671 2.79 4.9533 0.81944 6.5887-1.0284 0.85349-1.5964 0.82187-2.2914-0.12756-2.035-2.7799-3.5432-6.6267-2.965-7.5622 0.99606-1.6117-1.3906-1.9491-10.126-1.4318-8.6126 0.51007-9.5725 1.1188-6.25 3.9636 2.4316 2.082 2.4939 3.0647 0.34501 5.4392-2.4264 2.6812-4.519 2.3702-3.783-0.56217 0.33004-1.315 0.11361-2.6916-0.48095-3.059-0.59-0.36-1.08-1.76-1.08-3.1 0-2.8314 0.20916-2.7585-3.8508-1.3432-3.615 1.2602-4.0297 2.488-1.1492 3.4022 2.5878 0.82132 2.5564 3.6865-0.0663 6.06-1.9519 1.7665-1.969 1.941-0.30887 3.155 2.0097 1.4695 5.0058 1.6916 5.7862 0.42896zm33.29-7.89c-0.30523-1.5125-0.87339-3.5734-1.2626-4.5797-0.59972-1.5507-0.26736-1.7794 2.18-1.5 2.3238 0.26533 2.9505 0.87838 3.2098 3.1402 0.57367 5.0031-3.1724 7.6712-4.1272 2.9395zm20.269-1.75c-0.0562-0.55-0.26471-2.2304-0.46336-3.7342-0.19866-1.5038 0.0167-2.9678 0.47865-3.2532 1.2931-0.7992 4.0203 0.54641 4.0203 1.9836 0 1.5736-3.8929 6.4005-4.0356 5.0038zm-96.892 3.3344c1.5519-5.829-0.19792-9.3018-4.8581-9.6419-3.9284-0.28665-5.5398 0.87018-3.2142 2.3075 1.3823 0.85429 1.2556 4.8444-0.2 6.3-2.3381 2.3381-4.0944 1.4218-3.45-1.8 0.33192-1.6596 0.17288-3-0.35595-3-0.52577 0-1.2362-1.1168-1.5788-2.4817-0.65286-2.6012-5.1188-4.5014-10.606-4.5128-1.48-0.003-2.943-0.41342-3.2511-0.9119-0.30807-0.49847-2.9221-1.2056-5.809-1.5713-6.3295-0.80188-15.081-3.645-23.392-7.5995-3.38-1.6-6.59-2.92-7.14-2.92-1.4752 0-8.5517-3.302-10.247-4.7816-7.4705-6.5184-9.5525-8.2169-10.073-8.2176-2.033 0-19.244-17.44-21.826-22.11-9.336-16.89-10.878-20.68-14.592-35.89-2.466-10.1-2.275-27.18 0.457-40.93 1.084-5.46 0.698-9.07-0.972-9.07-0.4938 0-2.4751-1.3848-4.4028-3.0774-5.2616-4.6197-5.2776-4.5879-7.5997 15.077-1.225 10.374-0.54518 24.103 1.4607 29.5 0.81767 2.2 1.5262 5.575 1.5745 7.5 0.04828 1.925 0.73626 5.3 1.5288 7.5 0.79258 2.2 1.4478 4.607 1.4561 5.3489 0.01614 1.4456 0.91431 3.5376 7.6702 17.866 2.389 5.06 4.344 9.5 4.344 9.86 0 1.0252 8.1289 10.664 11.383 13.497 3.4279 2.9844 2.8353 5.45-1.074 4.4688-5.7719-1.4487-22.864-18.259-23.242-22.858-0.03686-0.4492-1.1833-2.2803-2.5477-4.069-4.267-5.6-13.519-28.43-13.519-33.37 0-0.70163-0.39949-2.0571-0.88775-3.0121-5.4943-10.747-7.3349-44.116-3.5303-64.001l1.428-7.4637-2.9667-5.6359c-1.6317-3.0998-4.2051-8.4539-5.7186-11.898-3.8447-8.7488-4.8715-7.9944-7.2447 5.3223-1.9348 10.857-0.4422 47.164 2.051 49.89 0.47798 0.5225 0.86254 2.7725 0.85457 5-0.008 2.2275 0.8721 6.975 1.9557 10.55s3.6052 11.9 5.6035 18.5c4.7398 15.654 16.903 40.293 24.367 49.359 8.4181 10.225 12.694 14.31 20.736 19.811 4.6876 3.2063 10.988 7.5164 14.001 9.578 3.0663 2.0981 7.3211 4.0354 9.6648 4.4004 2.3028 0.35868 5.4591 1.7096 7.014 3.002s4.0299 2.6241 5.5 2.9593c2.9891 0.68149 6.7644 1.9248 19.173 6.3144 4.675 1.6538 9.385 3.0224 10.467 3.0412 1.0816 0.0189 3.8125 0.73932 6.0687 1.601 14.477 5.5287 34.331 6.7957 35.537 2.2678zm120.42-4.93c2.2-0.56489 6.025-1.7316 8.5-2.5926 2.475-0.86105 6.1875-2.0511 8.25-2.6445 4.2401-1.22 4.6338-2.0969 1.75-3.8978-1.2997-0.81165-2-2.332-2-4.3418 0-4.2418-6.3335-5.0224-10.45-1.288-0.5225 0.47401-2.1583 0.86183-3.6352 0.86183-4.7879 0-9.6236 2.5372-7.3272 3.8444 4.7702 2.7154 4.7769 2.7298 2.8151 6.0508-1.8527 3.1364-3.8705 3.658-3.9401 1.0186-0.08-3.15-3.66-6.91-6.58-6.91-3.5374 0-3.6139 0.63877-0.38121 3.1816 2.314 1.8202 2.3898 2.1322 1 4.1164-2.0806 2.9705-1.9116 3.5092 1.2462 3.9728 2.95 0.43301 4.5086 0.23469 10.75-1.3679zm4.009-5.9439c0.41975-1.9111 0.19419-3.6118-0.60712-4.5773-1.1108-1.3384-0.83241-1.4942 2.1615-1.209 4.0659 0.3872 5.217 3.7549 2.362 6.9097-2.7581 3.0477-4.7096 2.4879-3.9164-1.1234zm-83.446-2.2681 0.0634-2.191 0.91032 2.266c0.77863 1.9382 1.4566 2.1945 4.6866 1.7715 2.077-0.27198 9.876-0.97844 17.331-1.5699 7.4552-0.59147 16.455-1.7444 20-2.5622 3.5448-0.81772 7.6305-1.4653 9.0794-1.439 6.056 0.10969 41.065-8.2312 48.517-11.559 1.74-0.78 3.8-1.41 4.57-1.41 0.77426 0 2.2812-0.66069 3.3489-1.4682 1.0676-0.8075 3.1036-1.4825 4.5245-1.5 1.4208-0.0175 2.8882-0.33668 3.2608-0.70931 0.64269-0.64269 11.88-4.8039 16.156-5.9827 1.1-0.30323 5.257-2.0788 9.2379-3.9456 3.9808-1.8668 7.674-3.3942 8.2071-3.3942 1.0872 0 17.861-8.6706 19.805-10.237 1.7-1.37 1.57-2.76-0.25-2.76-0.825 0-1.5 0.45-1.5 1s-0.675 1-1.5 1c-2.3185 0-1.7811-1.3078 1.4182-3.4513l2.9125-1.9513-4.1654-2.0253c-5.42-2.6353-5.325-2.5465-3.7583-3.5148 1.6935-1.0466 0.54038-3.0719-1.7161-3.0141-1.6136 0.0414-4.6585 1.7133-12.252 6.7274-1.8914 1.2489-4.5639 2.552-5.9389 2.8958s-3.6945 1.4595-5.1544 2.4793-3.018 1.8542-3.4624 1.8542c-0.44439 0-4.8749 1.6254-9.8456 3.612s-9.9376 3.9664-11.038 4.3995c-1.1 0.43316-6.725 2.2316-12.5 3.9965s-13.425 4.1283-17 5.2521c-11.818 3.7149-31.322 6.6466-32.418 4.8731-0.77403-1.2524 5.5166-4.1331 9.0255-4.1331 1.2999 0 4.2825-0.44158 6.6279-0.98128s9.4394-2.1511 15.764-3.5808c6.325-1.4297 12.4-2.9874 13.5-3.4616 1.1-0.47413 6.95-2.5155 13-4.5364 9.6121-3.2108 22.933-8.8063 27.5-11.551 0.825-0.49588 2.175-1.1467 3-1.4462 7.8113-2.836 16.5-8.1558 16.5-10.102 0-1.1878 0.32639-2.4892 0.72532-2.892 0.39893-0.40279-1.3644-1.8448-3.9186-3.2045l-4.6439-2.4722-5.5814 2.2743c-3.0698 1.2509-6.7338 3.0723-8.1424 4.0476-1.4086 0.97534-3.8836 2.0818-5.5 2.4588-1.6165 0.377-3.839 1.2324-4.939 1.901-1.1 0.66853-3.35 1.7104-5 2.3152-33.761 12.375-42.429 15.25-51.5 17.082-3.025 0.61075-8.875 1.815-13 2.676-4.125 0.86106-10.853 2.0019-14.951 2.5351-4.0981 0.53324-9.0481 1.386-11 1.895s-8.274 1.4376-14.049 2.0637c-13.02 1.4115-15.369 2.242-14.458 5.1126 0.41368 1.3034 0.17043 2.4266-0.63302 2.9232-0.92221 0.56995-0.51574 1.0045 1.3861 1.4818 3.14 0.8 2.61 2.47-0.82 2.47-2.8513 0-4.3926 1.901-1.809 2.2312 0.99496 0.12718 7.209 0.23968 13.809 0.25 12.595 0.0197 15.663 1.1293 8.8858 3.2142-2.6027 0.80068-12.471 1.1854-29.886 1.1652l-26-0.0302 0.15685 2.8348c0.0863 1.5592 0.55145 4.4098 1.0337 6.3348l0.87688 3.5 7.7168 0.90447c6.6164 0.77549 7.9775 0.66854 9.545-0.75 2.4578-2.2243 5.8667-2.091 7.1351 0.27907 1.8912 3.5337 7.995 3.3509 8.099-0.24256zm-5.06-5.69c-1.375-0.44035-5.1205-0.8455-8.3233-0.90032-4.9641-0.085-5.7739-0.3562-5.4885-1.8382 0.42489-2.2063 3.4197-2.8093 6.2989-1.2684 1.3031 0.69737 4.9724 1.0488 8.8599 0.84864 6.4893-0.33418 7.653 0.15848 7.653 3.2401 0 1.0951-5.4807 1.0453-9-0.0818zm-35.552 5.0839c0.31139-0.50385 0.0755-2.1914-0.5242-3.75-0.5997-1.5587-1.4018-4.6339-1.7824-6.8339-0.66424-3.8394-0.87167-4.0249-5.1668-4.6202-2.4611-0.34112-5.8725-0.94692-7.5809-1.3462-5.1359-1.2004-4.9701 6.8802 0.18173 8.8571 1.3292 0.51006 1.4124 0.91887 0.42829 2.1046-1.0016 1.2068-0.79694 1.6622 1.1374 2.5311 1.2973 0.58273 3.4837 1.7086 4.8587 2.5018 2.8195 1.6266 7.5922 1.9406 8.4481 0.55572zm157.3-2.11c6.3709-2.3028 8.1164-4.6729 4.1964-5.698-1.6102-0.42108-1.9881-1.2088-1.75-3.6482 0.35837-3.6723 3.8036-5.1905 3.8036-1.6761 0 1.3178 0.92973 2.4516 2.5 3.0486 1.375 0.52277 2.5 1.4116 2.5 1.9752 0 1.5346 3.255 1.2349 5.7775-0.53195 2.9977-2.0997 2.7971-3.0784-0.77749-3.7933-3.2635-0.6527-3.936-2.8569-1.588-5.2048 1.216-1.216 1.8553-0.99786 4.6058 1.5714 3.4665 3.2382 7.408 3.8551 10.444 1.6347 1.7238-1.2604 1.6381-1.4207-1.3089-2.448-2.42-0.84-3.15-1.68-3.15-3.65 0-3.3859-9.9198-1.6774-19.882 3.4243-0.89008 0.45582-3.5073 1.3869-5.8161 2.0691-5.6179 1.6599-6.522 4.8174-2.5342 8.8499 1.8865 1.9077-0.14517 3.1053-3.636 2.1432-2.3105-0.63675-2.5962-1.172-2.3387-4.382 0.33558-4.184-0.96192-4.655-5.8541-2.1252-3.4208 1.769-3.2672 4.891 0.44317 9.0104 2.5349 2.8143 5.314 2.7045 14.368-0.56812zm-195.75-8.04c0-1.1362-0.46543-2.9354-1.0343-3.9983-0.56886-1.0629-1.2184-3.7828-1.4433-6.0443-0.22498-2.2614-0.54705-4.1837-0.71572-4.2718-8.86-4.62-12.81-4.38-12.81 0.8 0 5.8804 2.2991 11.567 4.699 11.623 0.99057 0.0231 3.376 0.90419 5.301 1.9581 4.5438 2.4876 6 2.4717 6-0.0657zm234.5-8.5056c2.0737-1.5671 0.88457-3.3751-2.2451-3.4134-0.71882-0.009-1.25-1.2901-1.25-3.0153 0-3.2159-1.545-3.8644-4.1691-1.75-5.8405 4.7058 1.6634 12.713 7.6643 8.1787zm-180.14-1.92c0.43776-1.1408 2.4391-1.5275 8.357-1.615 6.745-0.0997 7.2486-0.22209 3.7814-0.91912-2.2-0.44227-5.0401-0.55982-6.3112-0.26122-1.6934 0.39776-2.4473 0.042-2.82-1.3309-0.68692-2.5298-6.7657-5.1506-12.869-5.5481l-5-0.32569 0.23846 3.9085c0.40827 6.6918 12.465 11.714 14.623 6.0915zm-21.902-3.75c-2.1354-7.1113-2.3453-7.25-10.973-7.25h-7.9865l0.2102 2.9102c0.27371 3.7896 1.0485 4.4597 6.3615 5.5019 9.0254 1.7706 13.152 1.3834 12.387-1.1621zm218.04-1.99c6.1578-3.7184 7.1417-5.077 4.22-5.8272-1.7857-0.45852-2.1704-1.1921-1.9662-3.75 0.31-3.8-1.83-4.24-5.75-1.18-1.375 1.0755-3.2651 1.9655-4.2003 1.9778-0.93517 0.0122-2.0602 0.58474-2.5 1.2722-0.43983 0.6875-1.6997 1.749-2.7997 2.359-1.1 0.60994-2 1.9109-2 2.891 0 0.98011 0.9 2.2811 2 2.891 1.1 0.60995 2.3709 1.6912 2.8242 2.4028 1.0504 1.6488 3.7511 0.84284 10.176-3.0367zm-5.25-1.3416c-2.9886-1.307-4.0959-3.2363-2.6737-4.6586 1.0471-1.0471 6.4109 2.7082 6.4173 4.493 0.003 0.9625-0.10618 1.7133-0.24368 1.6684s-1.7125-0.72116-3.5-1.5029zm-250.7-4.5027c0.36954-0.59793 0.17109-1.5879-0.44098-2.2-0.61208-0.61208-1.1129-1.837-1.1129-2.722 0-1.0547-1.7523-2.1695-5.0861-3.2356-6.1149-1.9555-7.7838-1.5256-7.1406 1.8392 0.77177 4.0372 12.007 9.1885 13.781 6.3184zm274.2-4.16c2.1508-1.7208 1.3846-2.6233-2.5-2.9448-3.579-0.29621-3.7352-0.45861-3.4246-3.5604 0.384-3.8357-0.34279-3.9818-4.183-0.84069-3.542 2.8972-2.9656 5.6912 1.6404 7.9514 3.1716 1.5564 6.0196 1.3527 8.4672-0.6055zm-176.25-0.73c12.395-1.0222 21.865-2.3007 28.5-3.8475 2.475-0.57702 7.425-1.5797 11-2.2281 6.6098-1.1989 7.8978-1.5134 18.5-4.5183 6.0575-1.7168 22.306-6.9731 26-8.4109 1.1-0.42814 4.5722-1.5277 7.7159-2.4435 3.1438-0.91581 5.9828-2.097 6.309-2.6248s1.7346-0.95964 3.1298-0.95964 3.7311-0.65303 5.191-1.4512c1.4599-0.79815 7.8293-3.9335 14.154-6.9675 14.31-6.8641 23.394-11.767 27.97-15.098 1.9413-1.4126 9.6046-6.859 17.03-12.103 7.425-5.2441 14.247-10.4 15.16-11.458 0.91316-1.0576 1.9734-1.9229 2.3561-1.9229 2.7276 0 17.459-15.639 29.786-31.621 6.4829-8.4052 12.167-22.4 16.065-39.554 1.8284-8.0467 0.56257-18.589-2.784-23.187-6.14-8.43-21.41-20.63-25.84-20.63-0.82321 0-2.0569-0.675-2.7416-1.5-0.68469-0.825-2.0148-1.5-2.9558-1.5-0.94099 0-2.0261-0.31524-2.4114-0.70053-0.76481-0.76482-9.0706-3.5498-17.432-5.8449-2.9143-0.8-7.4143-1.4624-10-1.4719-5.6625-0.0209-18.175-2.5566-19.588-3.9695-2.7441-2.7441-47.294-0.0838-51.17 3.0556-0.58151 0.47094-3.5065 1.5027-6.5 2.2928-16.443 4.34-32.241 11.846-42.574 20.227-3.8038 3.0854-15.154 8.9041-24.868 12.749-7.4974 2.9675-18.476 3.6968-51.593 3.4274-21.942-0.17853-33.38 0.0912-35 0.82526-1.3238 0.59976-5.782 2.7072-9.907 4.6833s-8.8232 3.8779-10.441 4.2264c-1.6173 0.34846-4.607 1.9535-6.6439 3.5667s-3.9951 2.9331-4.3517 2.9331c-0.65459 0-2.249 1.1899-5.462 4.0764-0.96509 0.86702-2.4654 1.8491-3.334 2.1824-0.86862 0.33332-1.8958 2.099-2.2827 3.9236-0.71645 3.3791-2.754 5.5543-10.129 10.813-3.75 2.66-14.37 14.82-14.37 16.44 0 0.36124-1.7335 3.2666-3.8521 6.4563-6.434 9.68-14.148 27.53-14.148 32.72 0 1.1727-0.675 3.7477-1.5 5.7222-2.3683 5.6681-1.8212 9.2199 2.75 17.854 3.914 7.39 18.037 22.8 20.899 22.8 0.44885 0 3.6365 1.6967 7.0837 3.7705s10.093 5.2611 14.768 7.083 9.4 3.8003 10.5 4.3965c1.8773 1.0175 5.3671 1.8427 20 4.7295 3.3 0.65101 7.382 1.597 9.071 2.1021 1.689 0.50514 7.089 0.96294 12 1.0173 4.911 0.0544 11.404 0.46893 14.429 0.92119 5.9484 0.88934 23.932 0.46149 41.5-0.98737zm192.87-9.3851c14.377-9.4971 31.696-24.375 39.168-33.648 2.7269-3.3841 2.5049-4.3307-1.0375-4.4224-3.2662-0.0845-3.5-0.35698-3.5-4.0776 0-3.0208 2.5823-3.3914 3.4993-0.50232 1.1349 3.5759 5.4733 3.7328 8.4211 0.3045 7.14-8.29 14.08-17.1 14.08-17.86 0-0.34378 0.88382-1.8663 1.964-3.3833s4.2829-7.2115 7.117-12.654c2.8341-5.4429 5.6164-10.472 6.183-11.176 0.71286-0.88558 0.66526-2.0802-0.15456-3.8795-1.028-2.2562-0.91518-2.7886 0.85298-4.0271 2.4306-1.7025 2.6049-3.598 0.49207-5.3515-0.85003-0.70546-1.3122-1.8907-1.027-2.6338 0.97702-2.5461-2.745-8.2866-5.9275-9.1421l-3-0.80641-0.55858-9.44-0.55859-9.44-0.19141 9.0275c-0.13725 6.4727-0.65191 9.685-1.8186 11.351l-1.6272 2.3231-2.8558-4.8506-2.8558-4.8506-0.0171 9.3717c-0.0554 30.435-8.1984 49.022-31.38 71.628-10.517 10.256-19.58 18.185-27.137 23.741-7.764 5.7087-9.3012 7.5142-7.1126 8.354 0.88694 0.34035 1.6126 1.2598 1.6126 2.0432 0 0.78342 0.675 1.6834 1.5 2 2.6913 1.0328 1.693 3.3616-1.441 3.3616-3.4586 0-4.596-1.4432-4.1898-5.3161l0.29551-2.8173-3.8324 2.4254c-2.1078 1.334-3.7874 2.939-3.7324 3.5667 0.055 0.62768 0.1675 2.0412 0.25 3.1412s0.7699 2 1.5276 2c0.75765 0 1.9378 0.675 2.6224 1.5 1.8818 2.2674 2.3914 2.0599 14.37-5.8524zm-2.3759-6.1554c-1.39-1.66 0.45-6.48 2.49-6.48 0.83861 0 1.5248 0.64468 1.5248 1.4326 0 0.78794 0.92477 1.7261 2.055 2.0849 1.1303 0.35874 1.8841 1.165 1.6752 1.7917-0.58327 1.7498-6.5137 2.6567-7.7367 1.1831zm10.022-9.1173c0.0309-3.7817 1.3574-4.5346 4.8871-2.7738 3.6545 1.8231 3.143 3.0397-1.6836 4.0051-2.7123 0.54246-3.2163 0.34874-3.2034-1.2312zm10.484-7.3755c-0.3784-0.61225-0.41774-2.19-0.0874-3.506l0.60057-2.3929 3.4477 2.1997c1.8963 1.2098 3.3212 2.6497 3.1666 3.1997-0.39973 1.4216-6.3019 1.8353-7.1274 0.49952zm7.167-7.6662c-1.3189-1.3189-0.6289-4.2832 1.2283-5.2771 1.407-0.753 2.2111-0.6333 3.1224 0.46481 0.6751 0.81345 1.8474 1.479 2.605 1.479 0.75766 0 1.3776 0.62252 1.3776 1.3834 0 1.9925-6.7186 3.5646-8.3333 1.95zm-350.66 34.61c-1.925-1.1406-4.664-3.4509-6.0867-5.134s-3.1345-2.8776-3.8041-2.6544c-0.81312 0.27104-0.52631 1.064 0.86362 2.3878 1.1446 1.0901 3.2683 3.2195 4.7194 4.732 1.5485 1.614 3.7061 2.7485 5.2231 2.7463 2.4865-0.004 2.4517-0.0825-0.9153-2.0776zm-45-10.92c0-0.54971-1.104-3.1372-2.4533-5.75s-3.1798-6.5505-4.0676-8.7505c-0.88788-2.2-2.0084-4.9-2.4899-6-0.48159-1.1-1.0888-3.8-1.3494-6-0.26056-2.2-1.1456-6.475-1.9668-9.5-0.82115-3.025-1.7671-6.7375-2.1021-8.25-0.33498-1.5125-1.0505-2.75-1.59-2.75-1.2908 0-1.2137 7.4445 0.12948 12.5 0.58449 2.2 1.6365 6.475 2.3378 9.5 3.022 13.04 13.552 32.46 13.552 25zm16.159-9.6914c-2.322-10.574-2.7714-14.054-2.0518-15.89 0.41372-1.0557 0.78385-5.6615 0.82251-10.235 0.03866-4.5737 0.5411-9.1955 1.1165-10.271 0.57544-1.0752 0.76037-2.4175 0.41097-2.9828-1.097-1.77-3.457 1.09-3.457 4.19 0 3.39-1.9321 3.8531-2.7663 0.66305-0.84898-3.2465-3.0614 3.2402-3.1428 9.2145-0.0948 6.9594 5.0935 27 6.9901 27 0.3772 0 0.94546 0.99285 1.2628 2.2063 1.1267 4.3086 1.8539 0.83234 0.81531-3.8972zm349.18-2.06c15.088-10.027 27.51-23.354 20.914-22.437-1.2375 0.17207-2.25-0.16543-2.25-0.75s0.45-1.0629 1-1.0629 1-0.48032 1-1.0674c0-0.61231-0.85269-0.79675-2-0.43261-2.5591 0.81223-2.7616-1.9571-0.25-3.4199 1.5788-0.9196 1.587-1.0223 0.0833-1.0497-0.91666-0.0167-1.856 0.53209-2.0874 1.2196-0.32569 0.96768-0.80629 0.93167-2.1279-0.15943-1.5136-1.2496-2.1275-1.0131-5.4126 2.0845-6.92 6.51-12.91 10.82-15.06 10.82-3.8269 0-2.2263-2.3912 5.1915-7.7561 12.163-8.7968 18.11-16.477 13.911-17.967-0.6875-0.24396-1.25 0.22079-1.25 1.0328 0 0.81199-0.7118 1.7495-1.5818 2.0833-2.3382 0.89726-3.1281 0.70912-1.458-0.34727 1.2497-0.79047 1.1913-1.2208-0.40499-2.9847-2.6902-2.9726-3.7889-2.6372-9.7271 2.9699-2.9305 2.767-7.5781 6.3818-10.328 8.033-2.75 1.6511-5.883 3.5497-6.9621 4.2191-1.0792 0.66937-3.6667 2.2352-5.75 3.4796-4.16 2.49-4.9 4.24-1.79 4.24 1.1111 0 2 0.66667 2 1.5 0 0.825 0.41786 1.5 0.92857 1.5 1.4217 0 4.0714 2.9677 4.0714 4.56 0 0.77945-3.2296 3.5598-7.177 6.1786-10.814 7.1744-10.227 10.165 0.83666 4.2614 7.4489-3.975 12.465-3.1217 11.104 1.8889-0.36342 1.3377 3.3345 4.0406 5.581 4.0793 1.0145 0.0175 5.0608-2.1057 8.9918-4.7182zm36.941-34.261c1.8429-2.1524 2.2766-5.9821 0.85373-7.5386-0.47767-0.5225-1.6719-3.1087-2.6538-5.7471l-1.7853-4.7971-3.3462 3.2432c-4.1028 3.9766-4.1147 4.5194-0.25071 11.366 3.3661 5.9645 4.5565 6.5401 7.1823 3.4734zm-8.3139-20.921c0.72621-1.3569 0.57811-2.9195-0.52748-5.5656-3.0192-7.2259-7.8071 0.78251-4.9569 8.2912 0.63279 1.6671 4.0396-0.026 5.4844-2.7256zm-369.5-7.02c2.348-4.54 2.103-6.88-0.474-4.55-1.1072 1.002-2 3.08-2 4.655 0 3.6115 0.56471 3.5874 2.4743-0.10533zm-39.021-3.3c0.21489-0.6875 0.66844-2.923 1.0079-4.9678s1.3238-4.4245 2.1875-5.2881c1.427-1.427 1.3213-1.9296-1.1597-5.5096-4.6924-6.7711-8.2629-7.8565-7.0371-2.1392 0.31307 1.4601 0.61109 4.6798 0.66228 7.1548 0.1719 8.3116 2.95 15.194 4.3391 10.75zm26.747-6.0937c0.73903-0.73903 3.2462-2.5447 5.5714-4.0126 2.327-1.47 4.229-3.08 4.229-3.57 0-0.49479 2.8125-2.7895 6.25-5.0993s6.7-4.7123 7.25-5.3388c1.15-1.31 9.183-6.64 10.008-6.64 0.48508 0 4.0829-2.629 13.742-10.042 3.7215-2.856 3.4588-5.2284-0.98422-8.8908-4.5626-3.7609-4.9314-3.6583-8.0155 2.2304-2.9621 5.6556-12.873 13.672-15.157 12.26-0.45412-0.28066-1.6453 0.39542-2.6472 1.5024-1.0018 1.107-3.762 2.8711-6.1336 3.9202-2.505 1.11-4.313 2.58-4.313 3.52 0 0.89037-1.3485 2.0784-3.0211 2.6614-1.6616 0.57924-3.4774 1.9058-4.0352 2.948-0.558 1.04-1.674 1.89-2.479 1.89-0.806 0-1.465 0.57-1.465 1.26 0 2.2453-3.6809 3.8124-6.4669 2.7531-2.001-0.76-2.533-0.65-2.533 0.51 0 0.82 0.45 1.48 1 1.48s1 1.3276 1 2.9503c0 4.379 5.1848 6.722 8.2008 3.706zm-12.3-12.69c0.09806-1.5023-1.5295-3.5572-10.66-13.459-4.635-5.02-22.24-37.56-22.24-41.1 0-2.17-4.096-10.41-5.177-10.41-2.6146 0 1.5729 16.115 6.7963 26.154 0.75953 1.4599 1.381 3.3173 1.381 4.1276 0 0.81029 0.60085 1.9719 1.3352 2.5814 0.73437 0.60947 1.9292 2.9081 2.6553 5.108 0.72604 2.1999 2.1502 4.7511 3.1648 5.6693 1.0146 0.91819 1.8447 2.3582 1.8447 3.2-0.001 2.3 4.057 6.16 6.473 6.16 2.95 0 4.526 1.87 4.526 5.37 0 3.17 2.432 6.63 4.655 6.63 0.74 0 1.345 0.81 1.345 1.8 0 5.5199 3.5287 3.8669 3.9003-1.8271zm418.09-4.1638c0.0116-4.7492-1.7898-3.9854-2.9091 1.2333-1.5216 7.0951-1.3581 7.891 0.91566 4.4577 1.0928-1.65 1.9898-4.2109 1.9934-5.691zm28.762-19.575c-0.27041-8.7812-0.93834-13.496-2.6541-18.734-1.261-3.85-2.2306-8.9294-2.1546-11.287 0.25347-7.8671-15.241-32.066-21.546-33.648-3.31-0.83077-3.8624-0.29445-2.438 2.3671 1.9685 3.6782-1.1241 6.9983-3.3518 3.5984-0.9-1.4-2.09-2.54-2.62-2.54-1.6045 0-1.1049 3.7369 0.58643 4.386 2.3696 0.9093 0.81923 2.4339-3.7172 3.6555-2.6032 0.70096-4.2513 1.7916-4.5744 3.0272-0.63235 2.4181-0.85417 2.4077-3.5636-0.16683-5.818-5.5283-20.485-12.997-16.844-8.5775 0.75036 0.91082 3.931 3.4081 7.0682 5.5495 9.11 6.23 27.06 26.84 27.06 31.09 0 0.57227 0.45 1.0405 1 1.0405s1 1.3234 1 2.941c0 1.6175 0.45 3.2191 1 3.559 0.55 0.33992 1 1.4649 1 2.5 0 3.3161 1.9976 3.262 2.6644-0.0722l0.64096-3.2048 1.8054 3.3885c0.99297 1.8637 1.8242 4.401 1.8473 5.6385s0.49192 2.25 1.0419 2.25c1.2218 0 1.3294-7.3598 0.14279-9.7636-0.47147-0.95504-1.5965-3.1559-2.5-4.8907-1.7671-3.393-2.0942-5.3495-0.89279-5.3394 1.1132 0.009 4.25 5.8788 4.25 7.9523 0 0.98809 0.64829 2.3346 1.4406 2.9921 0.79235 0.6576 1.6382 2.1752 1.8796 3.3724 0.24146 1.1972 0.30013 0.15182 0.13037-2.3232-0.16975-2.475-0.61374-5.2875-0.98664-6.25-0.39559-1.0211-0.2169-1.75 0.42899-1.75 0.60885 0 1.1213 0.7875 1.1388 1.75s0.6925 2.6235 1.5 3.6911c0.80751 1.0676 1.4682 2.7551 1.4682 3.75 0 0.99488 0.45 1.8089 1 1.8089s1-2.025 1-4.5c0-13.23 4.3264 1.0816 4.6855 15.5 0.15754 6.325 0.30643 11.725 0.33087 12 0.0244 0.275 0.50709-0.29463 1.0726-1.2658 0.60641-1.0415 0.87993-6.579 0.66681-13.5zm-8.75-20.74c0-1.375-0.40186-2.5-0.89301-2.5-1.2676 0-2.1956-2.8272-1.1418-3.4785 0.93942-0.58059 4.0348 4.891 4.0348 7.1321 0 0.7405-0.45 1.3464-1 1.3464s-1-1.125-1-2.5zm15.78 13.817c-0.29727-6.8363-1.0514-9.3794-2.3858-8.0451-0.82919 0.82918-0.48204 24.784 0.3788 26.14 1.0595 1.6682 2.3575-10.034 2.007-18.095zm-457.66 12.32c0.06824-0.62865 0.02913-3.4676-0.08693-6.3087-0.12816-3.1375 0.43701-6.5313 1.4395-8.6438 1.0587-2.231 1.6872-6.2949 1.7528-11.334 0.13442-10.316 2.8942-13.269 8.0437-8.609 2.33 2.12 17.727 3.27 17.727 1.33 0-0.6255-0.7875-1.389-1.75-1.6966-5.6306-1.7995-11.442-6.6275-12.794-10.628-1.1953-3.5387-8.9053-0.2418-12.376 5.292-1.6255 2.5919-3.2662 3.9563-5 4.1579-3.2437 0.37719-3.7912 3.2703-1.7175 9.0757 3.5436 9.9203 2.8587 17.879-1.6112 18.722l-2.666 0.51 1.694 3.5c3.0061 6.2095 6.9072 8.6756 7.3449 4.643zm8.762 0.11c1.1465-3.0838 1.2596-15.918 0.15588-17.692-1.633-2.6244-6.2725 9.6001-5.4749 14.426 1.0233 6.1916 3.6352 7.7954 5.319 3.2662zm22.38-6.9514c-2.3472-4.0724-9.7753-11.494-13.359-13.347-1.58-0.81706-3.5814-2.8559-4.4475-4.5308-1.946-3.7631-4.8239-3.5758-5.2761 0.34335-0.2226 1.9293 0.22396 2.9503 1.5 3.4295 2.5779 0.96812 4.1208 3.3406 3.562 5.4773-0.2645 1.0114 0.05096 1.829 0.70574 1.829 0.72894 0 0.94004 0.7687 0.54924 2-0.96098 3.0278 0.36452 6 2.6758 6 1.6454 0 1.9262-0.45741 1.4488-2.3596-1.8774-7.4802 4.9537-6.36 10.041 1.6465 2.8627 4.5055 5.2232 4.0623 2.6003-0.48829zm7.734-3.95c0-0.47-0.45-0.85-1-0.85s-1 0.675-1 1.5-0.45 1.5-1 1.5c-1.4444 0-1.1705-3.191 0.45836-5.3407 0.95-1.2537 2.1356-1.6553 3.7182-1.2592 1.2779 0.31981 1.7609 0.32312 1.0734 0.007-0.6875-0.31576-1.25-1.1795-1.25-1.9193 0-2.1248-3.0418-4.6096-4.9152-4.015-1.1237 0.35665-2.7937-0.68944-4.9016-3.0704-2.087-2.35-3.744-3.4-4.772-3-0.866 0.33-2.663 0.6-3.993 0.6-1.751 0-2.418 0.55-2.418 2 0 1.1644 0.66667 2 1.5956 2 0.8776 0 2.7901 0.84096 4.25 1.8688s3.6262 2.1703 4.8141 2.5387c3.0965 0.96052 4.9315 3.4013 3.5761 4.7567-1.1086 1.1086-0.68232 3.3588 1.0629 5.611 1.019 1.31 4.701-0.98 4.701-2.93zm-46.58-6.39c0.838-3.34-1.12-10.46-2.877-10.46-4.6296 0-5.5424 2.3693-3.1314 8.1279 2.3704 5.6618 4.9241 6.6541 6.0082 2.3346zm56.765-12.694c-3.2471-4.7195-5.4231-8.5088-9.6292-16.768-1.5404-3.025-3.6734-7.075-4.7399-9-2.9196-5.2699-6.3802-13.014-7.8205-17.5-0.70628-2.2-1.8634-5.35-2.5714-7-3.258-7.5926-7.4338-19.149-7.429-20.559 0.003-0.85738-0.65531-2.4324-1.4628-3.5-0.80751-1.0676-1.4825-3.3771-1.5-5.1321-0.018-1.76-0.482-3.47-1.032-3.81-0.55-0.33992-1-1.9415-1-3.559 0-3.5392-3.4605-4.216-4.5182-0.8837-0.35913 1.1315-1.7395 2.4704-3.0674 2.9752-1.328 0.51-2.414 1.34-2.414 1.85 0 0.50981-1.2436 1.3604-2.7635 1.8903-3.534 1.23-9.236 6.01-9.236 7.74 0 0.73023-1.1937 2.1973-2.6527 3.26l-2.6527 1.9324 3.1175 1.0868c2.965 1.0336 3.5298 2.0047 4.3989 7.5632 0.22451 1.4359 1.3597 1.9316 5.0913 2.2234 6.7641 0.52885 9.8267 4.3008 4.79 5.8994-2.631 0.83504-3.3414 3.2446-2.0819 7.061 0.8883 2.6916 0.73047 3.7931-0.95204 6.6448l-2.0169 3.4183 2.8046 3.4526c1.5425 1.899 3.094 4.2401 3.4478 5.2026 0.64974 1.7676 3.7455 2.3772 5.1154 1.0073 0.40849-0.40849 2.621-1.196 4.9167-1.75 6.5539-1.5816 7.6205-9.6957 2.311-17.58-2-2.97-3.637-6.35-3.637-7.52 0-5.9199-3.2485-10.356-4.5593-6.2256-0.67017 2.1115-0.74148 2.1222-2.0674 0.30887-1.8044-2.4676-1.7348-4.4389 0.23344-6.6137 1.7367-1.919 2.1565-8.2617 0.90228-13.632-0.67215-2.8781-0.51802-3.25 1.3469-3.25 1.4831 0 2.286 0.81329 2.7148 2.75 0.33488 1.5125 0.97815 4.1 1.4295 5.75s1.1027 4.9839 1.4474 7.4087c0.34471 2.4248 1.2389 5.5748 1.9871 7 0.74818 1.4252 1.9285 4.5038 2.6229 6.8413s1.5576 4.25 1.9183 4.25c1.591 0 5.024 8.1 5.024 11.85 0 4.0148 1.8647 9.2309 5.0577 14.148 0.89293 1.375 3.5327 6.1 5.8663 10.5 5.3207 10.032 15.39 20.774 15.89 16.951 0.18726-1.4328-0.87487-4.132-2.6295-6.6822zm-44.992-40.02c0.30225-4.1775 0.36604-4.2452 3.7393-3.9715 5.3692 0.43567 6.4483 1.8789 3.9881 5.334-3.5306 4.9583-8.1261 4.148-7.7274-1.3625zm-8.443-24.83c-2.2538-1.3172-2.2228-3.1856 0.08769-5.2765 1.7172-1.5541 1.9466-1.5427 3.5 0.17376 1.4803 1.6357 2.3315 5.1794 1.2441 5.1794-0.23002 0-1.0175 0.2129-1.75 0.4731-0.73248 0.26021-2.1193 0.0129-3.0818-0.54969zm457.36 58.635c-1.1063-2.2324-2.7063-6.4981-3.5556-9.4794-0.84933-2.9813-2.1507-6.3563-2.8919-7.5-0.74122-1.1437-2.823-4.7794-4.6262-8.0794s-4.2026-7.6813-5.332-9.7362c-1.7623-3.2065-1.8722-4.0749-0.77496-6.125 0.95604-1.7864 1.0005-2.9081 0.17637-4.4481-0.6-1.13-1.1-3.11-1.1-4.39 0-1.3109-1.8858-4.5158-4.3048-7.3158-2.3676-2.7406-5.8165-7.117-7.6642-9.7254-3.27-4.63-6.91-7.76-8.99-7.76-1.9448 0-1.0395 4.8923 1.3905 7.5143l2.4257 2.6173-2.5346 5.0463c-2.8559 5.686-2.2757 8.3085 2.5358 11.461 1.3869 0.90875 3.675 3.0386 5.0846 4.7331s4.3108 4.8914 6.4472 7.1043 4.5982 5.1485 5.4707 6.5235 2.8086 4.075 4.3024 6c4.3095 5.5533 9.8425 15.974 9.8425 18.537 0 1.2897 0.45 2.623 1 2.963 0.55 0.33992 1 2.022 1 3.738 0 2.759 1.0802 7.1874 2.869 11.762 0.3226 0.825 0.73555-0.94853 0.91768-3.9412 0.24066-3.9546-0.21841-6.5501-1.6803-9.5zm8.5701 1.0448c-0.54686-10.014-1.4287-15.127-6.0544-35.104-1.7703-7.6453-4.3658-14.1-9.898-24.614-2.4266-4.6121-5.465-10.973-6.7521-14.136-1.287-3.1625-2.6811-5.75-3.098-5.75-0.41691 0-4.5548-5.0625-9.1952-11.25s-9.6165-12.341-11.058-13.674l-2.62-2.419v7.6743c0 7.4696 1.7364 11.674 4.8211 11.674 2.5878 0 14.902 14.566 18.176 21.5 0.77911 1.65 1.9453 3.675 2.5916 4.5 2.0638 2.6346 9.4113 17.118 9.4113 18.551 0 0.75957 0.61726 2.8588 1.3717 4.665 5.8 13.89 10.63 35.24 10.63 47.02 0 2.6546 0.36106 3.6597 1.1414 3.1775 0.80492-0.49746 0.96264-3.9788 0.53504-11.809zm-393.44 7.1876c2.8958-1.7649 7.02-4.4649 9.1651-6 2.145-1.5351 4.4468-2.7912 5.1151-2.7912 0.66831 0 2.2883-0.83292 3.6-1.8509 4.6929-3.6422 22.692-4.4155 50.885-2.1862 37.356 2.9539 51.524 0.56338 67.461-11.383 3.2786-2.4575 7.1036-5.0534 8.5-5.7686 5.2754-2.7019 16.442-15.078 20.826-23.082 0.97289-1.7762 3.0462-5.1308 4.6074-7.4547 2.653-3.9491 2.9603-7.2748 0.67214-7.2748-0.54791 0-1.5277 1.0125-2.1774 2.25-0.64964 1.2375-1.7718 2.5994-2.4936 3.0264-0.72187 0.42704-1.0715 1.4044-0.77701 2.1719 0.70603 1.8399-1.3256 5.5517-3.0387 5.5517-0.7424 0-2.0869 1.125-2.9879 2.5-0.90094 1.375-2.5277 2.5-3.615 2.5s-1.977 0.64286-1.977 1.4286c0 4.2874-6.4205 5.9742-9.5552 2.5104-1.8025-1.9917-0.95708-3.8652 1.7704-3.9236 1.7926-0.0384 7.7848-6.4418 7.7848-8.3189 0-1.6305 0.26667-1.8297 1.2-0.89641 1.7883 1.7883 3.5846 1.4542 4.3-0.8 0.34913-1.1 1.3029-2 2.1194-2 0.81654 0 1.9586-1.3595 2.5378-3.0211 0.57924-1.6616 1.8888-3.4684 2.9102-4.015 1.4117-0.75551 1.6598-1.527 1.0348-3.2166-0.45223-1.2225-0.5062-2.9033-0.11993-3.735 3.7761-8.1311 5.6514-11.304 8.0976-13.703 3.7778-3.7045 3.6512-4.309-0.90174-4.309-8.983 0-19.875 7.2727-32.128 21.452-10.665 12.342-14.791 14.515-30.156 15.88-10.018 0.89036-12.65 0.79253-19.011-0.70666-4.0608-0.95705-9.2888-2.1494-11.618-2.6497-8.6941-1.8674-12.539-6.8391-5.5153-7.1322 12.734-0.5315 15.879-2.4343 13.646-8.2546-0.41112-1.0714-1.3437-1.3891-2.9178-0.994-1.6923 0.42474-2.6122 0.0228-3.4255-1.497-0.82421-1.54-1.5571-1.8517-2.8322-1.2044-5.0179 2.5471-7.2735 3.3445-9.8631 3.4866-1.5714 0.0862-3.3569 0.47377-3.9677 0.86118-0.61079 0.38742-1.3958 0.41917-1.7444 0.0706-1.46-1.46-14.676-1.6721-16.095-0.25829-0.5225 0.52058-2.5903 0.9465-4.595 0.9465-2.3693 0-4.2755 0.6967-5.4466 1.9907-1.6167 1.7864-1.9202 1.8285-2.9576 0.4097-1.0362-1.4171-1.2877-1.4223-2.4266-0.0501-0.69877 0.84197-1.9126 1.2845-2.6974 0.98331-0.94961-0.3644-1.4269 0.13749-1.4269 1.5004 0 2.5949-1.8199 3.7989-2.614 1.7294-0.8419-2.194-2.386-1.9496-2.386 0.3776 0 2.6314-1.6126 3.4548-2.5523 1.3033-0.61699-1.4126-0.8765-1.1738-1.3646 1.2557-0.34588 1.7216-1.2378 3-2.0929 3-0.8196 0-1.8247 0.81876-2.2336 1.8195-0.4984 1.2197-1.364 1.6225-2.626 1.222-1.3262-0.42094-2.0326-0.0236-2.3905 1.3447-0.56339 2.1544-8.3198 7.4916-9.6724 6.6556-0.47191-0.29166-1.116 0.14213-1.4314 0.96397-0.31537 0.82184-1.0525 1.4943-1.6381 1.4943-0.58559 0-2.6247 1.56-4.5314 3.4667l-3.45 3.46 0.11831 9.2833c0.10698 8.3939 1.2345 16.8 1.9157 14.283 0.56716-2.0957 0.73891-3.0547 0.85065-4.75 0.16-2.43 2.11-2.2 2.11 0.26 0 2.7402 1.7848 2.5355 2.1804-0.25 0.22093-1.5556 0.88989-2.1524 2.1675-1.9337 1.0164 0.17399 2.7264-0.47866 3.8001-1.4503 1.6409-1.485 2.435-1.5844 4.9806-0.62356 2.2332 0.84294 3.6687 0.85138 5.4667 0.0322 2.039-0.92905 2.6678-0.79708 3.84 0.80602 1.3411 1.8341 1.4315 1.7981 2.0916-0.83184 0.90484-3.6052 9.63-4.1927 11.461-0.77177 1.2699 2.3728-4.7979 5.5384-8.7261 4.5525-1.62-0.41-2.26-0.13-2.26 0.98 0 0.91777-1.2245 1.789-3.019 2.1478-1.6604 0.33209-3.9995 1.6225-5.1979 2.8677-1.1984 1.2451-2.7768 2.0344-3.5077 1.754-1.5174-0.58228-5.8016 3.6562-6.7655 6.6934-0.35494 1.1183-1.6274 2.539-2.8276 3.1572-3.243 1.6702-6.6823 5.0405-6.6823 6.5483 0 2.0117 1.4737 1.6282 7.235-1.8832zm90.404-21.485c-1.29-1.28-0.64-5.3 0.86-5.3 0.92366 0 1.5 0.93789 1.5 2.441 0 2.5092-1.2271 3.9986-2.3605 2.8652zm-17.14-1.25c-1.1-0.44252-2.3572-0.59716-2.7938-0.34363-1.3744 0.79811-3.7062-1.8593-3.7062-4.2238 0-2.3683 13.051-3.8321 14.42-1.6174 0.29292 0.47395 1.6285 0.65223 2.9679 0.39617 1.731-0.3309 2.7491 0.12077 3.5203 1.5617 1.9919 3.7219-0.85977 6.8202-3.6808 3.9992-0.89717-0.89717-1.778-0.89717-3.7471 0-2.9208 1.3308-4.1393 1.3705-6.9801 0.22772zm20.846-2.0757c-0.33229-1.6614-0.97639-3.2509-1.4313-3.532-1.5432-0.95375 0.26938-3.5236 2.08-2.9489 1.2301 0.39041 1.9297-0.10021 2.331-1.6346 0.66373-2.5381 3.1924-1.1488 4.7354 2.6017 0.81632 1.9843 0.8539 1.9779 1.5155-0.25617 0.7-2.37 2.92-2.53 2.92-0.2 0 0.73333 0.60997 1.5367 1.3555 1.7852 1.0316 0.34386 1.1964-0.27268 0.68956-2.5801-0.55949-2.5473-0.31636-3.1429 1.5212-3.7261 2.5502-0.80941 6.7236 3.486 7.0645 7.271 0.46552 5.1691 0.34451 5.7437-1.1307 5.369-0.825-0.20952-3.3554-0.30425-5.623-0.2105-3.4841 0.14404-4.2421-0.18436-4.8911-2.119-0.74965-2.2346-0.77824-2.2236-1.1934 0.4605-0.71 4.62-5.29 2.3-5.29-2.68 0-1.41-0.5-2.57-1.12-2.57-1.1114 0-0.84183 2.8318 0.59497 6.25 0.56723 1.3495 0.24762 1.75-1.3964 1.75-1.5721 0-2.2906-0.79325-2.7362-3.0208zm-53.35-0.02c0-0.6571-1.3269-0.7964-3.5727-0.37508-3.5658 0.66895-3.572 0.66377-3.25-2.7047 0.34008-3.5569 1.5895-3.8978 8.5727-2.339 3.0891 0.68954 3.3124 6.4641 0.25 6.4641-1.1 0-2-0.47039-2-1.0453zm7.5161-0.20469c-1.9674-5.84-1.0767-6.7185 6.2339-6.1484 10.815 0.84327 11.422 1.0727 11.063 4.1833-0.24356 2.1123-0.75708 2.6262-2.3131 2.3148-1.1-0.22018-2.9-0.44518-4-0.5-1.1-0.0548-2.5033-0.74329-3.1184-1.5299-0.94017-1.2023-1.3043-1.0828-2.2852 0.75-1.2614 2.357-4.8956 2.9628-5.5803 0.93022zm72.68 0.05c-0.66-0.66-1.2-1.9876-1.2-2.9503 0-0.96267-0.61158-2.1102-1.3591-2.55-0.74748-0.43983-1.6762-2.5315-2.0638-4.6481-0.48362-2.6411-0.36816-3.6404 0.36802-3.1855 1.6879 1.0432 4.8926-0.37962 5.5549-2.4662 0.36139-1.1386 1.1819-1.6754 2.0512-1.3419 0.89468 0.34332 1.4488-0.0587 1.4488-1.051 0-2.4661 2.5011-1.9077 4 0.89301 1.4926 2.789 3 3.2915 3 1 0-0.825-0.45-1.5-1-1.5s-1-0.675-1-1.5c0-2.7541 3.1521-1.3195 4.3944 2 0.65784 1.7578 0.89121 1.8139 1.9271 0.4636 1.7488-2.2797 4.6786-1.2716 4.6786 1.6097 0 2.692-0.9216 3.0614-2.936 1.1767-1.0976-1.027-1.2309-0.81662-0.74687 1.1788 0.71571 2.9504-3.4383 7.55-5.2144 5.7739-0.74052-0.74052-1.5846-0.59054-2.829 0.5027-0.9755 0.85695-2.7861 1.8666-4.0236 2.2438-1.5288 0.46589-2.25 1.4654-2.25 3.1183 0 2.667-0.94819 3.0844-2.8 1.2326zm-203.65 18.96c1.4979-1.7801 3.129-4.3676 3.6248-5.75s3.1353-4.0318 5.8655-5.8876c6.04-4.1 6.165-5.61 0.964-11.62-4.0716-4.7044-4.7609-7.3686-3.0623-11.836 0.74231-1.9524 0.5339-2.8319-1-4.2201-1.849-1.67-1.938-1.67-1.938 0.05 0 0.9911-1.575 3.7241-3.5 6.0733s-3.5 4.7581-3.5 5.353c0 1.6383-1.7045 1.2942-2.3859-0.48168-0.829-2.15-2.614-0.81-2.614 1.97 0 1.2573-0.9 3.1005-2 4.096-2.6768 2.4225-2.5765 8.174 0.28766 16.5 3.5896 10.435 4.7299 11.145 9.2579 5.7634zm-4.546-16.06c0-3.774 2.529-6.5397 6.3097-6.9003 5.1562-0.49172 5.5592 0.70923 1.6066 4.7873-3.299 3.4-7.916 4.63-7.916 2.11zm71.594 9.1179c-2.7664-5.4225-3.4941-6.2399-4.115-4.6219-0.8765 2.2841 2.3721 8.354 3.7393 6.9868 0.57623-0.57623 0.74528-1.6404 0.37568-2.3649zm5.4483 1.1046c0.6117-1.143 0.8106-2.8305 0.442-3.75-1.37-3.41-3.48-12.35-3.48-14.72 0-1.35-0.52-2.45-1.145-2.45-0.82036 0-0.98717 2.7669-0.58782 9.75 0.73976 12.935 2.1125 16.147 4.775 11.172zm-28.04-1.94c0-1.9785-5.2254-10.981-6.3548-10.948-0.62986 0.0183-2.2634 0.96354-3.6301 2.1005l-2.4849 2.0673 2.3457 1.8995c1.2902 1.0447 2.9406 1.8995 3.6676 1.8995 0.72701 0 1.6075 0.9 1.9566 2 0.64176 2.022 4.5 2.8636 4.5 0.98159zm193.89-12.48c4.0143-2.475 7.883-4.5 8.597-4.5 0.71403 0 1.5495-0.65467 1.8565-1.4548 0.30705-0.80015 2.4857-2.4381 4.8414-3.6399 3.8832-1.981 11.47-6.8438 22.314-14.302 2.2-1.5131 4.3599-3.3928 4.7997-4.1771 0.43983-0.78433 1.2974-1.4261 1.9056-1.4261 0.60825 0 2.4984-1.0462 4.2003-2.3249 6.2412-4.6891 22.248-12.202 28.094-13.186 2.2-0.37023 9.4439-1.9818 16.098-3.5812 6.6536-1.5995 13.077-2.9081 14.275-2.9081 2.4495 0 4.548-4.1004 3.6104-7.0546-0.71568-2.2549-15.126-3.3354-15.943-1.1954-0.72719 1.9057-2.5398 1.4894-2.5398-0.58333 0-3.3213-1.3864-3.3008-2.9616 0.0438-0.9207 1.9549-2.4185 3.4137-3.6919 3.5957-1.191 0.17021-2.4173 1.2805-2.761 2.5-0.57839 2.052-0.70526 2.0807-1.9622 0.44381-1.6119-2.0991-3.2346-2.2438-4.3236-0.38548-1.2055 2.057-7.1684 4.8113-9.0997 4.2032-1.1576-0.3645-2.2415 0.41319-3.3971 2.4374-1.1416 1.9997-2.2109 2.7755-3.2668 2.3703-0.99281-0.38098-2.3428 0.38048-3.6733 2.0719-1.157 1.4708-2.7013 2.4448-3.432 2.1645-0.73869-0.28346-1.603 0.35545-1.947 1.4392-0.34021 1.0719-1.4628 1.949-2.4946 1.949s-2.6735 1.35-3.6482 3c-1.2671 2.1451-2.5351 3-4.4496 3-1.4726 0-2.9364 0.675-3.253 1.5-0.31658 0.825-1.2544 1.5-2.0839 1.5-0.82958 0-2.2254 1.0944-3.1019 2.432-0.87645 1.3376-3.8653 3.6199-6.6419 5.0718-2.7766 1.4518-5.9797 3.5074-7.1181 4.568-1.1383 1.0605-2.4531 1.9282-2.9216 1.9282-0.46857 0-2.1409 0.953-3.7164 2.1178-1.5754 1.1648-3.2697 1.8673-3.765 1.5612-0.49533-0.30613-1.734 0.99087-2.7525 2.8822-1.0186 1.8914-2.4719 3.4388-3.2296 3.4388-1.7008 0-5.9461 2.7297-9.0091 5.7926-4.7574 4.7574-2.5036 4.3155 6.5925-1.2926zm-253.08-13.26c0.231-3.18-0.055-4.24-1.143-4.24-1.747 0-2.664 2.12-2.664 6.16 0 5.08 3.4253 3.3583 3.8075-1.9137zm6.9898-5.3707c0.182-1.515-0.49679-3.1937-1.75-4.3279-2.6779-2.4235-2.6958-7.1254-0.0325-8.5508 1.5855-0.84851 2.141-0.74946 2.607 0.46482 0.32568 0.84871 1.4861 1.5431 2.5788 1.5431 1.1456 0 2.208 0.84666 2.5096 2 0.28766 1.1 1.0761 2 1.7521 2 1.1276 0-0.24567-11.155-1.939-15.75-1.777-4.82-14.523 6.34-14.523 12.72 0 8.2408 7.9252 17.156 8.7973 9.8964zm418.36-3.69c0.91162-1.8255 2.3741-4.1109 3.25-5.0787 1.4657-1.6196 2.2855-7.1022 1.062-7.1022-0.2918 0-1.9528 1.6198-3.6911 3.5996-2.9994 3.4161-3.2001 3.4926-3.9372 1.5-1.06-2.87-2.84-2.65-2.84 0.35 0 5.515-9.0471 3.7962-11.543-2.1929l-1.149-2.7574-0.73544 3.2587c-0.78307 3.4698-2.5727 3.5114-2.5727 0.0598 0-1.7825-0.21896-1.8817-1.6082-0.72873-1.3591 1.128-1.8004 1.0719-2.8489-0.36201-0.68236-0.93319-1.5705-1.3669-1.9736-0.96383-0.40308 0.40309-1.3889-0.16421-2.1906-1.2607-1.2102-1.655-1.6079-1.7506-2.342-0.56273-0.70074 1.1338-1.1872 1.1794-2.3437 0.2196-1.1755-0.97556-1.5933-0.86576-2.1476 0.56431-0.64813 1.6721-0.77078 1.6633-2.1064-0.15148-1.5818-2.1492-1.5689-2.1559-3.215 1.677-1.4739 3.4319-3.2239 3.5676-3.2239 0.25 0-1.375 0.39309-2.5 0.87353-2.5 1.8851 0-2.4806-6.8839-4.7415-7.4766-1.3024-0.34141-2.4475-0.48636-2.5447-0.32209s-1.0939 3.2237-2.2149 6.7987c-1.8872 6.0184-2.24 6.4855-4.7624 6.3039-2.5586-0.18417-2.7056 0.0286-2.4171 3.5 0.28869 3.474 0.5175 3.7028 3.8072 3.8071 7.6831 0.2437 32.392 2.4473 32.876 2.9321 0.28433 0.28433 5.716 0.39094 12.07 0.23692l11.55-0.28zm-356.19-5.72c-0.65695-0.79158-0.88884-2.2325-0.51533-3.202 0.64787-1.6816 0.72488-1.6812 1.6733 0.008 1.3981 2.4905 2.8625 1.1963 2.9193-2.58l0.04803-3.191 1.7052 3.4869c1.6883 3.4525 6.1314 5.8859 4.9033 2.6855-0.323-0.84173-0.7758-3.0249-1.0062-4.8514-0.23042-1.8266-0.22829-2.5548 0.0047-1.6183 0.39154 1.5736 3.9478 3.4798 4.8356 2.5919 0.21338-0.21338-0.23664-2.4634-1-5-0.7634-2.5366-1.1219-4.8781-0.79666-5.2033 1.198-1.2 2.258-0.54 2.258 1.41 0 1.1 0.4822 2 1.0716 2 0.58936 0 0.98955-1.0125 0.8893-2.25-0.51459-6.3528 1.3656-8.1536 2.4543-2.3505 0.64961 3.4627 3.0923 6.4263 4.3008 5.2178 0.36719-0.3672 0.13132-2.1508-0.52417-3.9635-1.45-4.01-1.56-7.99-0.19-7.15 0.55 0.33992 1 1.5103 1 2.6008 0 2.8178 3.6978 6.6013 5.0906 5.2086 0.77277-0.77277 0.62911-1.9507-0.50552-4.1448-2.6856-5.1934-2.1387-7.1518 1.383-4.9524 1.0675 0.66667 2.2989 0.83007 2.7364 0.36309 0.43751-0.46698 0.23298-1.0499-0.45452-1.2955-1.48-0.53-1.69-3.28-0.25-3.28 0.55 0 1 0.45634 1 1.0141 0 3.3606 8.3457 8.1334 9.4032 5.3776 0.56708-1.4778 0.81643-1.4778 3.0718 0 3.3058 2.166 3.525 2.078 3.525-1.4164 0-3.4309 2.9625-5.2862 9.2978-5.8229 0.98876-0.0838 2.9324-1.3767 4.3193-2.8731 1.8361-1.9812 3.658-2.7954 6.7022-2.9952 2.2994-0.15095 4.8557-0.57075 5.6807-0.9329s2.2476-0.56776 3.1614-0.45692c0.91378 0.11085 1.968-0.29444 2.3426-0.90065 0.47668-0.77128 1.3695-0.65116 2.974 0.40011 2.5292 1.6572 3.522 1.2174 3.522-1.5603 0-2.118 0.32447-2.1742 4.9288-0.85376 2.3658 0.67851 3.8234 0.64107 4.7426-0.12183 0.95788-0.79497 2.5059-0.80218 5.564-0.0259 3.4692 0.88058 4.3843 0.81206 5.0504-0.37818 1.0782-1.9266 2.7119-1.8389 4.2222 0.2266 1.1269 1.5412 1.3252 1.4998 2.3954-0.5 1.6959-3.1688 11.835-1.8397 14.115 1.8503 0.55921 0.90482 0.91916 0.42535 1.1479-1.5291 0.45942-3.9252 2.307-4.1862 3.8176-0.53913 1.4613 3.5278 1.8009 3.6455 3.7182 1.2877 1.0711-1.3171 1.5552-1.4305 1.9575-0.45826 0.42201 1.02 0.84294 1.0357 2.0011 0.0745 2.728-2.2641 8.115-2.153 9.3706 0.19322 1.077 2.0124 1.1858 2.0252 2.4554 0.28893 1.1699-1.5999 1.7359-1.6695 4.7416-0.58257 1.8772 0.67881 4.3616 1.2342 5.5207 1.2342 1.1592 0 2.8263 0.71871 3.7047 1.5971 1.9618 1.9618 4.5457 1.1414 4.5457-1.4433 0-4.5635 3.924-4.7905 4.0997-0.23716l0.0997 2.5833 0.68987-2.5c0.7666-2.7781 5.2207-3.9836 7.5564-2.0451 0.97259 0.80718 2.4848 0.71195 5.6895-0.35829 15.749-5.2596 23.53-5.2618 30.412-0.009 2.4585 1.8766 4.9391 3.4121 5.5124 3.4121 1.56 0 3.9361 6.4138 3.9707 10.718 0.0252 3.141 0.20935 3.4745 1.0861 1.9671 0.58062-0.99827 0.90444-3.9233 0.71959-6.5-0.34376-4.7919 1.4372-7.7098 1.9439-3.185 0.79296 7.0811 3.22 10.096 3.22 4 0-2 0.5-3 1.5-3 0.825 0 1.5 0.58899 1.5 1.3089 0 4.3346 2.8861 5.1126 3.5614 0.96001 0.96531-5.9355 3.0051-7.3929 3.8729-2.7671 0.81915 4.3668 2.5656 3.6447 2.5656-1.0605 0-1.8925 0.45-3.441 1-3.441s1 0.8632 1 1.9182 0.27314 2.63 0.60699 3.5c1.1207 2.9204 2.393 1.618 2.393-2.4496 0-3.9437 2.8114-7.0346 3.7734-4.1485 0.76515 2.2954 2.2266 1.1395 2.2266-1.7611 0-1.6175 0.45-3.2191 1-3.559 0.55-0.33992 1-0.19396 1 0.32435 0 1.6313 3.8303 2.0602 4.4305 0.49619 0.37197-0.96933 1.2658-1.2343 2.6653-0.79015 1.9883 0.63107 2.0861 0.37037 1.7549-4.681l-0.35-5.35 3.8158-0.2111c3.1226-0.17275 3.756 0.09942 3.4866 1.4982-0.18105 0.94012-0.99817 1.7101-1.8158 1.7111-1.7178 0.002-1.9866 0.55172-1.9866 4.0608 0 1.4514 0.43284 2.2915 1 1.941 0.55-0.33992 1-1.4915 1-2.559 0-1.9911 1.4561-2.6301 2.4241-1.0638 1.9348 3.1306 7.071-0.59079 6.8202-4.9416l-0.26-4.436 1.9437 2.4935c1.8607 2.387 1.9708 2.4083 2.5787 0.5 0.34928-1.0964 1.0522-2.7749 1.562-3.7299 1.74-3.261 1.14-7.764-1.03-7.764-1.0806 0-2.4147-0.84064-2.9646-1.8681-1.058-1.977-5.2676-1.895-7.8547 0.15303-0.87507 0.69274-1.9899 0.66642-3.5-0.08265-1.22-0.604-3.12-1.238-4.22-1.409-1.34-0.207-2.1-1.218-2.32-3.052-0.17-1.507-0.73-2.741-1.25-2.741-0.51 0-0.93-0.873-0.93-1.941 0-1.0675-0.48582-2.2412-1.0796-2.6082-0.72567-0.44849-0.97154 0.72829-0.75 3.5896 0.20025 2.5863-0.12231 4.4145-0.82197 4.6587-1.29 0.45-4.35-5.033-4.35-7.794 0-0.98304-0.52103-2.1094-1.1578-2.5029-0.84553-0.52257-0.99935 0.62261-0.57025 4.2456 0.82044 6.9274-0.57804 8.7542-3.7477 4.8955-2.6032-3.169-2.4266-3.2681-4.132 2.3191-0.57289 1.877-2.9931-0.17897-3.7001-3.1432-2.2569-9.4632-5.9526-12.252-4.2567-3.2119 0.4933 2.6295 0.31164 3.4925-0.73513 3.4925-1.932 0-4.4293-3.013-4.9729-6-0.26566-1.4597-0.51166-0.54797-0.59118 2.191-0.20098 6.9232-5.0057 6.9985-5.1044 0.08007-0.074-5.1845-5.2316-17.447-10.049-23.891-4.52-6.057-5.78-8.38-4.53-8.38 0.24839 0 3.875 3.4234 8.0591 7.6075 9.7316 9.7316 10.923 8.8888 1.6713-1.1818-1.0481-1.1409-2.726-3.3909-3.7285-5s-2.619-3.8327-3.5922-4.9412c-0.97315-1.1085-1.4497-2.5326-1.059-3.1648 1.0068-1.629 2.96 0.02817 7.8738 6.6802 2.2346 3.025 5.7442 7.0168 7.7993 8.8707l3.7365 3.3707-0.70476-3.2087c-0.95296-4.3388 2.3414-2.7296 6.129 2.9937 1.4344 2.1675 3.0048 3.6956 3.4899 3.3958 0.72755-0.44965-3.1035-6.6464-5.2069-8.4221-0.32574-0.275-1.8455-2.6578-3.3772-5.2952-2.8701-4.9418-2.6252-8.0154 0.30939-3.8835 0.90677 1.2767 3.4487 4.4751 5.6487 7.1075 4.135 4.9478 5.4851 6.619 9.173 11.355 1.4253 1.8303 2.41 2.3913 2.8754 1.6382 0.38931-0.62992 0.28893-1.4325-0.22306-1.7835-0.512-0.35101-1.9637-2.3376-3.2261-4.4147-1.2623-2.0771-2.835-4.3271-3.4948-5-2.4-2.457-7.67-10.724-6.83-10.724 1.37 0 7.23 5.548 7.23 6.839 0 0.639 0.45 1.161 1 1.161s1-0.9 1-2c0-2.1357 1.459-2.6843 2.53-0.95144 0.44661 0.72263 1.0671 0.70076 1.9963-0.07036 1.43-1.188 13.47 9.882 13.47 12.387 0 0.65478 0.96073 2.0131 2.135 3.0185 2.9142 2.4952 1.7514-2.9059-1.2224-5.6784-2.8323-2.6405-5.2816-6.6694-4.5185-7.4325 0.3657-0.3657 2.7116 1.5608 5.2131 4.2812 5.0044 5.4422 5.8869 2.0628 0.92808-3.5539-2.2121-2.5055-2.971-3.4473-6.3554-7.8867-1.479-1.94-2.9295-2.4574-7.7496-2.7642-3.26-0.209-8.85-1.062-12.43-1.898-3.575-0.83553-8.75-1.9273-11.5-2.4261s-7.925-1.6324-11.5-2.5191c-3.575-0.88673-8.3-2.0054-10.5-2.4859-2.2-0.48054-5.35-1.41-7-2.0655-1.65-0.65548-4.35-1.3574-6-1.5599-1.65-0.20246-4.8-0.99577-7-1.7629-26.49-9.237-39.68-11.768-61.12-11.733-23.62 0.0396-25.39 0.3577-47.88 8.605-5.5 2.0168-11.125 3.9259-12.5 4.2424-1.375 0.31656-3.9487 1.3875-5.7194 2.3799-1.7707 0.99241-6.268 3.4796-9.9942 5.5272-3.7261 2.0475-7.5725 4.466-8.5475 5.3743-0.97499 0.90834-2.9983 2.286-4.4963 3.0615-3.8256 1.9804-18.095 13.453-20.439 16.432-3.8318 4.8713 3.7038 1.8514 13.603-5.4514 4.759-3.5109 23.477-13.137 28.211-14.508 1.165-0.33742 2.878-1.4532 3.8068-2.4795 0.96929-1.0711 2.49-1.6565 3.5696-1.3741 1.0345 0.27052 2.909-0.22829 4.1657-1.1085 3.0931-2.1665 6.547-2.0159 7.8081 0.34049 1.15 2.148-1.8 5.057-5.14 5.057-0.94644 0-2.3088 0.82346-3.0275 1.8299-2.0236 2.8338-5.4971 4.7035-15.974 8.5982-5.3172 1.9766-12.517 5.3821-16 7.5678-3.4828 2.1857-7.7257 4.6039-9.4287 5.3738-6.28 2.84-19.4 12.855-19.4 14.811 0 0.444-4.725 5.375-10.5 10.959-11.412 11.035-11.255 10.778-8.846 14.455 1.833 2.795 3.303 1.765 3.331-2.345 0.008-1.238 0.465-2.25 1.015-2.25s1 0.9 1 2 0.45 2 1 2 1-2.025 1-4.5c0-4.3685 1.4713-6.0414 2.6384-3 0.954 2.485 2.362 1.69 2.362-1.333 0-3.6785 0.97244-4.5699 2.6193-2.4011 1.1646 1.5336 1.3208 1.3003 1.3489-2.0155 0.03644-4.297 1.6773-5.0106 2.6461-1.1508l0.65236 2.5992 2.1167-2.4707c2.7125-3.1662 7.5718-6.6292 15.108-10.767 3.2952-1.8092 7.2673-4.5655 8.8269-6.1252 1.56-1.56 3.64-2.836 4.63-2.836 2.8072 0 8.7423-2.7683 9.3543-4.3631 0.30341-0.79068 2.3806-1.7466 4.616-2.1243 2.2354-0.37767 4.3062-1.0779 4.6016-1.556 0.2955-0.47812 1.1916-0.61822 1.9914-0.31133 0.92398 0.35456 1.7952-0.33933 2.3899-1.9034 0.71174-1.872 1.9203-2.6188 5.0475-3.1188 11.646-1.8623 10.2 6.9927-2.0722 12.692-9.3185 4.3277-20.324 9.6448-21.883 10.572-0.825 0.49083-3.975 2.0856-7 3.5438-8.7413 4.2139-16.37 9.3363-17.185 11.539-0.41 1.117-1.39 2.03-2.17 2.03-0.78388 0-1.6842 0.675-2.0008 1.5-0.31658 0.825-1.3772 1.5046-2.357 1.5102-1.8749 0.01073-21.34 18.35-24.933 23.49-3.8494 5.5076-2.7338 17.5 1.6279 17.5 2.9018 0 3.3532-1.7301 1.0863-4.1633-2.3355-2.5068-3.5585-5.674-2.572-6.6604 0.37019-0.37019 1.2989 0.1828 2.0638 1.2289 1.2531 1.7137 1.4535 1.7383 2.0252 0.24843 0.771-2.01 2.42-2.18 2.42-0.26 0 1.17 1.985 2.61 3.582 2.61 1.0339 0 0.24209-2.4386-1.6586-5.1078-1.5781-2.2163-1.9076-3.6866-1.3724-6.1235l0.70436-3.2069 1.6224 4.3865c0.89233 2.4126 2.1849 4.5737 2.8724 4.8025 1.7908 0.59589 1.5508-1.6981-0.25-2.3891-1.7176-0.65911-2.1654-9.8323-0.52937-10.843 1.1647-0.71981 6.1595 1.7288 7.9655 3.9049 1.9686 2.372 3.1042 0.88339 1.5749-2.0644-1.3889-2.6771-1.0044-5.7816 0.59374-4.7939 0.49237 0.3043 0.89522 1.4408 0.89522 2.5256s0.69441 2.2388 1.5431 2.5645c2.0737 0.79577 3.0014-0.29394 1.6432-1.9304-2.06-2.49-2.67-9.73-0.82-9.73 1.0975 0 1.6278 0.87026 1.6278 2.6713 0 2.5969 2.4501 6.3287 4.155 6.3287 1.1857 0 1.0531-3.7426-0.21664-6.1152-0.58391-1.091-0.91373-3.199-0.73293-4.6843 0.31728-2.6066 0.4071-2.5527 2.582 1.5495 2.8449 5.366 2.4224 5.4302 13.446-2.0435 8.9-6.031 17.34-10.706 19.35-10.706 0.51905 0 1.5058-0.9 2.1928-2 0.69293-1.1096 2.332-2 3.6815-2 1.3379 0 2.7106-0.45 3.0505-1 0.33992-0.55 1.3032-1 2.1407-1 0.83748 0 3.4448-1.575 5.794-3.5 4.5394-3.7197 11.296-4.7851 15.631-2.4648 3.3739 1.8057 2.6148 7.5746-1.3157 9.9983-4.25 2.614-27.51 13.967-28.62 13.967-0.89157 0-9.5575 4.0406-19.16 8.9336-3.0376 1.5478-6.1302 3.5459-6.8724 4.4403-0.74225 0.89436-1.859 1.6261-2.4818 1.6261-0.62271 0-2.7051 2.0105-4.6276 4.4678-1.9224 2.4573-4.2829 4.7376-5.2454 5.0674-0.9625 0.32975-1.75 1.0136-1.75 1.5196 0 0.50604-1.7215 2.0068-3.8255 3.335-4.281 2.7-25.18 22.98-25.18 24.44 0 0.51108 0.675 1.4894 1.5 2.1741 1.2685 1.0528 1.5 0.84012 1.5-1.3776 0-3.6591 1.4082-3.2703 4.0843 1.1276 1.784 2.932 2.369 3.3578 2.6814 1.952 0.21975-0.98892-0.13796-2.4457-0.79491-3.2373zm156.9-65.96c-1.44-2.432-2.79-3.5-4.43-3.5-2.53 0-4.44-2.55-4.44-5.934 0-1.17-0.65-2.066-1.5-2.066-0.96199 0-1.5114 0.98636-1.5318 2.75-0.0291 2.5133-0.14724 2.5979-1.373 0.98263-0.73763-0.97205-2.0153-1.5087-2.8393-1.1925-0.82396 0.31618-2.199-0.126-3.0556-0.98263-0.86-0.857-2.23-1.558-3.06-1.558-1.981 0-5.642-4.74-6.3342-8.201-0.30295-1.5148-1.1716-3.2693-1.9303-3.899-0.76-0.63-1.38-1.935-1.38-2.9 0-0.96531-0.72188-2.3542-1.6042-3.0865-0.88229-0.73224-2.0064-2.3894-2.4981-3.6826-1.01-2.658-2.9-2.118-2.9 0.828 0 1.068-0.43 1.941-0.95 1.941-1.15 0-10.05-12.291-10.05-13.877 0-2.2068 3.9861-1.0728 5.719 1.627 2.585 4.0275 5.281 6.8039 5.281 5.4386 0-1.9713 2.8189-1.3345 3.4929 0.78913 0.3808 1.1998 2.0871 2.3707 4.3381 2.9768 3.518 0.9473 4.8574 2.3609 8.9043 9.3976 1.1149 1.9386 1.2367 1.9649 1.25 0.26961 0.0155-1.978-5.4403-12.167-7.0466-13.16-1.4244-0.88035-1.1221-5.8307 0.48988-8.021 1.3314-1.809 1.4748-1.822 2.107-0.19113 0.84414 2.1775 2.4644 2.2937 2.4644 0.17668 0-2.3175 3.315-1.3355 4.4871 1.3292 0.54 1.233 1.33 2.243 1.75 2.243s0.76 0.482 0.76 1.071c0 0.58928 0.5625 1.6822 1.25 2.4286 0.6875 0.74644 3.05 3.9141 5.25 7.0393 2.6602 3.7789 4.1093 5.1373 4.3264 4.0555 0.30445-1.5174-8.2566-14.692-10.025-15.428-0.44061-0.18333-0.8011-0.97083-0.8011-1.75 0-1.8213 3.6512-1.8479 4.7003-0.0343 1.11 1.924 10.04 11.618 10.7 11.618 1.1689 0-0.92281-3.7283-4.5662-8.1388-2.11-2.551-3.83-5.069-3.83-5.595 0-0.52593-0.91063-1.7803-2.0236-2.7876-1.3435-1.2159-1.6889-2.1661-1.0277-2.8273 0.66121-0.66121 2.4335 0.65575 5.2736 3.9187 5.028 5.7766 15.908 17.711 16.802 18.43 0.34184 0.275 0.93679 1.3519 1.3221 2.3931 0.38533 1.0412 0.99068 1.603 1.3452 1.2485 0.90327-0.90327-5.1182-11.827-7.5075-13.62-2.0403-1.5308-6.062-7.9793-5.2784-8.4636 1.1135-0.68815 4.0942 0.35562 4.0942 1.4337 0 0.42786 2.4617 3.4172 5.4704 6.643s5.4811 5.1901 5.4941 4.3651c0.0131-0.825-2.8986-4.6408-6.4704-8.4796-6.67-7.175-7.48-8.52-5.13-8.52 1.509 0 7.6303 5.6718 14.958 13.859 2.6379 2.9476 5.0313 5.1241 5.3186 4.8368 0.68797-0.68797-2.2328-5.2702-6.3416-9.9489-4.0862-4.6529-4.2408-6.4184-0.36133-4.1268 2.4747 1.4618 3.1871 1.5237 4.5474 0.3948 1.8032-1.4966 6.6 2.5569 13.518 11.423 1.925 2.4671 3.8375 4.5027 4.25 4.5235 1.9806 0.09997 0.37048-4.2221-2.8417-7.6281-4.2159-4.4701-5.6072-6.8018-4.6374-7.7716 0.38528-0.38528 2.381 1.243 4.435 3.6185 3.2142 3.7173 3.7386 4.0138 3.7643 2.128 0.02-1.205-0.42-2.469-0.97-2.809-1.3228-0.81757-1.2872-3.5 0.0465-3.5 0.57558 0 1.8131 1.3472 2.75 2.9937 0.93692 1.6465 2.2519 2.9965 2.9221 3 1.5632 0.0081 0.58888-2.8195-1.9428-5.6382-1.4673-1.6336-1.627-2.3294-0.6703-2.9207 0.79605-0.49198 1.8268 0.11015 2.8151 1.6445 0.85755 1.3314 2.6975 3.5891 4.0888 5.0171s3.0737 3.7905 3.7387 5.25c0.66498 1.4595 1.6687 2.6536 2.2305 2.6536 1.8071 0 1.0575-2.433-1.4958-4.855-1.36-1.295-2.48-2.903-2.48-3.572 0-0.6693-1.3375-2.9846-2.9722-5.145-3.35-4.428-3.65-5.428-1.61-5.428 1.52 0 7.58 7.087 7.58 8.877 0 0.59885 1.0974 2.3341 2.4387 3.8561 11.038 12.525 13.579 17.264 14.052 26.209 0.54392 10.271-6.7394 17.046-7.6698 7.1349-0.51-5.462-2.82-5.116-2.82 0.423 0 6.4215-1.7817 5.8682-4.8303-1.5-0.98256-2.3748-1.0378-2.3151-1.102 1.191-0.11605 6.3289-3.3129 6.0302-4.7198-0.44098-0.94-4.318-2.35-3.218-2.35 1.833 0 3.216-0.37291 4.4625-1.25 4.1784-1.2-0.388-2.03-2.593-4.88-13.011-0.72-2.612-1.66-4.75-2.09-4.75-1.1701 0-0.94239 5.4393 0.27881 6.6605 1.31 1.311 0.82 10.84-0.56 10.84-0.55 0-1.7868-1.575-2.7484-3.5-1.6032-3.2092-1.7497-3.2923-1.7636-1-0.0356 5.8489-3.7571 9.9021-5.2796 5.75-0.36666-1-0.72333-1-1.7833 0-3.3602 3.1701-6.0364 1.1309-6.8899-5.25-0.71-5.294-2.54-4.213-2.54 1.5 0 5.4835-2.4798 6.2669-3.9568 1.25-0.52-1.788-1.31-3.25-1.75-3.25-0.43 0-0.79-1.098-0.79-2.441 0-1.3425-0.41157-2.6953-0.91459-3.0062-1.6204-1.0014-1.8646 1.8511-0.45551 5.3193 2.4563 6.0455 0.91249 12.7-1.6399 7.0684-0.35909-0.79226-1.4037-2.9394-2.3214-4.7715-0.92-1.832-1.67-3.97-1.67-4.75s-0.45-1.419-1-1.419c-1.2544 0-1.3057 2.2845-0.0796 3.55 0.80381 0.82968 1.4611 6.5284 1.1765 10.2-0.17986 2.3203-2.1518 1.2713-4.2294-2.25zm-8.5028-21.426c-0.35702-1.7851-1.2601-3.4801-2.0069-3.7667-0.75-0.287-1.36-1.294-1.36-2.24 0-0.945-1.12-2.775-2.5-4.067s-2.5-2.945-2.5-3.674-0.4-1.326-0.88-1.326-1.44-1.35-2.12-3c-1.2102-2.9218-3-4.0751-3-1.9333 0 1.1631 5.0362 8.2271 6.25 8.7666 0.4125 0.18333 0.75 0.78736 0.75 1.3423 0 0.55492 0.9 2.1531 2 3.5515s2 3.396 2 4.4391 0.675 2.1555 1.5 2.4721c0.825 0.31658 1.5 1.2775 1.5 2.1353 0 0.85782 0.22812 1.3316 0.50694 1.0527 0.27882-0.27882 0.21484-1.9675-0.14219-3.7526zm-27.441 13.779c-0.78322-0.74393-3.4471-1.4857-5.9198-1.6484-5.1241-0.33713-5.6061-0.6653-6.5419-4.4542-0.91293-3.6965 3.0973-3.8328 7.3553-0.25 3.2929 2.7708 5.17 3.1123 7.0073 1.275 0.96661-0.96661 1.6386-0.96661 3.1864 0 1.07 0.674 2.63 1.225 3.47 1.225 1.6842 0 1.8899 0.85857 0.66734 2.7854-1.235 1.9464-7.537 2.675-9.2297 1.0672zm126.07 74.457c3.6027-1.0105 11.796-1.7179 23.75-2.0508 17.007-0.47351 18.25-0.636 18.25-2.3859 0-2.0365-1.0436-2.4236-2.55-0.9459-1.9544 1.9172-16.896 1.4992-28.129-0.78692-2.2986-0.46781-4.7736-0.4736-5.5-0.0129-0.72645 0.46073-3.7958 1.5598-6.8208 2.4424-5.8066 1.6942-9.3392 4.0677-8.3753 5.6272 0.31767 0.51399 1.3196 0.64671 2.2264 0.29493 0.90687-0.35178 4.1238-1.3338 7.1488-2.1822zm-115.19-19.92c-0.17-2.69-0.76-4.89-1.31-4.89-1.2298 0-1.8741 5.8735-1.0183 9.283 1.0377 4.1346 2.6743 1.0471 2.3288-4.3935zm9.19 2.21c0-2.8097-3.373-6.0505-5.4628-5.2486-2.6306 1.0095-1.8659 5.3781 1.2128 6.928 3.3348 1.6789 4.25 1.3172 4.25-1.6793zm-13.5-3.1793c0-2.5741-0.35238-2.9167-3-2.9167-3.8588 0-4.7218 3.4364-1.2858 5.1202 3.2904 1.6125 4.2858 1.1007 4.2858-2.2035zm77.91-3.3174c1.1826-1.3068 1.3723-2.1157 0.6071-2.5886-1.79-1.1063-4.0173 0.25641-4.0173 2.458 0 2.5426 1.1863 2.588 3.4102 0.13066zm19.161-2.5278c1.64-1.64 1.94-6.57 0.41-6.57-1.09 0-2.98 4.16-2.98 6.57 0 1.8164 0.75947 1.8183 2.5714 0.006zm77.463-10.404c-0.69252-1.1867-0.94827 0.35128-0.88672 5.3323l0.0865 7 0.88671-5.3323c0.55407-3.3319 0.52162-5.958-0.0865-7zm36.555 9.3346c0.738-2.9404-0.26749-6.2616-1.4893-4.9195-0.45924 0.50447-1.1082 2.3797-1.4422 4.1672-0.74722 3.9992 1.9433 4.6896 2.9316 0.75224zm10.366-4.6704c0.07-2.23-0.98-4.83-1.94-4.83-1.1894 0-1.8819 5.0135-1.2384 8.9645l0.57588 3.5355 1.2813-3c0.70473-1.65 1.3016-3.7507 1.3264-4.6682zm-135.41-0.08c0.76663-0.6875 2.145-1.8868 3.0631-2.6651 1.5528-1.3164 1.5406-1.5091-0.17486-2.7635-2.3388-1.7102-3.9249-1.2003-3.9249 1.2619 0 1.0542-0.81641 2.2504-1.8142 2.6582-0.99784 0.40785-1.5338 1.1954-1.191 1.75 0.84073 1.3603 2.3568 1.2697 4.042-0.24154zm154.11-13c-0.49-15.335-1.33-22.69-2.75-24.2-0.5-0.522-0.9-1.958-0.9-3.191 0-2.6045-1.7325-4.0265-3.163-2.596-0.65167 0.65167-0.46686 3.8436 0.54209 9.3629 2.0433 11.177 3.6503 22.109 4.2813 29.124 1.0523 11.698 2.4425 5.7554 1.9883-8.5zm-356.37 9.2182c-0.27366-1.0465-1.1239-2.4225-1.8895-3.0579-0.76556-0.63536-1.4056-1.8876-1.4223-2.7828-0.02534-1.3565-0.21234-1.3144-1.1229 0.25319-1.426 2.4549 1.3755 8.8549 3.5164 8.0334 0.81648-0.31332 1.2052-1.3487 0.91826-2.446zm-27.717-4.5669-0.68421-2.7261-2.0976 2.0976c-2.0502 2.0502-2.0565 2.1605-0.27595 4.8779 2.2395 3.418 4.2729 0.59213 3.0578-4.2494zm325.92-13.9c-0.19752-4.4-1.3033-11.825-2.4573-16.5-2.9279-11.862-2.9373-11.883-4.182-9.6658-1.3604 2.4235-2.756 0.49693-5.3132-7.3342-3.1451-9.6316-7.4174-16.72-16.217-26.905-5.9434-6.8794-7.7128-10.214-6.4734-12.198 1.4827-2.3742-1.7478-5.1507-5.4939-4.7218-3.6955 0.42308-4.5101 4.316-1.3642 6.5195 6.4834 4.5411 24.139 32.062 25.615 39.927 0.35086 1.8703 1.0369 3.6471 1.5246 3.9485 0.48765 0.30138 0.88664 1.5898 0.88664 2.8632s0.70324 4.2843 1.5628 6.691c0.85952 2.4066 2.1565 8.6507 2.8821 13.876 0.72565 5.225 1.3724 8.2891 1.4372 6.809 0.30458-6.9529 3.3134-4.5456 4.365 3.4924 1.8935 14.473 2.0733 14.955 2.8718 7.6986 0.39341-3.575 0.55368-10.1 0.35617-14.5zm23.504 15.589c1.51-6.31 8.02-8.81 8.02-3.09 0 2.4677 1.623 3.4248 2.3952 1.4125 0.94544-2.4638 0.79492-2.8982-2.3952-6.9125-1.65-2.0763-3-4.6553-3-5.7311 0-1.0918-0.85319-2.1792-1.9308-2.461-2.4807-0.64872-3.3417-2.9301-2.0304-5.3803 1.7722-3.3113 4.349-2.329 5.7613 2.1963 1.4931 4.7841 5.8395 10.876 7.7596 10.876 2.3943 0 2.5454-1.8736 0.47815-5.9259-1.16-2.271-2.04-5.936-2.04-8.511 0-4.1305-0.23738-4.5687-2.75-5.0758-1.5125-0.30526-4.8275-1.2375-7.3667-2.0716-7.3016-2.3985-9.8733-1.2465-9.9272 4.4469-0.0241 2.5529-0.72872 6.4416-1.5657 8.6416-2.6731 7.026-2.7359 7.5-0.99344 7.5 0.89661 0 2.5129-0.55127 3.5918-1.225 1.6514-1.0313 2.1977-0.91271 3.4546 0.75 1.7079 2.2593 2.0427 7.0566 0.55661 7.975-1.2438 0.76868-1.3333 7.5-0.0997 7.5 0.49514 0 1.4304-2.2101 2.0785-4.9113zm-16.18-11.84c1.387-4.0238 2.8124-8.8287 4.1304-13.923 1.1779-4.5526-2.0915-6.7389-7.1656-4.7918-1.4691 0.56374-1.6106 6.3812-0.23779 9.7788 0.40318 0.99788 0.4757 3.9873 0.16116 6.6431-0.83818 7.0771 0.99661 8.4289 3.1118 2.2926zm42.2-3.2c0-10.647-3.5061-15.446-7.3135-10.01-1.5034 2.1465-0.70316 5.9953 2.4874 11.963 3.7951 7.0982 4.8261 6.681 4.8261-1.953zm-4.33-18.624c1.08-2.827-4.56-17.426-6.74-17.426-0.56744 0-1.5142-1.3841-2.1039-3.0758-0.77378-2.2197-1.3756-2.7724-2.1621-1.9858-1.5632 1.5632-0.91706 12.122 0.86206 14.088 0.81198 0.89723 1.4763 2.5083 1.4763 3.5801 0 4.9371 7.1055 8.8883 8.6669 4.8194zm-13.923-6.935c0.2629-5.3801-1.5298-8.6531-5.4147-9.8862-3.4991-1.1106-3.985 6.747-0.72394 11.708 3.5292 5.3692 5.8205 4.6891 6.1387-1.822zm-24.6 2.759c0.0829-0.9625 0.0489-3.0271-0.0757-4.5879-0.31438-3.9382 2.6124-3.2496 5.7072 1.3428 2.6198 3.8875 4.7338 5.4122 6.2256 4.4902 1.4921-0.92219 1.2101-12.732-0.35872-15.023-0.74295-1.0849-1.6515-3.21-2.0191-4.7225-1.0846-4.4634-7.2419-1.6953-6.4825 2.9142 0.16633 1.0097-0.0399 2.3813-0.45833 3.048-1.26 2.003-5.69-0.578-5.69-3.313 0-2.924-1.98-4.178-3.19-2.018-1.18 2.109-2.81 1.159-2.81-1.64 0-1.5576-0.29985-1.8411-1.1005-1.0405-0.80062 0.80062-0.52814 2.7124 1 7.0166 1.1552 3.2539 2.1005 7.091 2.1005 8.527 0 4.0987 6.8177 8.8715 7.1508 5.006zm20.805-15.777c0.57409 0.35481 1.0438-0.0083 1.0438-0.80692s-0.675-1.711-1.5-2.0276c-0.825-0.31658-1.5-0.09094-1.5 0.50142 0 0.64948-0.99242 0.82794-2.5 0.44956-2.8559-0.71679-3.3691 0.82487-0.76058 2.2847 1.1393 0.63756 2.1593 0.625 2.9562-0.0364 0.66922-0.55541 1.6865-0.71953 2.2606-0.36472zm2.04-10.359c0-1.0373-2.475-4.5242-5.5-7.7487-3.1088-3.3138-5.5-5.1894-5.5-4.314 0 0.8518 0.5625 2.1353 1.25 2.8523 1.0041 1.0471 0.9258 1.5154-0.39779 2.3804-1.514 0.9894-1.5192 1.3464-0.0648 4.3964 1.88 3.944 3.21 4.284 3.21 0.82 0-1.375 0.45-2.5 1-2.5s1 0.52707 1 1.1713c0 1.396 2.95 4.829 4.15 4.829 0.47 0 0.85-0.849 0.85-1.886zm-23.02-0.864c-0.01-0.412-0.9-1.875-1.98-3.25-1.0755-1.375-1.9655-2.8565-1.9778-3.2922-0.0122-0.43571-0.48058-1.3357-1.0408-2-0.56019-0.66429-1.8891-2.2648-2.9531-3.5568-1.064-1.2919-2.4388-2.1809-3.0551-1.9755-0.64965 0.21655-0.039 1.5404 1.4531 3.1505 1.4155 1.5273 2.5736 3.3923 2.5736 4.1444 0 2.526 3.4828 7.5168 5.25 7.5232 0.9625 0.0035 1.74-0.33118 1.7278-0.74368zm-15.24-12.25c0.14131-0.825-0.16028-2.1494-0.6702-2.9431-1.36-2.114-6.07 0.203-6.07 2.985 0 2.557 6.3 2.518 6.74-0.042zm25.26 0.447c0-1.5018-8.4814-6.3645-9.429-5.406-0.76268 0.77142-0.63917 1.3417 0.42901 1.9811 0.825 0.49381 2.85 1.7553 4.5 2.8033 2.6457 1.6804 4.5 1.9366 4.5 0.62159zm-32-5.947c0.70885-0.85411 2.8891-1.5 5.0634-1.5 2.1002 0 4.0426-0.36249 4.3164-0.80554 0.95261-1.5414-6.1223-4.4596-9.5657-3.9456-2.2225 0.33174-4.878-0.25642-8.0617-1.7856-6.6418-3.1902-6.8803-1.316-0.5785 4.5467 5.7406 5.3407 6.9072 5.802 8.826 3.49zm-37-3.8815c0-3.0076-17.703-7.2872-20.794-5.0269-2.493 1.823-1.4162 2.3141 7.8933 3.5998 4.6206 0.63813 8.8286 1.5311 9.3511 1.9844 1.4874 1.2905 3.55 0.96667 3.55-0.55727zm-38.15-10.224c5.6954-1.6175 9.0983-3.7833 7.8716-5.0099-2.1913-2.1913-10.882-3.2323-15.971-1.9131-2.8856 0.748-6.5927 1.5105-8.238 1.6944-5.2277 0.58432-4.313 3.3427 1.6953 5.1128 6.8634 2.022 7.9018 2.0302 14.642 0.1159zm-28.365-8.3862c2.5558-1.0955 4.3666-2.4455 4.0239-3-0.73536-1.1898-20.154-1.3855-20.88-0.21035-0.97472 1.5771 0.95429 3.009 5.375 3.9897 6.388 1.4172 6.3508 1.4197 11.481-0.77938z"
     id="path3521"
     style="fill:#db290e;fill-opacity:1" />
</svg>
