<?xml version="1.0" encoding="UTF-8" standalone="no"?>
<!-- Created with Inkscape (http://www.inkscape.org/) -->

<svg
   width="179.26114mm"
   height="266.82776mm"
   viewBox="0 0 179.26114 266.82776"
   version="1.1"
   id="svg27140"
   xml:space="preserve"
   inkscape:version="1.2.2 (732a01da63, 2022-12-09)"
   sodipodi:docname="list.svg"
   xmlns:inkscape="http://www.inkscape.org/namespaces/inkscape"
   xmlns:sodipodi="http://sodipodi.sourceforge.net/DTD/sodipodi-0.dtd"
   xmlns="http://www.w3.org/2000/svg"
   xmlns:svg="http://www.w3.org/2000/svg"><sodipodi:namedview
     id="namedview27142"
     pagecolor="#505050"
     bordercolor="#eeeeee"
     borderopacity="1"
     inkscape:showpageshadow="0"
     inkscape:pageopacity="0"
     inkscape:pagecheckerboard="0"
     inkscape:deskcolor="#505050"
     inkscape:document-units="mm"
     showgrid="false"
     inkscape:zoom="0.37282197"
     inkscape:cx="218.603"
     inkscape:cy="332.59843"
     inkscape:window-width="1920"
     inkscape:window-height="1017"
     inkscape:window-x="-8"
     inkscape:window-y="-8"
     inkscape:window-maximized="1"
     inkscape:current-layer="layer1" /><defs
     id="defs27137" /><g
     inkscape:label="Layer 1"
     inkscape:groupmode="layer"
     id="layer1"
     transform="translate(15.469276,-3.1990213)"><g
       id="g27311"
       transform="matrix(0.26458333,0,0,0.26458333,-16.792193,1.8761046)"><g
         id="layer1-5"
         transform="matrix(0.19163583,0,0,0.19163583,192.0518,751.48865)"
         style="stroke-width:5.56611" /><g
         id="g4520"><title
           id="title4522">List of Spirits</title><path
           id="path3713"
           d="m 650.27726,1012.7865 -76.56103,0.1197 c -1.53402,-0.017 -2.79957,-0.046 -4.35022,-0.059 -13.20185,-0.1177 -27.12413,-0.3584 -30.93807,-0.5332 -4.53531,-0.2078 -6.42815,-0.3403 -4.65845,0.6545 l -4.53189,0.01 -94.75331,-0.6343 -0.0706,-0.5047 -16.53564,-0.3946 c -9.0947,-0.2169 -38.13853,-0.3629 -64.54207,-0.3235 -26.40354,0.039 -57.60841,0.022 -69.34336,-0.038 -11.73496,-0.06 -29.13674,-0.2811 -38.67147,-0.4903 l -17.33654,-0.3795 3e-5,0.7518 -8.6848,-0.057 c -3.48647,-0.4058 -11.88901,-0.4576 -61.36178,0.3837 l -120.880108,2.1908 -2.951665,-3.7382 c -1.623205,-2.057 -8.836152,-10.96513 -16.028627,-19.79503 -7.192496,-8.83 -13.0772879,-16.6115 -13.0776599,-17.2911 -4.06e-4,-0.748 1.840631,-1.2644 4.665926,-1.3107 5.9788699,-0.098 11.8357989,-2.2845 19.3775529,-7.2332 6.732917,-4.4178 10.121785,-7.7906 14.187537,-14.1158 4.748772,-7.3878 5.484599,-9.2383 6.636272,-16.7044 1.948425,-12.6312 -1.231009,-23.0733 -8.657368,-28.4384 l -3.36116,-2.4289 2.122052,-2.3353 c 3.465719,-3.8127 5.732301,-10.481 4.961423,-14.5972 -1.719522,-9.1814 -7.596977,-15.5917 -16.519908,-18.0196 -2.64075,-0.7185 -5.162008,-1.8037 -5.603639,-2.4116 -0.737516,-1.0152 -0.244283,-29.4242 0.751788,-43.2589 0.232553,-3.23 0.729378,-20.7563 1.103814,-38.9468 0.37442,-18.1905 0.856096,-34.9969 1.069528,-37.3468 1.019557,-11.2254 2.80948,-253.74391 2.83122,-383.64082 0.01342,-80.16787 0.347663,-146.09067 0.744065,-146.49377 0.396401,-0.4032 2.454616,-0.9214 4.574203,-1.153 4.297451,-0.47 12.170554,-5.5378 20.294403,-13.0639 2.92834,-2.7128 5.686975,-4.9384 6.13093,-4.9458 0.443862,0 0.806449,-0.5496 0.806089,-1.2044 -4.06e-4,-0.6548 2.647854,-4.0954 5.885277,-7.6464 5.906025,-6.4784 16.682896,-19.7247 19.731557,-24.2524 0.89653,-1.3315 5.695513,-6.7665 10.662793,-12.0777 4.967285,-5.3113 12.149705,-13.4463 15.960995,-18.0781 3.81133,-4.6318 10.40996,-12.1668 14.66469,-16.7444 4.25473,-4.5776 7.41219,-8.6403 7.01748,-9.0282 -0.3947,-0.388 -0.17168,-0.7138 0.49577,-0.7248 1.05883,-0.022 11.31482,-9.9651 12.15728,-11.7917 0.17231,-0.3735 2.23241,-2.3416 4.57829,-4.3753 2.34587,-2.0337 7.86474,-7.1263 12.26303,-11.3171 8.80076,-8.3852 18.80185,-16.2109 30.96942,-24.2298 4.37388,-2.8826 8.19304,-5.5188 8.48622,-5.8592 2.17915,-2.5302 25.54499,-14.4022 38.39487,-19.5086 6.74611,-2.6809 13.09925,-5.3651 14.11778,-5.9652 1.01851,-0.6001 2.79946,-1.1084 3.95889,-1.1274 1.15941,-0.024 4.64612,-0.9902 7.74791,-2.1582 17.80192,-6.7035 39.69624,-11.9391002 59.50608,-14.2305002 8.40455,-0.9724 37.4765,-1.2206 46.93968,-0.4009 13.63817,1.181 23.21459,3.1715 41.61192,8.6501002 15.18971,4.5233 33.66353,11.4859 41.61379,15.684 12.7163,6.7147 31.40605,18.06 34.81902,21.1371 0.66172,0.5964 3.94962,2.9591 7.30658,5.2504 3.35697,2.2911 10.25921,8.2202 15.33936,13.1744 10.74853,10.4816 34.26408,35.972 39.60308,42.9287 2.02411,2.6374 6.171,7.3937 9.21407,10.57 8.77196,9.1561 19.97346,22.5506 32.55501,38.9276 3.78278,4.9239 7.67757,9.8986 8.65565,11.0559 0.97808,1.157 6.92943,8.2585 13.22527,15.7809 21.38924,25.5562 27.77357,30.1704 44.72686,32.3206 5.69741,0.7224 6.49511,1.7304 4.74221,5.9955 -1.71219,4.1662 -1.62579,-5.0436 -2.32667,245.67535 -0.2788,99.72538 -0.74207,188.52051 -1.02876,197.32411 -0.59895,18.39329 -0.56992,96.85113 0.0392,107.18703 0.35885,6.089 0.69588,51.8672 0.5867,79.6718 l -0.0376,9.8255 -4.53507,1.2813 c -6.06093,1.7133 -14.37439,10.2779 -14.85299,15.3024 -0.5682,5.9652 1.06111,13.8372 3.36286,16.2475 2.84184,2.9758 2.78289,3.4403 -1.23506,9.7202 -1.8759,2.9319 -3.34341,5.5977 -3.26283,5.9258 0.0806,0.3281 -0.2812,2.4946 -0.80412,4.8134 -1.3252,5.8768 1.21026,17.184 5.53967,24.697 6.53315,11.3372 19.90995,22.4169 31.04563,25.7138 4.08167,1.2085 3.38996,2.2793 -17.6905,27.4197 z m -10.54041,-6.9863 c 4.59481,-0.075 5.10526,-0.391 9.26373,-5.7509 2.4201,-3.11933 7.98867,-9.58073 12.3766,-14.35753 l 7.97876,-8.6846 -5.655,-3.438 c -6.82713,-4.1505 -15.99338,-13.3994 -21.02031,-21.211 -9.02661,-14.0268 -11.31521,-31.912 -5.43611,-42.4835 1.65204,-2.9707 3.44744,-5.4088 3.98975,-5.4183 0.54234,-0.01 -0.0559,-1.109 -1.32965,-2.4428 -1.27368,-1.3337 -2.85268,-5.0808 -3.50893,-8.328 -1.43151,-7.0834 0.33637,-14.4312 5.42586,-22.5589 3.25107,-5.1918 10.77567,-11.6519 13.6263,-11.6987 1.36398,-0.023 1.47338,-5.3269 0.84494,-40.8095 -0.3973,-22.4307 -0.74094,-41.2613 -0.76327,-41.8475 -0.34131,-8.9873 -0.0373,-120.26831 0.56944,-208.51632 0.26442,-38.42617 0.62656,-130.01814 0.80658,-203.53648 0.30105,-122.95359 0.18769,-133.71199 -1.41553,-134.19229 -6.59289,-1.9743 -14.93147,-6.0511 -18.91189,-9.2451 -8.10333,-6.5025 -35.56567,-37.6905 -47.41089,-53.8442 -1.84568,-2.5169 -9.59781,-11.9872 -17.22869,-21.0465 -7.6309,-9.0594 -16.83954,-20.0224 -20.46141,-24.3624 -17.06475,-20.4484 -36.98701,-41.4347 -49.30463,-51.9362 -10.20865,-8.7035 -31.9538,-22.6665 -46.42297,-29.8105 -26.84651,-13.2552 -48.38292,-20.135 -74.15578,-23.6883 -12.56396,-1.7324 -45.66213,-2.1745 -57.07451,-0.7625 -4.4003,0.5444 -12.72228,2.3299 -18.49447,3.967 -5.77215,1.6372 -11.57775,2.9943 -12.90046,3.016 -1.3227,0.012 -5.24002,1.0615 -8.70499,2.3125 -3.46494,1.2511 -11.57936,3.7386 -18.0326,5.5258 -6.45322,1.7872 -13.08449,3.7988 -14.73586,4.4697 -1.65137,0.6712 -4.17101,1.2382 -5.59968,1.2617 -1.42869,0.023 -2.59772,0.5223 -2.59739,1.1089 0.001,0.5865 -0.68071,1.0775 -1.51329,1.0911 -0.83255,0.018 -2.87232,0.7 -4.53297,1.5254 -1.66064,0.8251 -6.65888,3.3126 -11.10587,5.5272 -4.44704,2.2146 -12.36504,7.1126 -17.59603,10.8831 -5.23102,3.7705 -12.87047,9.2372 -16.9761,12.1502 -9.27029,6.5773 -23.82669,18.9595 -30.90578,26.287 -21.09801,21.8391 -28.82948,30.4041 -50.81975,56.3056 -45.747238,53.8835 -58.266391,66.8906 -68.876333,71.5568 -4.134471,1.8182 -3.805074,-2.7608 -3.280065,45.7531 0.496135,45.8475 0.125053,262.73023 -0.47484,277.77566 -0.247117,6.19784 -0.706956,38.87104 -1.022862,72.60532 -0.68137,72.76155 -1.610678,138.41201 -2.106257,148.81471 -0.476466,10.0015 -1.424936,38.7129 -2.184751,66.1603 l -0.620619,22.4078 5.144686,2.5832 c 5.528083,2.7744 13.462461,10.2035 15.965416,14.949 2.382957,4.518 2.910397,16.5069 0.969241,22.0477 -1.400409,3.9974 -1.42413,4.9299 -0.164512,6.3574 6.638117,7.5229 8.9063,25.0121 4.857102,37.4371 -2.872568,8.8144 -4.30944,11.5642 -10.024049,19.1757 -6.6212,8.8191 -16.350517,16.1489 -25.2957,19.0573 -1.516543,0.4931 -0.462784,2.3393 5.873618,10.2949 4.246582,5.3317 9.234757,11.3758 11.085024,13.43163 l 3.363828,3.7373 25.442373,-0.9252 c 66.11047,-2.4051 154.14537,-2.8832 293.2105,-1.591 21.7097,0.2017 52.43293,0.4253 68.27509,0.4966 52.39738,0.2359 111.77808,0.7373 128.01784,1.0806 32.28729,0.6826 76.84867,1.4105 81.57812,1.3329 z"
           style="fill:#000000;stroke-width:1.06667" /><g
           transform="translate(-8.1750789,-299.86073)"
           id="g954"><g
             id="g908"
             transform="translate(35.279523,-8)"><path
               d="m 239.35755,407.59574 q -5.31231,4.6946 -5.31231,11.36587 0,6.54772 4.57106,12.35419 l 1.23542,1.23543 q 1.35896,1.60604 6.91835,6.79481 5.55938,5.18876 7.53605,10.0069 1.97668,4.81813 1.97668,9.51273 0,12.84837 -12.10711,22.36109 l -0.98834,0.74125 -0.49417,0.2471 -0.98833,0.74125 q -3.8298,2.71792 -5.3123,2.71792 l -0.49418,-0.49417 q 3.2121,-1.72958 4.6946,-2.965 l 0.86479,-0.74125 q 0.98834,-0.98835 1.48251,-1.85313 l 0.98833,-1.23543 q 3.08855,-4.20043 3.08855,-10.13044 0,-4.20042 -1.97667,-8.27732 -1.85313,-4.20042 -9.01857,-10.74814 -7.16543,-6.54773 -9.26564,-10.37753 -2.10022,-3.95334 -2.59438,-7.78314 l -0.24709,-0.98835 v -2.10021 q 0,-12.9719 13.46607,-21.74339 0.74125,-0.49416 1.23543,-0.74125 4.07688,-2.10021 7.53606,-3.21209 3.45917,-1.11189 4.07688,-1.11189 0.74125,0 0.74125,0.61772 -6.91835,2.47084 -10.6246,4.94168 z m -1.97668,-1.35896 q -10.6246,-6.05355 -22.48464,-6.05355 -0.86479,4.94168 -0.86479,10.37752 0,12.10712 2.84146,20.0138 2.71794,0 7.0419,-0.49417 6.42418,-0.74125 14.7015,1.23542 9.88335,2.34731 15.93692,6.17711 6.05355,3.70625 6.05355,4.44751 l -0.24708,0.49416 -0.98834,-0.61771 q -8.64794,-6.54772 -19.51963,-9.26564 -5.93002,-1.4825 -15.68983,-1.4825 -2.59438,0 -7.0419,0.49415 2.71792,7.65961 11.86003,17.54298 9.26564,9.75981 11.73649,16.184 2.59438,6.30063 3.21209,13.09544 l 0.24709,2.84146 v 1.97668 q 3.33563,2.3473 8.15376,4.07689 12.84837,-13.34254 12.84837,-34.46822 0,-7.16544 -1.97667,-14.45441 -6.67126,-1.85313 -10.50106,-6.91836 -3.70627,-5.06522 -3.70627,-10.99523 0,-2.59438 0.74125,-4.57106 -4.81813,-5.18876 -10.37752,-8.27731 z m -21.99047,24.58485 q -3.33563,-8.52439 -3.33563,-20.26088 0,-5.43584 0.74125,-10.37752 -7.41251,0.49417 -13.58962,4.07688 2.71792,4.44751 2.71792,9.1421 0,3.21209 -1.4825,5.80648 7.78315,2.84147 9.63628,12.35419 z m -7.6596,1.23542 q -1.11189,-8.77147 -8.27732,-11.61294 -3.58271,4.32397 -6.91834,4.32397 -1.97667,0 -1.97667,-2.10021 0,-4.20043 5.80647,-4.20043 1.85312,0 2.59438,0.24709 0.98833,-2.3473 0.98833,-5.80648 0,-3.8298 -2.3473,-7.90669 -13.34253,8.64794 -13.34253,26.31444 0,4.57106 1.97667,8.64794 9.26565,-5.06521 21.49631,-7.90669 z m 54.97618,5.31231 q -3.21209,-10.99524 -12.23066,-20.75506 -0.49416,1.97668 -0.49416,3.82981 0,5.3123 3.33564,10.13044 3.45917,4.6946 9.38918,6.79481 z m -64.61246,-17.41941 q -0.86479,-0.24709 -3.21209,-0.24709 -2.34729,0 -2.34729,1.97667 0,0.98834 1.35896,0.98834 2.59438,0 4.20042,-2.71792 z m 9.88337,14.70149 v -1.23542 q -11.36587,2.59438 -20.50798,8.5244 3.45918,5.06521 8.89503,5.06521 4.81813,0 8.15376,-3.58271 3.45919,-3.58272 3.45919,-8.77148 z m 65.35371,50.77576 -1.85313,-46.20471 h -2.22377 q -1.85311,0 -4.81813,-0.49416 2.22375,7.04188 2.22375,14.33087 0,10.99524 -3.21209,18.90192 -3.08854,7.90668 -10.13043,15.81337 4.81813,0.98834 7.78314,0.98834 6.7948,0 12.23066,-3.33563 z m 7.04189,-6.54772 q 2.84146,-4.0769 2.84146,-8.03024 0,-3.33563 -2.10021,-3.33563 -2.22376,0 -2.22376,4.07688 0,3.8298 1.48251,7.28899 z M 243.9286,478.3853 Z m 46.20471,12.72483 q -7.65961,-4.07689 -10.74816,-9.63627 -1.85313,2.10021 -4.81813,4.20042 v 6.67127 l -0.49417,1.85312 -0.74125,-7.65959 q -5.43586,3.21209 -11.73649,3.21209 -9.01856,0 -17.41942,-4.57106 0,4.44751 -0.74126,8.64794 -1.4825,8.03023 -4.81813,13.46608 -3.95335,6.30063 -9.75982,9.63628 -5.68293,3.45917 -10.99524,3.45917 -5.18876,0 -8.15377,-2.59438 -2.965,-2.47084 -2.965,-5.18876 0,-5.31231 4.32396,-5.31231 2.96501,0 2.96501,3.2121 0,2.22375 -5.3123,3.33563 0,1.85313 2.34729,3.70626 2.47084,1.85312 6.79481,1.85312 4.57106,0 10.13045,-3.33563 5.55938,-3.2121 9.63626,-9.38919 4.20044,-6.42418 5.06523,-13.58962 0.49417,-4.32397 0.49417,-7.41252 v -1.72958 l -2.59438,-1.72959 -0.74125,-0.74125 -0.98835,0.24708 q -1.4825,0 -1.4825,-2.10021 l -0.24707,-0.49418 -0.98835,0.24708 q -2.10021,0 -2.10021,-1.72958 l 0.24708,-0.98834 -0.49416,-0.49416 q -0.98834,0.74125 -2.47084,0.74125 -1.85313,0 -3.70626,-1.11188 -1.72959,-1.11188 -2.10021,-4.44751 2.965,2.10021 4.07688,2.10021 0.61771,0 1.23542,-0.37062 l -3.8298,-3.8298 h -0.74125 q -1.60605,0 -1.60605,-1.4825 l 0.37063,-0.74126 -1.11188,-0.74125 h -0.74125 q -1.4825,0 -1.4825,-2.10021 -0.2471,-0.49418 -0.74125,-0.98835 l -0.98835,0.2471 q -1.60604,0 -1.60604,-1.97668 -8.40085,-7.6596 -17.91359,-7.6596 -7.16543,0 -11.36587,3.21209 -4.07688,3.08855 -4.07688,5.43584 0,0.74125 2.47084,0.74125 2.59439,0 2.59439,2.59438 0,2.47085 -3.08856,2.47085 -3.70626,0 -3.70626,-4.07688 0,-4.20044 4.69461,-7.78315 4.81813,-3.58272 13.46606,-3.58272 8.64795,0 17.66651,7.90669 l 1.11187,-0.24709 q 1.48252,0 1.48252,1.48252 v 0.74125 l 0.74125,0.74125 0.98833,-0.2471 q 1.60605,0 1.60605,1.48252 0,0.86479 -0.61771,1.11186 0.61771,0.2471 1.11188,0.74127 l 0.98833,-0.24709 q 1.48251,0 1.48251,1.48251 l -0.24709,0.74125 3.8298,3.8298 q 0.37063,-0.49417 0.37063,-1.11188 0,-0.86479 -1.60605,-3.95334 0.74125,-0.49417 2.71792,1.35896 2.10022,1.72959 2.10022,4.57105 0,1.23542 -0.61771,2.10021 l 0.49416,0.8648 q 0.49417,-0.49417 1.11188,-0.49417 1.97667,0 1.97667,1.97667 l -0.24707,0.74125 0.49417,0.24708 h 0.74125 q 1.4825,0 1.4825,1.97667 l 0.86479,0.86481 1.23542,0.74125 0.49417,-0.2471 -0.24708,-2.34728 q -0.61771,-6.91836 -3.21209,-13.71316 -2.59438,-6.79482 -11.98358,-16.92527 -9.26565,-10.13043 -11.86003,-17.17232 -3.58272,0.49417 -5.55939,0.98832 v 1.85314 q 0,5.93001 -4.07688,9.63627 -3.95335,3.70627 -9.88336,3.70627 -6.05356,0 -10.37753,-5.06523 -17.66651,12.23066 -17.66651,26.31445 0,8.27731 4.32398,14.7015 l 1.23542,1.72958 q 4.57105,5.18876 11.61294,7.90668 7.16544,2.71794 13.46608,2.71794 11.24232,0 18.90192,-3.70627 l 2.10021,-0.61771 -1.35896,1.11188 q -9.1421,4.57106 -19.64317,4.57106 -6.30064,0 -13.58962,-2.84148 -7.28898,-2.965 -12.47775,-8.03022 l -1.35896,-1.35896 q -6.30064,-7.53607 -6.30064,-17.17234 0,-15.44275 19.27255,-27.30278 -3.33563,-5.18876 -3.33563,-12.97191 0,-7.41252 4.07688,-13.96025 4.0769,-6.54772 11.36587,-10.50106 -2.47084,-4.94169 -2.47084,-8.89503 0,-4.07688 1.72959,-6.30063 1.85313,-2.22376 4.32396,-2.22376 3.21209,0 3.21209,2.84147 0,2.10021 -1.97667,2.10021 -1.60604,0 -2.71792,-2.22376 -3.08855,0 -3.08855,5.31231 0,3.82979 2.47084,8.64794 6.91836,-3.45917 14.94858,-3.82981 2.71793,-15.19567 11.7365,-25.07902 9.01856,-10.0069 21.99047,-12.60128 2.965,-7.28898 9.88336,-11.48941 7.04189,-4.20043 15.31921,-4.20043 10.37752,0 17.6665,6.30064 7.41251,6.17711 7.41251,15.44275 0,8.64794 -6.7948,13.71316 7.28897,11.48941 7.28897,24.21424 0,13.58962 -6.17709,22.48464 -6.05357,8.89502 -16.80171,10.99524 v 45.95762 q 2.34729,-1.60605 4.32396,-4.0769 -2.10021,-3.95334 -2.10021,-9.01856 0,-3.21209 1.23542,-5.06521 1.35896,-1.85313 2.84146,-1.85313 3.33565,0 3.33565,5.68293 0,4.81813 -3.58273,9.51272 6.54773,13.09546 28.04403,15.19568 0,-9.01857 -3.70625,-16.67818 -4.81815,-1.4825 -10.37753,-6.05355 l 0.86479,0.12359 q 3.70626,3.33563 9.01857,4.94167 -5.80648,-10.74814 -17.79006,-18.90192 l -0.74125,-0.61771 0.49418,-0.49417 q 0.86479,0 7.6596,5.68294 6.7948,5.55939 11.61295,14.57796 3.08855,0.74125 7.28897,0.74125 7.28898,0 12.23066,-2.47085 0,-1.60604 1.72959,-1.60604 l 0.74125,0.24708 1.23542,-0.74125 -0.24709,-0.98834 q 0,-1.4825 1.85313,-1.4825 l 0.49417,0.24708 0.74125,-0.98833 q -0.74125,-0.74125 -0.74125,-1.60605 0,-1.97667 1.97667,-1.97667 l 0.49418,-1.72958 q -1.4825,-0.74125 -1.4825,-2.10022 0,-1.4825 1.2354,-1.97668 l -0.24708,-1.85311 q -1.72959,-0.37064 -1.72959,-1.7296 0,-0.74125 0.49417,-1.23542 l -0.98833,-1.4825 q -1.60605,0 -1.60605,-1.60605 v -0.74125 l -0.74125,-0.98834 -0.98834,0.24709 q -1.4825,0 -1.4825,-1.97667 -3.70626,-2.59438 -9.14211,-2.59438 -9.88335,0 -17.6665,5.43584 l -0.8648,0.37063 -0.24708,-0.49417 q 0,-0.86479 5.93002,-3.58272 6.05356,-2.71792 12.84836,-2.71792 5.43585,0 9.88336,2.71792 l 0.98834,-0.24708 q 1.4825,0 1.4825,2.10021 0.61771,0.24709 0.98834,0.98834 h 0.86479 q 1.4825,0 1.4825,1.4825 l -0.24708,0.98834 0.98833,1.35896 q 1.97669,0 1.97669,1.97667 0,0.98833 -0.98834,1.4825 l 0.24707,1.85314 q 2.10023,0.37063 2.10023,2.22375 0,1.60605 -2.10023,2.10022 0,0.74125 -0.49415,2.22375 0.98833,0.61771 0.98833,1.4825 0,1.85313 -2.22375,1.85313 -0.49418,0.24709 -0.98835,1.23542 l 0.2471,0.74125 q 0,1.48251 -1.85314,1.48251 h -0.74125 q -0.49417,0.49416 -0.98834,0.74125 v 0.86479 q 0,1.4825 -1.72959,1.4825 -0.74125,0 -1.23542,-0.49415 -4.81813,2.47083 -12.23066,2.47083 -3.95334,0 -7.04188,-0.74125 3.8298,7.6596 3.8298,15.93692 v 0.98834 l 5.80646,0.24708 q 14.7015,0 24.95549,-8.77149 10.37753,-8.89501 10.37753,-23.8436 0,-14.57795 -9.75982,-23.8436 -9.75982,-9.26565 -25.07903,-9.26565 -21.86693,0 -34.09759,14.33086 l -1.11187,0.61771 q 0,-0.74125 4.44752,-5.06522 4.44751,-4.4475 12.60127,-7.90668 8.15378,-3.45917 18.40777,-3.45917 16.92525,0 27.92048,9.88335 10.99524,9.75982 10.99524,24.21424 0,15.68983 -11.36587,25.20256 -11.36585,9.51273 -27.54985,9.51273 -4.69461,0 -6.54773,-0.24708 -1.11188,15.31921 -11.98358,26.19091 -10.87169,10.99523 -27.54987,13.71315 0.74125,2.34729 0.74125,4.32396 0,12.35421 -9.01856,19.51965 -9.01855,7.28897 -24.58486,7.28897 -12.60127,0 -21.74338,-4.81813 -9.1421,-4.6946 -13.71316,-11.98358 -4.57106,-7.16543 -4.57106,-11.24231 l 0.49417,-1.11189 q 0.61771,0 0.61771,1.35897 0,3.45917 4.0769,10.13044 4.20042,6.79481 12.84835,11.36586 8.64795,4.57105 21.00214,4.57105 14.33087,0 23.84361,-6.7948 9.51274,-6.79482 9.51274,-17.79005 0,-2.22375 -0.74127,-4.57106 -4.4475,0.49417 -6.7948,0.49417 -10.00691,0 -17.79005,-3.58272 -7.78315,-3.58271 -7.78315,-9.01857 0,-2.47082 2.84148,-4.07688 2.965,-1.4825 7.78314,-1.4825 6.17709,0 12.47774,4.20042 6.42418,4.32398 9.51274,10.74816 17.41942,-2.59438 27.92048,-12.60129 10.50107,-9.88335 11.24232,-25.07901 -9.63628,-1.23542 -17.41942,-5.06522 z m 1.11187,0.74125 q -4.20042,7.0419 -13.8367,12.72482 -9.63628,5.68293 -20.50797,5.68293 -10.0069,0 -18.28421,-2.965 l -0.98835,-0.61771 q -6.67126,-2.71792 -16.55461,-11.48941 l -2.47085,-2.10021 -0.74125,-0.49417 q -7.41252,-7.16543 -13.83671,-9.75981 -6.42418,-2.71792 -14.20733,-2.71792 -9.51272,0 -15.9369,5.55938 l -0.98835,1.11188 q -5.55938,4.81813 -5.55938,12.10712 0,1.85313 -0.74126,1.85313 -0.6177,0 -0.6177,-2.10022 0,-7.16544 5.55938,-13.21899 l 1.11189,-1.4825 q 11.86002,-11.11879 29.52653,-11.11879 6.42419,0 13.58962,2.59438 7.16544,2.59438 15.93691,9.3892 8.89503,6.7948 10.99524,8.27731 l 0.74125,0.74125 q 11.48941,8.15377 22.48464,8.15377 13.96025,0 24.0907,-10.50107 0.74125,-0.98833 1.23541,-0.74125 z m -22.97881,42.74553 q -3.08855,-6.05355 -8.89502,-9.75982 -5.68294,-3.70626 -11.86003,-3.70626 -9.1421,0 -9.1421,4.32397 0,4.44752 6.42418,7.0419 6.54772,2.59438 15.56629,2.59438 2.965,0 7.90668,-0.49417 z m -100.9338,-35.70363 q 0,6.05355 4.69459,9.88335 4.81814,3.82981 11.48941,3.82981 8.5244,0 15.19566,-6.17711 l 0.98834,-0.74125 0.74125,0.49417 q 0,0.98834 -5.43585,4.57105 -5.43584,3.58273 -11.4894,3.58273 -7.78314,0 -12.72483,-4.32398 -4.81813,-4.32397 -4.81813,-11.36586 0,-1.85314 0.6177,-1.85314 0.74126,0 0.74126,2.10023 z M 289.5156,379.92234 q 5.06522,-4.20043 5.06522,-12.10711 0,-9.51274 -6.30064,-15.07214 -6.30065,-5.68292 -16.30754,-5.68292 -7.9067,0 -14.45442,3.70625 -6.54773,3.70627 -9.51273,10.25399 3.45917,-0.49416 5.80646,-0.49416 10.25399,0 19.64319,5.06521 9.51273,5.06523 16.06046,14.33088 z m -49.16971,26.80861 q 6.67126,4.32397 9.88335,8.15378 2.22375,-3.08856 5.80648,-3.08856 2.71792,0 2.71792,2.59438 0,1.97668 -1.60604,1.97668 -1.97667,0 -2.22376,-1.35896 -0.1236,-1.35897 -1.11189,-1.35897 -1.72958,0 -2.84146,1.97668 9.3892,9.75981 13.219,21.99047 2.965,0.49417 4.81813,0.49417 h 2.47085 v -1.23542 q 0,-1.85313 1.60604,-1.85313 1.48251,0 1.48251,1.85313 v 0.74125 q 9.75982,-2.3473 15.07212,-10.8717 5.43584,-8.52439 5.43584,-21.4963 0,-11.98358 -7.16543,-22.73172 -3.45918,1.72957 -7.28898,1.72957 -6.67126,0 -11.11877,-4.07688 -4.32398,-4.07688 -4.32398,-7.78314 0,-1.35896 1.11188,-1.35896 1.23542,0 1.23542,1.60604 0,3.21209 3.33564,6.79481 3.45917,3.58271 9.51273,3.58271 3.82981,0 6.79481,-1.4825 -12.60128,-17.29588 -33.8505,-17.29588 -2.59439,0 -6.54773,0.49417 -0.49417,2.59438 -0.49417,4.32398 0,5.06522 0.98833,7.41251 3.58272,0.24709 6.17711,1.85313 2.59438,1.4825 2.59438,3.21209 0,2.22375 -2.47085,2.22375 -4.69459,0 -7.53606,-6.30063 -3.45917,0 -6.91834,2.71792 0,1.60604 -1.7296,1.60604 l -0.74125,-0.24708 -2.3473,2.22375 0.8648,0.2471 q 0.74125,0 2.71793,-1.23543 0.74125,0 0.74125,0.61772 -2.22375,1.35896 -2.96502,2.965 -0.74125,1.48251 -2.10021,1.48251 -0.74125,0 -1.4825,-0.49417 0.49417,0.37063 0.49417,1.23542 0,1.4825 -1.72959,1.4825 -1.60605,3.45918 -1.60605,7.41252 0,1.85314 0.49417,3.95335 3.70626,1.23542 8.89503,4.07688 z m 24.58485,-10.62461 q 0,1.85312 1.23542,3.58271 1.23543,1.7296 6.91835,5.06523 5.68293,3.21209 7.41252,6.30064 1.85313,3.08856 1.85313,6.67127 0,7.04189 -5.68293,10.99523 -5.68293,3.82981 -10.74816,3.82981 l -0.49417,-0.98835 1.23542,-0.49415 q 6.42419,-1.35897 6.42419,-6.05357 0,-2.22375 -1.35896,-4.44751 -1.35896,-2.34729 -6.91835,-6.54773 -5.55939,-4.32396 -7.16544,-7.04189 -1.60604,-2.84146 -1.60604,-5.55938 0,-7.16544 6.05355,-11.24233 6.1771,-4.07688 9.63628,-4.07688 1.11188,0 1.11188,0.74125 l -1.23542,0.74125 q -6.67127,3.08855 -6.67127,8.5244 z M 246.2759,376.46316 q -1.11188,-2.71792 -1.11188,-7.16543 0,-1.7296 0.49417,-4.20043 -24.70839,4.81814 -30.51487,33.8505 7.41252,0 13.8367,2.22375 -0.49417,-2.59438 -0.49417,-3.95334 0,-3.58271 1.23542,-7.41251 -0.49417,-0.49417 -0.49417,-1.23542 0,-1.4825 2.10022,-1.72959 -0.74125,-0.61771 -0.74125,-1.60604 0,-1.23542 0.98833,-2.22377 1.11188,-1.11186 1.97667,-4.20042 0.61771,0 0.61771,0.98833 l -0.74125,2.59438 0.12359,0.61771 2.34731,-2.22375 v -0.61771 q 0,-1.4825 1.72958,-1.4825 l 0.98834,0.24708 q 3.08855,-2.10021 7.6596,-2.47084 z m 7.28897,3.95334 q 0,-0.74125 -1.60603,-1.60604 -1.48252,-0.98834 -4.20044,-1.35896 1.72959,4.57105 4.57105,4.57105 1.23542,0 1.23542,-1.60605 z"
               style="font-style:normal;font-variant:normal;font-weight:normal;font-stretch:normal;font-size:medium;line-height:85%;font-family:Parchment;-inkscape-font-specification:Parchment;text-align:center;letter-spacing:1.5px;word-spacing:0px;text-anchor:middle;fill:#000000;fill-opacity:1;stroke:#000000;stroke-width:0.494168"
               id="path842" /><path
               d="m 372.28873,413.89638 q 2.47084,0 4.57105,1.97667 2.10021,1.85314 2.10021,4.32398 0,2.47084 -1.85313,4.44751 -1.85313,1.85313 -4.32396,1.85313 -2.47084,0 -4.57105,-1.85313 -1.97667,-1.97667 -1.97667,-4.44751 0,-2.47084 1.85312,-4.32398 1.85313,-1.97667 4.20043,-1.97667 z m 7.6596,79.68458 q 0,2.96502 2.10022,5.68294 2.10021,2.71792 4.44751,2.71792 2.84146,0 5.3123,-2.34729 l 0.49417,0.74125 q 0,0.86479 -5.06522,4.69459 -5.06523,3.70626 -13.34254,11.24233 l -0.61771,-0.49417 q 0,-0.98834 1.48251,-2.22377 1.60604,-1.2354 1.60604,-2.59438 l -1.4825,-1.97667 q -4.32397,-4.69459 -4.32397,-9.1421 v -34.59175 q 0,-1.85313 -2.47084,-3.58273 -2.34729,-1.72959 -3.33564,-1.72959 -0.86479,0 -4.07688,2.22376 l -0.49417,-0.98834 q 13.34254,-10.25398 17.41942,-15.19566 l 0.74125,-0.74125 q 0.8648,0 0.8648,0.74125 0,0.86479 -4.57105,6.05356 0,1.35896 3.21208,3.70626 3.21209,2.22375 7.16545,3.58272 -5.06523,2.22375 -5.06523,5.06521 z"
               style="font-style:normal;font-variant:normal;font-weight:normal;font-stretch:normal;font-size:medium;line-height:85%;font-family:Parchment;-inkscape-font-specification:Parchment;text-align:center;letter-spacing:1.5px;word-spacing:0px;text-anchor:middle;fill:#000000;fill-opacity:1;stroke:#000000;stroke-width:0.494168"
               id="path844" /><path
               d="m 416.51676,455.40649 q -9.63628,7.16543 -9.63628,15.44275 0,10.62462 7.6596,10.62462 2.71793,0 8.64795,-4.69461 5.93001,-4.69459 11.61295,-4.69459 5.43584,0 8.77147,2.84147 3.33563,2.71792 3.33563,7.28898 0,4.32397 -4.32396,9.1421 -4.32397,4.69459 -15.31921,10.74816 -10.99523,5.93001 -13.96025,7.90668 -2.965,2.10021 -5.06521,5.06523 -0.61771,0 -0.61771,-0.74125 0,-0.61771 0.74125,-1.48252 0.86479,-0.86478 0.86479,-1.85313 0,-0.61771 -2.10021,-2.47083 -1.97667,-1.85313 -5.3123,-1.85313 -6.17711,0 -9.75983,6.42419 l -0.6177,0.74125 q -0.74126,0 -0.74126,-0.74125 0,-1.97667 5.55939,-7.65961 5.68294,-5.80647 13.46608,-5.80647 5.80648,0 10.13045,3.70626 l 0.98833,0.61771 1.72959,-0.98834 q 8.27732,-4.32397 10.62461,-7.90668 2.3473,-3.58273 2.3473,-7.53607 0,-4.32397 -2.59438,-6.7948 -2.47084,-2.59438 -6.54773,-2.59438 -2.96501,0 -9.01856,4.69459 -5.93003,4.69459 -10.99524,4.69459 -3.95334,0 -6.79481,-3.08855 -2.84146,-3.2121 -2.84146,-7.53606 0,-6.1771 5.43584,-12.35419 5.43585,-6.17711 19.51963,-13.58963 6.91835,-3.70625 9.63628,-7.78315 l 0.37063,-0.49416 0.49417,0.98833 q 0,0.8648 -2.22377,2.96501 -2.10021,2.10022 -2.10021,2.965 4.07689,3.45919 6.67127,3.45919 3.21209,0 6.79481,-2.47084 l 0.49417,0.74125 q 0,0.61771 -5.80647,5.80647 -5.68293,5.06522 -8.89503,5.06522 -2.96501,0 -10.62461,-6.79481 z"
               style="font-style:normal;font-variant:normal;font-weight:normal;font-stretch:normal;font-size:medium;line-height:85%;font-family:Parchment;-inkscape-font-specification:Parchment;text-align:center;letter-spacing:1.5px;word-spacing:0px;text-anchor:middle;fill:#000000;fill-opacity:1;stroke:#000000;stroke-width:0.494168"
               id="path846" /><path
               d="m 462.35083,450.09419 q 0,-10.13045 1.7296,-14.7015 1.85313,-4.57106 8.52439,-9.51273 6.67126,-4.94168 7.41253,-4.94168 l 0.49416,0.74125 -0.24708,0.49417 q -4.32398,3.95334 -5.93002,7.41251 -1.60605,3.45919 -1.60605,12.35421 v 8.15377 h 7.28899 q 1.60604,0 1.60604,1.60605 0,1.60604 -1.60604,1.60604 h -7.28899 v 20.50797 q 0,16.06046 -16.67816,26.80861 -0.98834,0.61771 -2.10022,1.23542 l -0.37062,-0.61771 0.12359,-0.86479 q 0.49417,-0.24708 2.71792,-1.60604 2.22377,-1.35898 4.07688,-5.31232 1.85314,-3.95334 1.85314,-15.07212 v -25.07902 h -5.55939 q -1.48251,0 -1.48251,-1.60604 0,-1.60605 1.48251,-1.60605 z m 25.07903,50.28159 0.49417,0.49417 q -7.78314,6.05355 -12.97191,11.36585 -5.18876,5.31232 -5.80647,5.31232 l -0.49417,-0.49417 q 2.84146,-3.21209 2.84146,-4.20044 0,-2.10021 -3.70625,-5.93001 -3.58272,-3.8298 -10.62462,-3.8298 -0.86479,0 -4.44751,2.47084 -0.86479,0 -0.86479,-0.86479 0,-0.61771 6.67126,-4.57105 6.67128,-4.0769 10.62462,-4.0769 3.08855,0 12.72482,7.16544 0.98834,0 2.84147,-1.35896 1.85313,-1.4825 2.71792,-1.4825 z"
               style="font-style:normal;font-variant:normal;font-weight:normal;font-stretch:normal;font-size:medium;line-height:85%;font-family:Parchment;-inkscape-font-specification:Parchment;text-align:center;letter-spacing:1.5px;word-spacing:0px;text-anchor:middle;fill:#000000;fill-opacity:1;stroke:#000000;stroke-width:0.494168"
               id="path848" /></g><g
             id="g902"
             transform="matrix(1,0,-0.22695036,1,-0.47260904,56)" /><g
             id="g917"
             transform="translate(7.2487794,8)" /></g></g></g><text
       xml:space="preserve"
       style="font-size:12.7px;line-height:1.25;font-family:Alegreya;-inkscape-font-specification:Alegreya;stroke-width:0.264583"
       x="38.034657"
       y="98.795364"
       id="text27367"><tspan
         sodipodi:role="line"
         id="tspan27365"
         style="font-style:normal;font-variant:normal;font-weight:bold;font-stretch:normal;font-size:12.7px;font-family:Alegreya;-inkscape-font-specification:'Alegreya Bold';stroke-width:0.264583"
         x="38.034657"
         y="98.795364">Aller en Chine</tspan></text><text
       xml:space="preserve"
       style="font-size:12.7px;line-height:1.25;font-family:Alegreya;-inkscape-font-specification:Alegreya;stroke-width:0.264583"
       x="15.908353"
       y="123.606"
       id="text27367-8"><tspan
         sodipodi:role="line"
         id="tspan27365-5"
         style="font-style:normal;font-variant:normal;font-weight:bold;font-stretch:normal;font-size:12.7px;font-family:Alegreya;-inkscape-font-specification:'Alegreya Bold';stroke-width:0.264583"
         x="15.908353"
         y="123.606">Manger des spaghettis</tspan></text><text
       xml:space="preserve"
       style="font-size:12.7px;line-height:1.25;font-family:Alegreya;-inkscape-font-specification:Alegreya;stroke-width:0.264583"
       x="38.336582"
       y="151.76773"
       id="text27367-8-5"><tspan
         sodipodi:role="line"
         id="tspan27365-5-4"
         style="font-style:normal;font-variant:normal;font-weight:bold;font-stretch:normal;font-size:12.7px;font-family:Alegreya;-inkscape-font-specification:'Alegreya Bold';stroke-width:0.264583"
         x="38.336582"
         y="151.76773">Parachutisme</tspan></text><text
       xml:space="preserve"
       style="font-size:12.7px;line-height:1.25;font-family:Alegreya;-inkscape-font-specification:Alegreya;stroke-width:0.264583"
       x="22.360855"
       y="175.29323"
       id="text27367-8-5-8"><tspan
         sodipodi:role="line"
         id="tspan27365-5-4-0"
         style="font-style:normal;font-variant:normal;font-weight:bold;font-stretch:normal;font-size:12.7px;font-family:Alegreya;-inkscape-font-specification:'Alegreya Bold';stroke-width:0.264583"
         x="22.360855"
         y="175.29323">Faire le tour du parc</tspan></text><path
       style="fill:#000000;stroke-width:1;stroke-dasharray:2, 1;paint-order:markers stroke fill"
       id="path27552"
       sodipodi:type="arc"
       sodipodi:cx="28.244444"
       sodipodi:cy="94.696564"
       sodipodi:rx="4.0145416"
       sodipodi:ry="4.0145416"
       sodipodi:start="0"
       sodipodi:end="6.2745164"
       sodipodi:open="true"
       sodipodi:arc-type="arc"
       d="m 32.258986,94.696564 a 4.0145416,4.0145416 0 0 1 -4.005842,4.014532 4.0145416,4.0145416 0 0 1 -4.023204,-3.997131 4.0145416,4.0145416 0 0 1 3.988403,-4.031858 4.0145416,4.0145416 0 0 1 4.040492,3.979655" /><path
       style="fill:#000000;stroke-width:1;stroke-dasharray:2, 1;paint-order:markers stroke fill"
       id="path27552-1"
       sodipodi:type="arc"
       sodipodi:cx="6.2096767"
       sodipodi:cy="119.75806"
       sodipodi:rx="4.0145416"
       sodipodi:ry="4.0145416"
       sodipodi:start="0"
       sodipodi:end="6.2745164"
       sodipodi:open="true"
       sodipodi:arc-type="arc"
       d="m 10.224218,119.75806 a 4.0145416,4.0145416 0 0 1 -4.0058408,4.01453 4.0145416,4.0145416 0 0 1 -4.0232044,-3.99713 4.0145416,4.0145416 0 0 1 3.9884029,-4.03186 4.0145416,4.0145416 0 0 1 4.0404923,3.97966" /><path
       style="fill:#000000;stroke-width:1;stroke-dasharray:2, 1;paint-order:markers stroke fill"
       id="path27552-7"
       sodipodi:type="arc"
       sodipodi:cx="28.032259"
       sodipodi:cy="147.79031"
       sodipodi:rx="4.0145416"
       sodipodi:ry="4.0145416"
       sodipodi:start="0"
       sodipodi:end="6.2745164"
       sodipodi:open="true"
       sodipodi:arc-type="arc"
       d="m 32.046801,147.79031 a 4.0145416,4.0145416 0 0 1 -4.005842,4.01454 4.0145416,4.0145416 0 0 1 -4.023204,-3.99714 4.0145416,4.0145416 0 0 1 3.988403,-4.03185 4.0145416,4.0145416 0 0 1 4.040492,3.97965" /><path
       style="fill:#000000;stroke-width:1;stroke-dasharray:2, 1;paint-order:markers stroke fill"
       id="path27552-8"
       sodipodi:type="arc"
       sodipodi:cx="14.016129"
       sodipodi:cy="171.3871"
       sodipodi:rx="4.0145416"
       sodipodi:ry="4.0145416"
       sodipodi:start="0"
       sodipodi:end="6.2745164"
       sodipodi:open="true"
       sodipodi:arc-type="arc"
       d="m 18.03067,171.3871 a 4.0145416,4.0145416 0 0 1 -4.005841,4.01453 4.0145416,4.0145416 0 0 1 -4.023204,-3.99713 4.0145416,4.0145416 0 0 1 3.988402,-4.03186 4.0145416,4.0145416 0 0 1 4.040492,3.97966" /></g></svg>
