<?xml version="1.0" encoding="UTF-8" standalone="no"?>
<!-- Created with Inkscape (http://www.inkscape.org/) -->

<svg
   width="180.28885mm"
   height="70.052773mm"
   viewBox="0 0 180.28885 70.052773"
   version="1.1"
   id="svg29985"
   xml:space="preserve"
   inkscape:version="1.2.2 (732a01da63, 2022-12-09)"
   sodipodi:docname="photoeditor.svg"
   xmlns:inkscape="http://www.inkscape.org/namespaces/inkscape"
   xmlns:sodipodi="http://sodipodi.sourceforge.net/DTD/sodipodi-0.dtd"
   xmlns="http://www.w3.org/2000/svg"
   xmlns:svg="http://www.w3.org/2000/svg"><sodipodi:namedview
     id="namedview29987"
     pagecolor="#505050"
     bordercolor="#eeeeee"
     borderopacity="1"
     inkscape:showpageshadow="0"
     inkscape:pageopacity="0"
     inkscape:pagecheckerboard="0"
     inkscape:deskcolor="#505050"
     inkscape:document-units="mm"
     showgrid="false"
     inkscape:zoom="0.52724989"
     inkscape:cx="256.04557"
     inkscape:cy="464.6753"
     inkscape:window-width="1920"
     inkscape:window-height="1017"
     inkscape:window-x="-8"
     inkscape:window-y="-8"
     inkscape:window-maximized="1"
     inkscape:current-layer="layer1" /><defs
     id="defs29982" /><g
     inkscape:label="Layer 1"
     inkscape:groupmode="layer"
     id="layer1"
     transform="translate(-2.6939615,-3.6763059)"><g
       id="g30481"
       transform="matrix(3.1829781,0,0,3.1829781,-3.9065025,-14.869909)">

<path
   class="st0"
   d="m 17.3,24.5 c -4.7,0 -7.7,-1.1 -9.6,-2.6 0.4,-0.1 0.8,-0.3 1.2,-0.6 0.8,-0.8 1,-1.9 0.9,-2.9 0,-0.2 -0.1,-0.4 -0.1,-0.6 0.2,0 0.4,0.1 0.6,0.1 0.9,0 1.7,-0.4 2.3,-1 0.6,1.1 1.8,1.9 3.2,1.9 1.7,0 3.2,-1.2 3.5,-2.9 0,-0.2 0.1,-0.5 0.1,-0.7 0,-0.4 -0.1,-0.8 -0.2,-1.2 -0.5,-1.4 -1.8,-2.4 -3.4,-2.4 -0.9,0 -1.8,0.3 -2.4,0.9 -0.2,0.2 -0.4,0.4 -0.6,0.7 C 12.6,13 12.4,12.7 12.2,12.6 11.7,12.2 11,11.9 10.3,11.9 8.8,11.9 7.5,13 7.3,14.5 7,14.3 6.8,14.1 6.5,14 6.7,13.2 7.2,12.4 7.8,11.9 V 8.1 C 7.8,7.8 8.1,7.7 8.2,8 v 0.1 c 0.4,0.9 0.9,2.1 2,3 0.9,0 1.8,0.3 2.4,0.9 0.8,-0.7 1.9,-1.2 3,-1.2 1.2,0 2.3,0.5 3.1,1.2 3.8,-1.1 5.8,-3.6 6.8,-5.6 0.1,-0.3 0.7,-0.2 0.7,0.1 0.6,5.9 0.3,12 -2.5,15.4 -1,-0.7 -2,-1.2 -2.7,-1.6 -0.1,0 -0.1,-0.1 -0.2,-0.1 0,-0.1 0,-0.2 0,-0.2 v 0 c -0.2,-0.6 -0.7,-1.2 -1.4,-1.4 v 0 c -0.2,-0.1 -0.5,0 -0.5,0.3 -0.1,0.2 0,0.5 0.3,0.5 v 0 c 0,0 0.1,0 0.1,0 -1.7,1.1 -3.7,1.6 -5.8,1.5 H 13 c -0.2,0 -0.4,0.2 -0.5,0.4 0,0.2 0.2,0.4 0.4,0.5 h 0.5 c 1.8,0.1 3.7,-0.2 5.3,-1 0,0 0,0 0,0 0.1,0.1 0.2,0.3 0.3,0.4 0.2,0.2 0.5,0.5 0.9,0.8 0.5,0.5 1.2,1 2,1.6 -1.2,0.5 -2.7,0.9 -4.6,0.9 z"
   id="path30471" />

<path
   class="st0"
   d="m 22.5,23 c -1.2,-0.9 -2.2,-1.7 -2.8,-2.2 -0.1,-0.1 -0.1,-0.1 -0.2,-0.2 -0.1,-0.2 -0.2,-0.3 -0.3,-0.4 0,-0.1 0,-0.1 0,-0.1 0,0 0.1,-0.1 0.2,0 0.1,0 0.2,0.1 0.3,0.1 0.1,0 0.1,0.1 0.2,0.1 0.7,0.3 2,1 3.3,1.9 0.2,0.1 0.4,0.3 0.6,0.4 1.1,0.7 2,1.5 2.7,2 1.2,-1.3 2.7,2.2 2.7,2.2 0,0 -3.8,0.4 -3.1,-1.4 C 25.3,25 24.3,24.3 23.2,23.6 23,23.4 22.7,23.2 22.5,23 Z"
   id="path30473" />

<path
   class="st1"
   d="M 8.5,20.4 C 8.4,20.5 8.3,20.6 8.2,20.7 7.1,21.7 5,21.2 3.5,19.5 2,17.8 1.6,15.7 2.7,14.7 3.6,14 5,14.1 6.3,14.9 c 0.3,0.2 0.7,0.5 1,0.8 0.1,0.1 0.2,0.2 0.3,0.3 0.4,0.5 0.8,1 1,1.5 0.3,0.7 0.4,1.4 0.4,2 -0.1,0.3 -0.2,0.6 -0.5,0.9 z M 5.2,16.2 C 5.2,17 4.7,17.6 4,17.6 3.3,17.6 2.8,17 2.8,16.2 c 0,-0.8 0.5,-1.4 1.2,-1.4 0.7,0 1.2,0.6 1.2,1.4 z"
   id="path30475" />

<path
   class="st0"
   d="m 10.9,16.8 c 1,0 1.7,-0.8 1.7,-1.7 0,-1 -0.8,-1.7 -1.7,-1.7 -0.1,0 -0.3,0 -0.4,0 0.4,0.1 0.7,0.5 0.7,1 0,0.6 -0.5,1 -1,1 -0.4,0 -0.8,-0.3 -1,-0.7 0,0.1 0,0.3 0,0.4 0,0.9 0.8,1.7 1.7,1.7 z"
   id="path30477" />

<path
   class="st0"
   d="m 16.4,17.6 c 1.1,0 2,-0.9 2,-2 0,-1.1 -0.9,-2 -2,-2 -0.1,0 -0.2,0 -0.3,0 0.5,0.1 0.9,0.6 0.9,1.1 0,0.6 -0.5,1.2 -1.2,1.2 -0.6,0 -1.2,-0.5 -1.2,-1.2 0,-0.1 0,-0.1 0,-0.2 -0.2,0.3 -0.3,0.7 -0.3,1.1 0.1,1.1 1,2 2.1,2 z"
   id="path30479" />

</g><g
       id="g30509"
       transform="matrix(2.5660357,0,0,2.5660357,106.00174,-2.353878)"><path
         d="M 3.167,3.517 H 28.833 V 28.483 H 3.167 Z"
         style="fill:#0c0824"
         id="path30497" /><path
         d="M 3.167,3.517 H 28.833 V 28.483 H 3.167 Z M 2,29.65 H 30 V 2.35 H 2 Z m 18.877,-16.1 c -0.922,0 -1.237,0.467 -1.237,0.852 0,0.42 0.21,0.712 1.447,1.353 1.832,0.887 2.4,1.738 2.4,2.987 0,1.867 -1.423,2.87 -3.348,2.87 a 5.076,5.076 0 0 1 -2.392,-0.5 c -0.082,-0.035 -0.093,-0.093 -0.093,-0.187 v -1.717 c 0,-0.117 0.058,-0.152 0.14,-0.093 a 4.33,4.33 0 0 0 2.345,0.688 c 0.922,0 1.307,-0.385 1.307,-0.91 0,-0.42 -0.268,-0.793 -1.447,-1.4 -1.657,-0.793 -2.345,-1.6 -2.345,-2.94 0,-1.505 1.178,-2.753 3.22,-2.753 a 5.365,5.365 0 0 1 2.088,0.327 0.258,0.258 0 0 1 0.117,0.233 v 1.6 c 0,0.093 -0.058,0.152 -0.175,0.117 a 3.941,3.941 0 0 0 -2.03,-0.525 z m -10.034,1.388 c 0.268,0.023 0.478,0.023 0.945,0.023 1.365,0 2.648,-0.478 2.648,-2.333 0,-1.482 -0.922,-2.228 -2.473,-2.228 -0.467,0 -0.91,0.023 -1.12,0.035 z m -2.077,-6.2 c 0,-0.082 0.163,-0.14 0.257,-0.14 0.747,-0.035 1.855,-0.058 3.01,-0.058 3.232,0 4.492,1.773 4.492,4.037 0,2.963 -2.147,4.235 -4.783,4.235 -0.443,0 -0.595,-0.023 -0.91,-0.023 v 4.48 c 0,0.093 -0.035,0.14 -0.14,0.14 H 8.907 c -0.093,0 -0.14,-0.035 -0.14,-0.14 V 8.743 Z"
         style="fill:#31c5f0"
         id="path30499" /></g></g><style
     type="text/css"
     id="style30469">
	.st0{fill:#030708;}
	.st1{fill-rule:evenodd;clip-rule:evenodd;fill:#030708;}
</style></svg>
