<?xml version="1.0" encoding="UTF-8" standalone="no"?>
<!-- Created with Inkscape (http://www.inkscape.org/) -->

<svg
   width="476.30386mm"
   height="55.512886mm"
   viewBox="0 0 476.30386 55.512886"
   version="1.1"
   id="svg12384"
   xml:space="preserve"
   inkscape:version="1.2.2 (732a01da63, 2022-12-09)"
   sodipodi:docname="typeface.svg"
   xmlns:inkscape="http://www.inkscape.org/namespaces/inkscape"
   xmlns:sodipodi="http://sodipodi.sourceforge.net/DTD/sodipodi-0.dtd"
   xmlns="http://www.w3.org/2000/svg"
   xmlns:svg="http://www.w3.org/2000/svg"><sodipodi:namedview
     id="namedview12386"
     pagecolor="#505050"
     bordercolor="#eeeeee"
     borderopacity="1"
     inkscape:showpageshadow="0"
     inkscape:pageopacity="0"
     inkscape:pagecheckerboard="0"
     inkscape:deskcolor="#505050"
     inkscape:document-units="mm"
     showgrid="false"
     showguides="false"
     inkscape:zoom="0.74564393"
     inkscape:cx="806.01474"
     inkscape:cy="-57.668276"
     inkscape:window-width="1920"
     inkscape:window-height="1017"
     inkscape:window-x="-8"
     inkscape:window-y="-8"
     inkscape:window-maximized="1"
     inkscape:current-layer="layer1" /><defs
     id="defs12381"><inkscape:path-effect
       effect="bspline"
       id="path-effect16282"
       is_visible="true"
       lpeversion="1"
       weight="33.333333"
       steps="2"
       helper_size="0"
       apply_no_weight="true"
       apply_with_weight="true"
       only_selected="false" /><inkscape:path-effect
       effect="bspline"
       id="path-effect16278"
       is_visible="true"
       lpeversion="1"
       weight="33.333333"
       steps="2"
       helper_size="0"
       apply_no_weight="true"
       apply_with_weight="true"
       only_selected="false" /><inkscape:path-effect
       effect="bspline"
       id="path-effect15548"
       is_visible="true"
       lpeversion="1"
       weight="33.333333"
       steps="2"
       helper_size="0"
       apply_no_weight="true"
       apply_with_weight="true"
       only_selected="false" /><inkscape:path-effect
       effect="bspline"
       id="path-effect15544"
       is_visible="true"
       lpeversion="1"
       weight="33.333333"
       steps="2"
       helper_size="0"
       apply_no_weight="true"
       apply_with_weight="true"
       only_selected="false" /><inkscape:path-effect
       effect="bspline"
       id="path-effect15064"
       is_visible="true"
       lpeversion="1"
       weight="33.333333"
       steps="2"
       helper_size="0"
       apply_no_weight="true"
       apply_with_weight="true"
       only_selected="false" /></defs><g
     inkscape:label="Layer 1"
     inkscape:groupmode="layer"
     id="layer1"
     transform="translate(-4.3467719,-106.09604)"><path
       style="fill:#db290e;fill-opacity:1;stroke:#a8a9ac;stroke-width:0.7;stroke-opacity:1;paint-order:markers stroke fill"
       d="m 5.6974143,149.3947 c 102.8728957,0 205.7455257,0 308.6178857,0"
       id="path16276"
       inkscape:path-effect="#path-effect16278"
       inkscape:original-d="m 5.6974143,149.3947 c 102.8728957,2.6e-4 205.7455257,2.6e-4 308.6178857,0" /><path
       style="fill:#db290e;fill-opacity:1;stroke:#a8a9ac;stroke-width:0.7;stroke-opacity:1;paint-order:markers stroke fill"
       d="m 5.5199949,159.84155 c 92.0001791,0 184.0000951,0 275.9997351,0"
       id="path16280"
       inkscape:path-effect="#path-effect16282"
       inkscape:original-d="m 5.5199949,159.84155 c 92.0001791,2.6e-4 184.0000951,2.6e-4 275.9997351,0" /><path
       style="fill:#db290e;fill-opacity:1;stroke:#a8a9ac;stroke-width:0.7;stroke-opacity:1;paint-order:markers stroke fill"
       d="m 4.6418122,120.68716 c 112.4203678,0 224.8404878,0 337.2603178,0"
       id="path15546"
       inkscape:path-effect="#path-effect15548"
       inkscape:original-d="m 4.6418122,120.68716 c 112.4203678,2.6e-4 224.8404878,2.6e-4 337.2603178,0"
       sodipodi:nodetypes="cc" /><path
       style="fill:#db290e;fill-opacity:1;stroke:#a8a9ac;stroke-width:0.7;stroke-opacity:1;paint-order:markers stroke fill"
       d="m 4.3467719,110.17742 c 61.7219591,0 123.4436481,0 185.1650681,0"
       id="path15542"
       inkscape:path-effect="#path-effect15544"
       inkscape:original-d="m 4.3467719,110.17742 c 61.7219591,2.6e-4 123.4436481,2.6e-4 185.1650681,0"
       sodipodi:nodetypes="cc" /><path
       style="fill:#db290e;fill-opacity:1;stroke:#a8a9ac;stroke-width:0.7;stroke-opacity:1;paint-order:markers stroke fill"
       d="m 4.4265681,112.12903 c 106.0906719,0 212.1810719,0 318.2712119,0"
       id="path15062"
       inkscape:path-effect="#path-effect15064"
       inkscape:original-d="m 4.4265681,112.12903 c 106.0906719,2.6e-4 212.1810719,2.6e-4 318.2712119,0"
       sodipodi:nodetypes="cc" /><g
       aria-label="Le abc-xyz"
       id="text12519"
       style="font-size:50.8px;font-family:monospace;-inkscape-font-specification:monospace;fill:#db290e;stroke-width:0.264583"><path
         d="m 9.7128328,112.11399 h 5.0353512 v 32.8166 h 17.88418 v 4.21679 H 9.7128328 Z"
         id="path10083" /><path
         d="m 62.546816,134.11574 v 2.23243 H 42.77748 v 0.14882 q 0,4.53926 2.356446,7.01973 2.38125,2.48047 6.697265,2.48047 2.182813,0 4.564063,-0.69453 2.38125,-0.69453 5.084961,-2.1084 v 4.53926 q -2.604493,1.0666 -5.035352,1.5875 -2.406055,0.5457 -4.663281,0.5457 -6.474023,0 -10.120312,-3.86953 -3.646289,-3.89434 -3.646289,-10.71563 0,-6.64765 3.571875,-10.6164 3.571874,-3.96875 9.524999,-3.96875 5.308203,0 8.35918,3.59668 3.075781,3.59668 3.075781,9.82265 z m -4.564062,-1.33945 q -0.09922,-4.01836 -1.909961,-6.10195 -1.785938,-2.1084 -5.159375,-2.1084 -3.299024,0 -5.432227,2.18281 -2.133203,2.18281 -2.530078,6.05235 z"
         id="path10085" /><path
         d="m 113.54525,135.18235 h -1.51309 q -3.99355,0 -6.02754,1.41386 -2.00918,1.38907 -2.00918,4.16719 0,2.50527 1.51309,3.89434 1.51309,1.38906 4.19199,1.38906 3.77031,0 5.92832,-2.60449 2.15801,-2.6293 2.18281,-7.24297 v -1.01699 z m 8.85527,-1.88516 v 15.85019 h -4.58887 v -4.11757 q -1.46347,2.48047 -3.69589,3.67109 -2.20762,1.16582 -5.38262,1.16582 -4.2416,0 -6.77168,-2.38125 -2.530079,-2.40605 -2.530079,-6.42441 0,-4.63848 3.100589,-7.04453 3.12539,-2.40606 9.15293,-2.40606 h 6.12675 v -0.71934 q -0.0248,-3.32382 -1.68671,-4.8121 -1.66192,-1.51309 -5.30821,-1.51309 -2.33164,0 -4.71289,0.66973 -2.38125,0.66972 -4.63847,1.95957 v -4.56407 q 2.53007,-0.96738 4.83691,-1.43867 2.33164,-0.49609 4.51445,-0.49609 3.44785,0 5.87871,1.01699 2.45567,1.01699 3.96875,3.05098 0.94258,1.24023 1.33946,3.07578 0.39687,1.81074 0.39687,5.45703 z"
         id="path10087" /><path
         d="m 149.48724,135.28156 q 0,-5.3082 -1.68672,-8.01191 -1.68671,-2.70371 -4.98574,-2.70371 -3.32383,0 -5.03535,2.72852 -1.71152,2.70371 -1.71152,7.9871 0,5.2586 1.71152,7.98711 1.71152,2.72852 5.03535,2.72852 3.29903,0 4.98574,-2.70371 1.68672,-2.70371 1.68672,-8.01192 z m -13.41933,-10.36835 q 1.0914,-2.03399 3.00137,-3.1254 1.93476,-1.0914 4.46484,-1.0914 5.01055,0 7.88789,3.86953 2.87734,3.84473 2.87734,10.61641 0,6.87089 -2.90215,10.79003 -2.87734,3.89434 -7.91269,3.89434 -2.48047,0 -4.39043,-1.0666 -1.88516,-1.09141 -3.02617,-3.1502 v 3.49746 h -4.56406 v -38.59609 h 4.56406 z"
         id="path10089" /><path
         d="m 183.6185,147.73352 q -1.83555,1.0666 -3.79512,1.5875 -1.93477,0.5457 -3.96875,0.5457 -6.44922,0 -10.09551,-3.86953 -3.62148,-3.86953 -3.62148,-10.71563 0,-6.84609 3.62148,-10.71562 3.64629,-3.86953 10.09551,-3.86953 2.00918,0 3.91914,0.5209 1.90996,0.5209 3.84473,1.6123 v 4.78731 q -1.81075,-1.61231 -3.64629,-2.33164 -1.81074,-0.71934 -4.11758,-0.71934 -4.29121,0 -6.59805,2.77812 -2.30683,2.77813 -2.30683,7.9375 0,5.13457 2.30683,7.9375 2.33164,2.77813 6.59805,2.77813 2.38125,0 4.26641,-0.71934 1.88515,-0.74414 3.49746,-2.28203 z"
         id="path10091" /><path
         d="m 196.71536,133.19797 h 12.92324 v 4.06797 h -12.92324 z"
         id="path10093" /><path
         d="m 246.20071,121.36614 -9.94668,13.29531 10.91407,14.48593 h -5.2834 l -8.13594,-11.1373 -8.11113,11.1373 h -5.2834 l 10.91406,-14.48593 -9.94668,-13.29531 h 5.06016 l 7.36699,10.04589 7.31738,-10.04589 z"
         id="path10095" /><path
         d="m 270.33568,140.2177 q -1.14102,2.90215 -2.90215,7.63984 -2.45566,6.54844 -3.29902,7.98711 -1.14102,1.93477 -2.85254,2.90215 -1.71153,0.96738 -3.99356,0.96738 h -3.67109 v -3.81992 h 2.70371 q 2.00918,0 3.1502,-1.16582 1.14101,-1.16582 2.90214,-6.02754 l -10.74043,-27.33476 h 4.83692 l 8.23515,21.7289 8.11114,-21.7289 h 4.83691 z"
         id="path10097" /><path
         d="m 285.26809,121.31653 h 20.16621 v 4.16718 l -15.94942,19.94297 h 15.94942 v 3.7207 h -20.76152 v -4.21679 l 15.94941,-19.96778 h -15.3541 z"
         id="path10099" /></g><text
       xml:space="preserve"
       style="font-size:6.35px;line-height:1.25;font-family:Bahnschrift;-inkscape-font-specification:Bahnschrift;fill:#4b9c86;fill-opacity:1;stroke-width:0.264583"
       x="190.69073"
       y="110.6508"
       id="text17012"><tspan
         sodipodi:role="line"
         id="tspan17010"
         style="font-size:6.35px;fill:#4b9c86;fill-opacity:1;stroke-width:0.264583"
         x="190.69073"
         y="110.6508">ASCENDER -  au-dessus du CAP HEIGHT</tspan></text><text
       xml:space="preserve"
       style="font-size:6.35px;line-height:1.25;font-family:Bahnschrift;-inkscape-font-specification:Bahnschrift;fill:#4b9c86;fill-opacity:1;stroke-width:0.264583"
       x="323.05869"
       y="113.96279"
       id="text17012-4"
       inkscape:transform-center-x="86.580645"
       inkscape:transform-center-y="-3.5483871"><tspan
         sodipodi:role="line"
         id="tspan17010-2"
         style="font-size:6.35px;fill:#4b9c86;fill-opacity:1;stroke-width:0.264583"
         x="323.05869"
         y="113.96279">CAP HEIGHT - sommet de la lettre plate</tspan></text><text
       xml:space="preserve"
       style="font-size:6.35px;line-height:1.25;font-family:Bahnschrift;-inkscape-font-specification:Bahnschrift;fill:#4b9c86;fill-opacity:1;stroke-width:0.264583"
       x="343.25986"
       y="122.26832"
       id="text17012-4-7"
       inkscape:transform-center-x="86.580645"
       inkscape:transform-center-y="-3.5483871"><tspan
         sodipodi:role="line"
         id="tspan17010-2-0"
         style="font-size:6.35px;fill:#4b9c86;fill-opacity:1;stroke-width:0.264583"
         x="343.25986"
         y="122.26832">X-Height</tspan></text><text
       xml:space="preserve"
       style="font-size:6.35px;line-height:1.25;font-family:Bahnschrift;-inkscape-font-specification:Bahnschrift;fill:#4b9c86;fill-opacity:1;stroke-width:0.264583"
       x="315.88239"
       y="151.34184"
       id="text17012-4-7-2"
       inkscape:transform-center-x="86.580645"
       inkscape:transform-center-y="-3.5483871"><tspan
         sodipodi:role="line"
         id="tspan17010-2-0-7"
         style="font-size:6.35px;fill:#4b9c86;fill-opacity:1;stroke-width:0.264583"
         x="315.88239"
         y="151.34184">BASELINE - Lignes sur lesquelles les lettres sont placées</tspan></text><text
       xml:space="preserve"
       style="font-size:6.35px;line-height:1.25;font-family:Bahnschrift;-inkscape-font-specification:Bahnschrift;fill:#4b9c86;fill-opacity:1;stroke-width:0.264583"
       x="282.66013"
       y="161.55312"
       id="text17012-4-7-2-2"
       inkscape:transform-center-x="86.580645"
       inkscape:transform-center-y="-3.5483871"><tspan
         sodipodi:role="line"
         id="tspan17010-2-0-7-8"
         style="font-size:6.35px;fill:#4b9c86;fill-opacity:1;stroke-width:0.264583"
         x="282.66013"
         y="161.55312">DESCENDER - en dossous de la BASELINE</tspan></text></g></svg>
