<?xml version="1.0" encoding="UTF-8" standalone="no"?>
<!-- Created with Inkscape (http://www.inkscape.org/) -->

<svg
   width="449.54816mm"
   height="128.46533mm"
   viewBox="0 0 449.54815 128.46533"
   version="1.1"
   id="svg20036"
   xml:space="preserve"
   inkscape:version="1.2.2 (732a01da63, 2022-12-09)"
   sodipodi:docname="formprocess.svg"
   xmlns:inkscape="http://www.inkscape.org/namespaces/inkscape"
   xmlns:sodipodi="http://sodipodi.sourceforge.net/DTD/sodipodi-0.dtd"
   xmlns="http://www.w3.org/2000/svg"
   xmlns:svg="http://www.w3.org/2000/svg"><sodipodi:namedview
     id="namedview20038"
     pagecolor="#505050"
     bordercolor="#eeeeee"
     borderopacity="1"
     inkscape:showpageshadow="0"
     inkscape:pageopacity="0"
     inkscape:pagecheckerboard="0"
     inkscape:deskcolor="#505050"
     inkscape:document-units="mm"
     showgrid="false"
     inkscape:zoom="1.0544998"
     inkscape:cx="1384.0686"
     inkscape:cy="275.96023"
     inkscape:window-width="1920"
     inkscape:window-height="1017"
     inkscape:window-x="-8"
     inkscape:window-y="-8"
     inkscape:window-maximized="1"
     inkscape:current-layer="layer1" /><defs
     id="defs20033"><inkscape:path-effect
       effect="powerclip"
       id="path-effect45598"
       is_visible="true"
       lpeversion="1"
       inverse="true"
       flatten="false"
       hide_clip="false"
       message="Use fill-rule evenodd on &lt;b&gt;fill and stroke&lt;/b&gt; dialog if no flatten result after convert clip to paths." /><inkscape:path-effect
       effect="bspline"
       id="path-effect45391"
       is_visible="true"
       lpeversion="1"
       weight="33.333333"
       steps="2"
       helper_size="0"
       apply_no_weight="true"
       apply_with_weight="true"
       only_selected="false" /><clipPath
       clipPathUnits="userSpaceOnUse"
       id="clipPath45594"><path
         id="path45596"
         style="display:none;fill:#c7c7c7;fill-opacity:1;stroke:#db290e;stroke-width:0.756923;stroke-dasharray:none;stroke-opacity:1;paint-order:markers stroke fill"
         d="m -10.860153,26.936179 v 31.60495 h 52.041996 a 150.84953,150.84953 0 0 0 -52.041996,-31.60495 z" /><path
         id="lpe_path-effect45598"
         style="fill:#c7c7c7;fill-opacity:1;stroke:#db290e;stroke-width:0.756923;stroke-dasharray:none;stroke-opacity:1;paint-order:markers stroke fill"
         class="powerclip"
         d="M -14.72603,21.688271 H 45.708389 V 62.401944 H -14.72603 Z m 3.865877,5.247908 v 31.60495 h 52.041996 a 150.84953,150.84953 0 0 0 -52.041996,-31.60495 z" /></clipPath><clipPath
       clipPathUnits="userSpaceOnUse"
       id="clipPath45594-6"><path
         id="path45596-6"
         style="display:none;fill:#c7c7c7;fill-opacity:1;stroke:#db290e;stroke-width:0.756923;stroke-dasharray:none;stroke-opacity:1;paint-order:markers stroke fill"
         d="m -10.860153,26.936179 v 31.60495 h 52.041996 a 150.84953,150.84953 0 0 0 -52.041996,-31.60495 z" /><path
         id="lpe_path-effect45598-0"
         style="fill:#c7c7c7;fill-opacity:1;stroke:#db290e;stroke-width:0.756923;stroke-dasharray:none;stroke-opacity:1;paint-order:markers stroke fill"
         class="powerclip"
         d="M -14.72603,21.688271 H 45.708389 V 62.401944 H -14.72603 Z m 3.865877,5.247908 v 31.60495 h 52.041996 a 150.84953,150.84953 0 0 0 -52.041996,-31.60495 z" /></clipPath><inkscape:path-effect
       effect="powerclip"
       id="path-effect45598-2"
       is_visible="true"
       lpeversion="1"
       inverse="true"
       flatten="false"
       hide_clip="false"
       message="Use fill-rule evenodd on &lt;b&gt;fill and stroke&lt;/b&gt; dialog if no flatten result after convert clip to paths." /><clipPath
       clipPathUnits="userSpaceOnUse"
       id="clipath_lpe_path-effect45598-2"><path
         id="path45735"
         style="display:none;fill:#c7c7c7;fill-opacity:1;stroke:#db290e;stroke-width:0.756923;stroke-dasharray:none;stroke-opacity:1;paint-order:markers stroke fill"
         d="m -10.860153,26.936179 v 31.60495 h 52.041996 a 150.84953,150.84953 0 0 0 -52.041996,-31.60495 z" /><path
         id="lpe_path-effect45598-2"
         style="fill:#c7c7c7;fill-opacity:1;stroke:#db290e;stroke-width:0.756923;stroke-dasharray:none;stroke-opacity:1;paint-order:markers stroke fill"
         class="powerclip"
         d="M -14.72603,21.688271 H 45.708389 V 62.401944 H -14.72603 Z m 3.865877,5.247908 v 31.60495 h 52.041996 a 150.84953,150.84953 0 0 0 -52.041996,-31.60495 z" /></clipPath></defs><g
     inkscape:label="Layer 1"
     inkscape:groupmode="layer"
     id="layer1"
     transform="translate(162.58894,6.2727205)"><path
       id="path45448"
       style="fill:none;fill-opacity:1;stroke:#db290e;stroke-width:0.7;stroke-dasharray:none;stroke-opacity:1;paint-order:markers stroke fill"
       d="m -9.3580052,27.191105 1.034999,29.22819 48.1283282,0.620968 C 25.91597,44.127495 8.504665,33.561245 -9.3580052,27.191105 Z"
       clip-path="url(#clipPath45594)"
       inkscape:path-effect="#path-effect45598"
       inkscape:original-d="m -9.3580052,27.191105 1.034999,29.22819 48.1283282,0.620968 C 25.91597,44.127495 8.504665,33.561245 -9.3580052,27.191105 Z"
       sodipodi:nodetypes="cccc" /><path
       id="path45448-3"
       style="fill:none;fill-opacity:1;stroke:#db290e;stroke-width:0.7;stroke-dasharray:none;stroke-opacity:1;paint-order:markers stroke fill"
       d="m -9.3580052,27.191105 1.034999,29.22819 48.1283282,0.620968 C 25.91597,44.127495 8.504665,33.561245 -9.3580052,27.191105 Z"
       clip-path="url(#clipath_lpe_path-effect45598-2)"
       inkscape:path-effect="#path-effect45598-2"
       inkscape:original-d="m -9.3580052,27.191105 1.034999,29.22819 48.1283282,0.620968 C 25.91597,44.127495 8.504665,33.561245 -9.3580052,27.191105 Z"
       sodipodi:nodetypes="cccc"
       transform="matrix(-1,0,0,1,160.76741,-0.14332804)" /><rect
       style="fill:#dcd7d4;fill-opacity:1;stroke:none;stroke-width:0.7;stroke-dasharray:1.4, 0.7;paint-order:markers stroke fill"
       id="rect20584"
       width="154.05803"
       height="121.9417"
       x="-162.58894"
       y="0.25090924" /><rect
       style="fill:#dcd7d4;fill-opacity:1;stroke:none;stroke-width:0.279461;stroke-dasharray:0.558922, 0.279461;paint-order:markers stroke fill"
       id="rect20584-1"
       width="116.44512"
       height="25.713568"
       x="170.51408"
       y="9.7854481" /><text
       xml:space="preserve"
       style="font-size:8.46667px;line-height:1.25;font-family:Bahnschrift;-inkscape-font-specification:Bahnschrift;white-space:pre;inline-size:123.658;display:inline;stroke-width:0.264583"
       x="98.35627"
       y="10.036354"
       id="text21936"
       transform="translate(-239.36705,7.025448)"><tspan
         x="98.35627"
         y="10.036354"
         id="tspan57423">Votez pour votre musicien de </tspan><tspan
         x="98.35627"
         y="20.619692"
         id="tspan57425">jazz préféré de tous les temps</tspan></text><text
       xml:space="preserve"
       style="font-size:6.35px;line-height:1.25;font-family:Bahnschrift;-inkscape-font-specification:Bahnschrift;white-space:pre;inline-size:123.658;display:inline;stroke-width:0.264583"
       x="98.35627"
       y="10.036354"
       id="text21936-5"
       transform="translate(-248.23473,40.048294)"><tspan
         x="98.35627"
         y="10.036354"
         id="tspan57427">Nom d'utilisateur:</tspan></text><text
       xml:space="preserve"
       style="font-size:6.35px;line-height:1.25;font-family:Bahnschrift;-inkscape-font-specification:Bahnschrift;white-space:pre;inline-size:66.1999;display:inline;stroke-width:0.264583"
       x="98.35627"
       y="10.036354"
       id="text21936-5-1"
       transform="translate(-91.804301,4.7353094)"><tspan
         x="98.35627"
         y="10.036354"
         id="tspan57429">Le nom de chaque </tspan><tspan
         x="98.35627"
         y="17.973854"
         id="tspan57431">contrôle de formulaire </tspan><tspan
         x="98.35627"
         y="25.911354"
         id="tspan57433">est envoyé</tspan></text><text
       xml:space="preserve"
       style="font-size:6.35px;line-height:1.25;font-family:Bahnschrift;-inkscape-font-specification:Bahnschrift;white-space:pre;inline-size:110.611;display:inline;stroke-width:0.264583"
       x="98.35627"
       y="10.036354"
       id="text21936-5-1-0"
       transform="translate(-74.062147,58.407613)"><tspan
         x="98.35627"
         y="10.036354"
         id="tspan57435">Le serveur traite l'information à l'aide </tspan><tspan
         x="98.35627"
         y="17.973854"
         id="tspan57437">d'un langage de programmation tel </tspan><tspan
         x="98.35627"
         y="25.911354"
         id="tspan57439">que PHP, C#, VB.net, ou Java. Il peut </tspan><tspan
         x="98.35627"
         y="33.848854"
         id="tspan57441">également stocker les informations </tspan><tspan
         x="98.35627"
         y="41.786352"
         id="tspan57443">dans une base de données.</tspan></text><text
       xml:space="preserve"
       style="font-size:6.35px;line-height:1.25;font-family:Bahnschrift;-inkscape-font-specification:Bahnschrift;white-space:pre;inline-size:55.1949;display:inline;stroke-width:0.264583"
       x="98.35627"
       y="10.036354"
       id="text21936-5-1-0-4"
       transform="translate(3.2660601,11.444608)"><tspan
         x="98.35627"
         y="10.036354"
         id="tspan57445">Le serveur crée </tspan><tspan
         x="98.35627"
         y="17.973854"
         id="tspan57447">une nouvelle page</tspan></text><text
       xml:space="preserve"
       style="font-size:6.35px;line-height:1.25;font-family:Bahnschrift;-inkscape-font-specification:Bahnschrift;white-space:pre;inline-size:129.711;display:inline;stroke-width:0.264583"
       x="98.35627"
       y="10.036354"
       id="text21936-5-1-0-4-8"
       transform="translate(59.002967,53.143229)"><tspan
         x="98.35627"
         y="10.036354"
         id="tspan57449">Le serveur doit savoir quelle donnée saisie </tspan><tspan
         x="98.35627"
         y="17.973854"
         id="tspan57451">correspond à quel élément du formulaire.</tspan></text><text
       xml:space="preserve"
       style="font-size:6.35px;line-height:1.25;font-family:Bahnschrift;-inkscape-font-specification:Bahnschrift;white-space:pre;inline-size:132.372;display:inline;stroke-width:0.264583"
       x="98.35627"
       y="10.036354"
       id="text21936-5-1-0-4-6"
       transform="translate(77.870302,9.5072446)"><tspan
         x="98.35627"
         y="10.036354"
         id="tspan57453">Merci, Ivy !
</tspan><tspan
         x="98.35627"
         y="17.973854"
         id="tspan57455">Vous avez voté pour Herbie Hancock!</tspan></text><text
       xml:space="preserve"
       style="font-size:6.35px;line-height:1.25;font-family:Bahnschrift;-inkscape-font-specification:Bahnschrift;white-space:pre;inline-size:123.658;display:inline;stroke-width:0.264583"
       x="98.35627"
       y="10.036354"
       id="text21936-5-5"
       transform="translate(-248.84168,56.691166)"><tspan
         x="98.35627"
         y="10.036354"
         id="tspan57457">Je vote pour:</tspan></text><text
       xml:space="preserve"
       style="font-size:6.35px;line-height:1.25;font-family:Bahnschrift;-inkscape-font-specification:Bahnschrift;white-space:pre;inline-size:123.658;display:inline;stroke-width:0.264583"
       x="98.35627"
       y="10.036354"
       id="text21936-5-5-6"
       transform="translate(-179.4688,57.462678)"><tspan
         x="98.35627"
         y="10.036354"
         id="tspan57459">Elle Fitzgerald</tspan></text><text
       xml:space="preserve"
       style="font-size:6.35px;line-height:1.25;font-family:Bahnschrift;-inkscape-font-specification:Bahnschrift;white-space:pre;inline-size:123.658;display:inline;stroke-width:0.264583"
       x="98.35627"
       y="10.036354"
       id="text21936-5-5-6-9"
       transform="translate(-179.4688,65.645237)"><tspan
         x="98.35627"
         y="10.036354"
         id="tspan57461">Herbie Hancock</tspan></text><text
       xml:space="preserve"
       style="font-size:6.35px;line-height:1.25;font-family:Bahnschrift;-inkscape-font-specification:Bahnschrift;white-space:pre;inline-size:123.658;display:inline;stroke-width:0.264583"
       x="98.35627"
       y="10.036354"
       id="text21936-5-5-6-2"
       transform="translate(-179.00371,72.565857)"><tspan
         x="98.35627"
         y="10.036354"
         id="tspan57463">John Coltran</tspan></text><text
       xml:space="preserve"
       style="font-size:6.35px;line-height:1.25;font-family:Bahnschrift;-inkscape-font-specification:Bahnschrift;white-space:pre;inline-size:123.658;display:inline;stroke-width:0.264583"
       x="98.35627"
       y="10.036354"
       id="text21936-5-5-6-7"
       transform="translate(-179.4688,79.486477)"><tspan
         x="98.35627"
         y="10.036354"
         id="tspan57465">Miles Davis</tspan></text><text
       xml:space="preserve"
       style="font-size:6.35px;line-height:1.25;font-family:Bahnschrift;-inkscape-font-specification:Bahnschrift;white-space:pre;inline-size:123.658;display:inline;stroke-width:0.264583"
       x="98.35627"
       y="10.036354"
       id="text21936-5-5-6-96"
       transform="translate(-178.84868,86.407097)"><tspan
         x="98.35627"
         y="10.036354"
         id="tspan57467">Thelonius Monk</tspan></text><g
       id="g4455"
       transform="matrix(0.26458333,0,0,0.26458333,-93.232288,-108.54527)"><path
         id="path4457"
         d="m 29.891,759.26 c 2.3908,1.6824 3.9543,4.4638 3.9543,7.6094 0,5.1348 -4.1626,9.2974 -9.2974,9.2974 -0.68916,0 -1.3612,-0.0757 -2.0077,-0.21791 l 1.2406,0.50991 0.38788,0.15544 0.42565,0.11622 0.46487,0.11621 0.4271,0.11622 0.42565,0.077 0.42565,0.0392 0.46487,0.0392 0.46487,0.0378 0.46487,-0.0378 0.4271,-0.0392 0.46487,-0.0392 0.42565,-0.077 0.46487,-0.077 0.38788,-0.11622 0.42565,-0.15544 0.42565,-0.15544 0.38788,-0.15399 0.38788,-0.19467 0.38642,-0.23243 0.34865,-0.23244 0.38788,-0.2702 0.34865,-0.27166 0.34865,-0.30943 0.34865,-0.30943 0.30943,-0.34866 0.30943,-0.34865 0.27166,-0.34865 0.27166,-0.38788 0.23244,-0.34866 0.23244,-0.38787 0.19321,-0.38643 0.15544,-0.38787 0.15399,-0.42565 0.15544,-0.4271 0.11622,-0.38643 0.07699,-0.46487 0.07845,-0.4271 0.03777,-0.46487 0.03922,-0.42565 0.03922,-0.46487 -0.03922,-0.69731 -0.07699,-0.65808 -0.11622,-0.65808 -0.15544,-0.65954 -0.23244,-0.61886 -0.27166,-0.62031 -0.30943,-0.58109 -0.19321,-0.30943 -0.15544,-0.27166 -0.42565,-0.58109 -0.23244,-0.23244 -0.19466,-0.27166 -0.46487,-0.46487 -0.27021,-0.23243 -0.23244,-0.19322 -0.27166,-0.23243 -0.27166,-0.19321 -0.27021,-0.19467 -0.27166,-0.15399 -0.58109,-0.34865 -0.30943,-0.15544 -0.30943,-0.11622 -0.82515,-0.34866 z"
         fill-rule="evenodd"
         fill="#656565"
         style="fill:#b4b0a7;fill-opacity:1" /><path
         id="path4459"
         stroke-linejoin="round"
         d="m 289.28,165.72 a 140.425,153.92548 0 1 1 -280.85,0 140.425,153.92548 0 1 1 280.85,0 z"
         transform="matrix(0.065103,0,0,0.059396,14.884,757.03)"
         stroke="#202020"
         stroke-linecap="round"
         stroke-width="24.122"
         fill="#fff"
         style="fill:#ffffff;fill-opacity:1;stroke:none;stroke-opacity:1" /></g><g
       id="g4461"
       transform="matrix(0.26458333,0,0,0.26458333,-93.232288,-115.68637)"><path
         id="path4463"
         d="m 29.891,759.26 c 2.3908,1.6824 3.9543,4.4638 3.9543,7.6094 0,5.1348 -4.1626,9.2974 -9.2974,9.2974 -0.68916,0 -1.3612,-0.0757 -2.0077,-0.21791 l 1.2406,0.50991 0.38788,0.15544 0.42565,0.11622 0.46487,0.11621 0.4271,0.11622 0.42565,0.077 0.42565,0.0392 0.46487,0.0392 0.46487,0.0378 0.46487,-0.0378 0.4271,-0.0392 0.46487,-0.0392 0.42565,-0.077 0.46487,-0.077 0.38788,-0.11622 0.42565,-0.15544 0.42565,-0.15544 0.38788,-0.15399 0.38788,-0.19467 0.38642,-0.23243 0.34865,-0.23244 0.38788,-0.2702 0.34865,-0.27166 0.34865,-0.30943 0.34865,-0.30943 0.30943,-0.34866 0.30943,-0.34865 0.27166,-0.34865 0.27166,-0.38788 0.23244,-0.34866 0.23244,-0.38787 0.19321,-0.38643 0.15544,-0.38787 0.15399,-0.42565 0.15544,-0.4271 0.11622,-0.38643 0.07699,-0.46487 0.07845,-0.4271 0.03777,-0.46487 0.03922,-0.42565 0.03922,-0.46487 -0.03922,-0.69731 -0.07699,-0.65808 -0.11622,-0.65808 -0.15544,-0.65954 -0.23244,-0.61886 -0.27166,-0.62031 -0.30943,-0.58109 -0.19321,-0.30943 -0.15544,-0.27166 -0.42565,-0.58109 -0.23244,-0.23244 -0.19466,-0.27166 -0.46487,-0.46487 -0.27021,-0.23243 -0.23244,-0.19322 -0.27166,-0.23243 -0.27166,-0.19321 -0.27021,-0.19467 -0.27166,-0.15399 -0.58109,-0.34865 -0.30943,-0.15544 -0.30943,-0.11622 -0.82515,-0.34866 z"
         fill-rule="evenodd"
         fill="#656565"
         style="fill:#b4b0a7;fill-opacity:1" /><path
         id="path4465"
         stroke-linejoin="round"
         d="m 289.28,165.72 a 140.425,153.92548 0 1 1 -280.85,0 140.425,153.92548 0 1 1 280.85,0 z"
         transform="matrix(0.065103,0,0,0.059396,14.884,757.03)"
         stroke="#202020"
         stroke-linecap="round"
         stroke-width="24.122"
         fill="#fff"
         style="fill:#ffffff;fill-opacity:1;stroke:none;stroke-opacity:1" /></g><g
       id="g4467"
       transform="matrix(0.26458333,0,0,0.26458333,-93.232288,-122.83012)"><path
         id="path4469"
         d="m 29.891,759.26 c 2.3908,1.6824 3.9543,4.4638 3.9543,7.6094 0,5.1348 -4.1626,9.2974 -9.2974,9.2974 -0.68916,0 -1.3612,-0.0757 -2.0077,-0.21791 l 1.2406,0.50991 0.38788,0.15544 0.42565,0.11622 0.46487,0.11621 0.4271,0.11622 0.42565,0.077 0.42565,0.0392 0.46487,0.0392 0.46487,0.0378 0.46487,-0.0378 0.4271,-0.0392 0.46487,-0.0392 0.42565,-0.077 0.46487,-0.077 0.38788,-0.11622 0.42565,-0.15544 0.42565,-0.15544 0.38788,-0.15399 0.38788,-0.19467 0.38642,-0.23243 0.34865,-0.23244 0.38788,-0.2702 0.34865,-0.27166 0.34865,-0.30943 0.34865,-0.30943 0.30943,-0.34866 0.30943,-0.34865 0.27166,-0.34865 0.27166,-0.38788 0.23244,-0.34866 0.23244,-0.38787 0.19321,-0.38643 0.15544,-0.38787 0.15399,-0.42565 0.15544,-0.4271 0.11622,-0.38643 0.07699,-0.46487 0.07845,-0.4271 0.03777,-0.46487 0.03922,-0.42565 0.03922,-0.46487 -0.03922,-0.69731 -0.07699,-0.65808 -0.11622,-0.65808 -0.15544,-0.65954 -0.23244,-0.61886 -0.27166,-0.62031 -0.30943,-0.58109 -0.19321,-0.30943 -0.15544,-0.27166 -0.42565,-0.58109 -0.23244,-0.23244 -0.19466,-0.27166 -0.46487,-0.46487 -0.27021,-0.23243 -0.23244,-0.19322 -0.27166,-0.23243 -0.27166,-0.19321 -0.27021,-0.19467 -0.27166,-0.15399 -0.58109,-0.34865 -0.30943,-0.15544 -0.30943,-0.11622 -0.82515,-0.34866 z"
         fill-rule="evenodd"
         fill="#656565"
         style="fill:#b4b0a7;fill-opacity:1" /><path
         id="path4471"
         stroke-linejoin="round"
         d="m 289.28,165.72 a 140.425,153.92548 0 1 1 -280.85,0 140.425,153.92548 0 1 1 280.85,0 z"
         transform="matrix(0.065103,0,0,0.059396,14.884,757.03)"
         stroke="#202020"
         stroke-linecap="round"
         stroke-width="24.122"
         fill="#fff"
         style="fill:#ffffff;fill-opacity:1;stroke:none;stroke-opacity:1" /></g><g
       id="g4473"
       transform="matrix(0.26458333,0,0,0.26458333,-93.232288,-129.97122)"><path
         id="path4475"
         d="m 29.891,759.26 c 2.3908,1.6824 3.9543,4.4638 3.9543,7.6094 0,5.1348 -4.1626,9.2974 -9.2974,9.2974 -0.68916,0 -1.3612,-0.0757 -2.0077,-0.21791 l 1.2406,0.50991 0.38788,0.15544 0.42565,0.11622 0.46487,0.11621 0.4271,0.11622 0.42565,0.077 0.42565,0.0392 0.46487,0.0392 0.46487,0.0378 0.46487,-0.0378 0.4271,-0.0392 0.46487,-0.0392 0.42565,-0.077 0.46487,-0.077 0.38788,-0.11622 0.42565,-0.15544 0.42565,-0.15544 0.38788,-0.15399 0.38788,-0.19467 0.38642,-0.23243 0.34865,-0.23244 0.38788,-0.2702 0.34865,-0.27166 0.34865,-0.30943 0.34865,-0.30943 0.30943,-0.34866 0.30943,-0.34865 0.27166,-0.34865 0.27166,-0.38788 0.23244,-0.34866 0.23244,-0.38787 0.19321,-0.38643 0.15544,-0.38787 0.15399,-0.42565 0.15544,-0.4271 0.11622,-0.38643 0.07699,-0.46487 0.07845,-0.4271 0.03777,-0.46487 0.03922,-0.42565 0.03922,-0.46487 -0.03922,-0.69731 -0.07699,-0.65808 -0.11622,-0.65808 -0.15544,-0.65954 -0.23244,-0.61886 -0.27166,-0.62031 -0.30943,-0.58109 -0.19321,-0.30943 -0.15544,-0.27166 -0.42565,-0.58109 -0.23244,-0.23244 -0.19466,-0.27166 -0.46487,-0.46487 -0.27021,-0.23243 -0.23244,-0.19322 -0.27166,-0.23243 -0.27166,-0.19321 -0.27021,-0.19467 -0.27166,-0.15399 -0.58109,-0.34865 -0.30943,-0.15544 -0.30943,-0.11622 -0.82515,-0.34866 z"
         fill-rule="evenodd"
         fill="#656565"
         style="fill:#b4b0a7;fill-opacity:1" /><path
         id="path4477"
         stroke-linejoin="round"
         d="m 289.28,165.72 a 140.425,153.92548 0 1 1 -280.85,0 140.425,153.92548 0 1 1 280.85,0 z"
         transform="matrix(0.065103,0,0,0.059396,14.884,757.03)"
         stroke="#202020"
         stroke-linecap="round"
         stroke-width="24.122"
         fill="#fff"
         style="fill:#ffffff;fill-opacity:1;stroke:none;stroke-opacity:1" /></g><g
       id="g4451"
       transform="matrix(0.26458333,0,0,0.26458333,-93.190428,-136.97739)"><path
         id="path3866"
         d="m 29.891,759.26 c 2.3908,1.6824 3.9543,4.4638 3.9543,7.6094 0,5.1348 -4.1626,9.2974 -9.2974,9.2974 -0.68916,0 -1.3612,-0.0757 -2.0077,-0.21791 l 1.2406,0.50991 0.38788,0.15544 0.42565,0.11622 0.46487,0.11621 0.4271,0.11622 0.42565,0.077 0.42565,0.0392 0.46487,0.0392 0.46487,0.0378 0.46487,-0.0378 0.4271,-0.0392 0.46487,-0.0392 0.42565,-0.077 0.46487,-0.077 0.38788,-0.11622 0.42565,-0.15544 0.42565,-0.15544 0.38788,-0.15399 0.38788,-0.19467 0.38642,-0.23243 0.34865,-0.23244 0.38788,-0.2702 0.34865,-0.27166 0.34865,-0.30943 0.34865,-0.30943 0.30943,-0.34866 0.30943,-0.34865 0.27166,-0.34865 0.27166,-0.38788 0.23244,-0.34866 0.23244,-0.38787 0.19321,-0.38643 0.15544,-0.38787 0.15399,-0.42565 0.15544,-0.4271 0.11622,-0.38643 0.07699,-0.46487 0.07845,-0.4271 0.03777,-0.46487 0.03922,-0.42565 0.03922,-0.46487 -0.03922,-0.69731 -0.07699,-0.65808 -0.11622,-0.65808 -0.15544,-0.65954 -0.23244,-0.61886 -0.27166,-0.62031 -0.30943,-0.58109 -0.19321,-0.30943 -0.15544,-0.27166 -0.42565,-0.58109 -0.23244,-0.23244 -0.19466,-0.27166 -0.46487,-0.46487 -0.27021,-0.23243 -0.23244,-0.19322 -0.27166,-0.23243 -0.27166,-0.19321 -0.27021,-0.19467 -0.27166,-0.15399 -0.58109,-0.34865 -0.30943,-0.15544 -0.30943,-0.11622 -0.82515,-0.34866 z"
         fill-rule="evenodd"
         fill="#656565"
         style="fill:#b4b0a7;fill-opacity:1" /><path
         id="path4409"
         stroke-linejoin="round"
         d="m 289.28,165.72 a 140.425,153.92548 0 1 1 -280.85,0 140.425,153.92548 0 1 1 280.85,0 z"
         transform="matrix(0.065103,0,0,0.059396,14.884,757.03)"
         stroke="#202020"
         stroke-linecap="round"
         stroke-width="24.122"
         fill="#fff"
         style="fill:#ffffff;fill-opacity:1;stroke:none;stroke-opacity:1" /></g><rect
       style="fill:#ffffff;fill-opacity:1;stroke:none;stroke-width:0.7;stroke-dasharray:1.4, 0.7;paint-order:markers stroke fill"
       id="rect23480"
       width="64.225807"
       height="9.7580643"
       x="-89.471268"
       y="42.422474" /><g
       id="g45333"><path
         style="fill:#909090;fill-opacity:1;stroke:none;stroke-width:0.7;stroke-dasharray:1.4, 0.7;paint-order:markers stroke fill"
         id="path37690"
         sodipodi:type="arc"
         sodipodi:cx="-85.559929"
         sodipodi:cy="-0.75272572"
         sodipodi:rx="5.5199947"
         sodipodi:ry="5.5199947"
         sodipodi:start="0"
         sodipodi:end="6.2745164"
         sodipodi:open="true"
         sodipodi:arc-type="arc"
         d="m -80.039934,-0.75272572 a 5.5199947,5.5199947 0 0 1 -5.508032,5.51998182 5.5199947,5.5199947 0 0 1 -5.531906,-5.49605573 5.5199947,5.5199947 0 0 1 5.484054,-5.54380417 5.5199947,5.5199947 0 0 1 5.555676,5.47202636" /><text
         xml:space="preserve"
         style="font-size:7.05556px;line-height:1.25;font-family:Bahnschrift;-inkscape-font-specification:Bahnschrift;fill:#ffffff;fill-opacity:1;stroke-width:0.264583"
         x="-86.577957"
         y="1.7518603"
         id="text37746"><tspan
           sodipodi:role="line"
           id="tspan37744"
           style="font-size:7.05556px;fill:#ffffff;fill-opacity:1;stroke-width:0.264583"
           x="-86.577957"
           y="1.7518603">1</tspan></text></g><g
       id="g45328"
       transform="translate(5.5860983,-3.3796983)"><path
         style="fill:#909090;fill-opacity:1;stroke:none;stroke-width:0.7;stroke-dasharray:1.4, 0.7;paint-order:markers stroke fill"
         id="path37690-7"
         sodipodi:type="arc"
         sodipodi:cx="10.487738"
         sodipodi:cy="43.062469"
         sodipodi:rx="5.5199947"
         sodipodi:ry="5.5199947"
         sodipodi:start="0"
         sodipodi:end="6.2745164"
         sodipodi:open="true"
         sodipodi:arc-type="arc"
         d="m 16.007732,43.062469 a 5.5199947,5.5199947 0 0 1 -5.508031,5.519982 5.5199947,5.5199947 0 0 1 -5.5319062,-5.496055 5.5199947,5.5199947 0 0 1 5.4840542,-5.543805 5.5199947,5.5199947 0 0 1 5.555676,5.472027" /><text
         xml:space="preserve"
         style="font-size:7.05556px;line-height:1.25;font-family:Bahnschrift;-inkscape-font-specification:Bahnschrift;fill:#ffffff;fill-opacity:1;stroke-width:0.264583"
         x="8.6652813"
         y="45.592896"
         id="text37746-7"><tspan
           sodipodi:role="line"
           id="tspan37744-1"
           style="font-size:7.05556px;fill:#ffffff;fill-opacity:1;stroke-width:0.264583"
           x="8.6652813"
           y="45.592896">2</tspan></text></g><g
       id="g45323"
       transform="translate(-5.7709037,-9.9971834)"><path
         style="fill:#909090;fill-opacity:1;stroke:none;stroke-width:0.7;stroke-dasharray:1.4, 0.7;paint-order:markers stroke fill"
         id="path37690-7-1"
         sodipodi:type="arc"
         sodipodi:cx="150.54532"
         sodipodi:cy="49.679955"
         sodipodi:rx="5.5199947"
         sodipodi:ry="5.5199947"
         sodipodi:start="0"
         sodipodi:end="6.2745164"
         sodipodi:open="true"
         sodipodi:arc-type="arc"
         d="m 156.06531,49.679955 a 5.5199947,5.5199947 0 0 1 -5.50803,5.519981 5.5199947,5.5199947 0 0 1 -5.5319,-5.496055 5.5199947,5.5199947 0 0 1 5.48405,-5.543805 5.5199947,5.5199947 0 0 1 5.55568,5.472027" /><text
         xml:space="preserve"
         style="font-size:7.05556px;line-height:1.25;font-family:Bahnschrift;-inkscape-font-specification:Bahnschrift;fill:#ffffff;fill-opacity:1;stroke-width:0.264583"
         x="148.72285"
         y="52.210381"
         id="text37746-7-4"><tspan
           sodipodi:role="line"
           id="tspan37744-1-4"
           style="font-size:7.05556px;fill:#ffffff;fill-opacity:1;stroke-width:0.264583"
           x="148.72285"
           y="52.210381">3</tspan></text></g><path
       style="fill:#909090;fill-opacity:1;stroke:none;stroke-width:1.05897;stroke-dasharray:2.11795, 1.05897;paint-order:markers stroke fill"
       id="path37869"
       sodipodi:type="arc"
       sodipodi:cx="-86.730171"
       sodipodi:cy="72.930618"
       sodipodi:rx="1.3084677"
       sodipodi:ry="1.3084677"
       sodipodi:start="0"
       sodipodi:end="6.2745164"
       sodipodi:open="true"
       sodipodi:arc-type="arc"
       d="m -85.421703,72.930618 a 1.3084677,1.3084677 0 0 1 -1.305632,1.308465 1.3084677,1.3084677 0 0 1 -1.311292,-1.302793 1.3084677,1.3084677 0 0 1 1.299949,-1.314112 1.3084677,1.3084677 0 0 1 1.316925,1.297097" /><rect
       style="fill:#909090;fill-opacity:1;stroke:none;stroke-width:0.7;stroke-dasharray:1.4, 0.7;paint-order:markers stroke fill"
       id="rect38474"
       width="27.233871"
       height="7.8951612"
       x="-45.944523"
       y="107.62013"
       rx="1.3971775"
       ry="1.3971775" /><text
       xml:space="preserve"
       style="font-size:6.35px;line-height:1.25;font-family:Bahnschrift;-inkscape-font-specification:Bahnschrift;white-space:pre;inline-size:123.658;display:inline;fill:#ffffff;fill-opacity:1;stroke-width:0.264583"
       x="98.35627"
       y="10.036354"
       id="text21936-5-5-6-96-2"
       transform="translate(-140.35973,103.64849)"><tspan
         x="98.35627"
         y="10.036354"
         id="tspan57469">Submit</tspan></text><rect
       style="fill:none;fill-opacity:1;stroke:#db290e;stroke-width:0.7;stroke-dasharray:none;stroke-opacity:1;paint-order:markers stroke fill"
       id="rect42231"
       width="116.32516"
       height="49.020714"
       x="19.57089"
       y="57.207218"
       rx="1.3971775"
       ry="1.3971775" /><text
       xml:space="preserve"
       style="font-size:6.35px;line-height:1.25;font-family:Bahnschrift;-inkscape-font-specification:Bahnschrift;white-space:pre;inline-size:132.372;display:inline;stroke-width:0.264583"
       x="98.35627"
       y="10.036354"
       id="text21936-5-1-0-4-6-6"
       transform="translate(-185.6286,39.031115)"><tspan
         x="98.35627"
         y="10.036354"
         id="tspan57471">Ivy</tspan></text><text
       xml:space="preserve"
       style="font-size:8.265px;line-height:1.25;font-family:Bahnschrift;-inkscape-font-specification:Bahnschrift;stroke-width:0.387421"
       x="221.76585"
       y="99.918846"
       id="text43144-1-9-7"><tspan
         sodipodi:role="line"
         id="tspan43142-8-2-5"
         style="font-size:8.265px;stroke-width:0.387421"
         x="221.76585"
         y="99.918846">=</tspan></text><text
       xml:space="preserve"
       style="font-size:8.265px;line-height:1.25;font-family:Bahnschrift;-inkscape-font-specification:Bahnschrift;fill:#db290e;fill-opacity:1;stroke:none;stroke-width:0.387421;stroke-opacity:1"
       x="183.48064"
       y="99.021683"
       id="text43144-7-4-5"><tspan
         sodipodi:role="line"
         id="tspan43142-2-1-0"
         style="font-size:8.265px;fill:#db290e;fill-opacity:1;stroke:none;stroke-width:0.387421;stroke-opacity:1"
         x="183.48064"
         y="99.021683">username</tspan></text><text
       xml:space="preserve"
       style="font-size:8.265px;line-height:1.25;font-family:Bahnschrift;-inkscape-font-specification:Bahnschrift;fill:#4b9c86;fill-opacity:1;stroke:none;stroke-width:0.387421;stroke-opacity:1"
       x="226.56238"
       y="99.311981"
       id="text43144-7-7-4"><tspan
         sodipodi:role="line"
         id="tspan43142-2-15-9"
         style="font-size:8.265px;fill:#4b9c86;fill-opacity:1;stroke:none;stroke-width:0.387421;stroke-opacity:1"
         x="226.56238"
         y="99.311981">Ivy</tspan></text><text
       xml:space="preserve"
       style="font-size:8.265px;line-height:1.25;font-family:Bahnschrift;-inkscape-font-specification:Bahnschrift;fill:#db290e;fill-opacity:1;stroke:none;stroke-width:0.387421;stroke-opacity:1"
       x="196.23697"
       y="82.068878"
       id="text43144-7-0-5"><tspan
         sodipodi:role="line"
         style="font-size:8.265px;fill:#db290e;fill-opacity:1;stroke:none;stroke-width:0.387421;stroke-opacity:1"
         x="196.23697"
         y="82.068878"
         id="tspan4758">Nom</tspan></text><text
       xml:space="preserve"
       style="font-size:8.265px;line-height:1.25;font-family:Bahnschrift;-inkscape-font-specification:Bahnschrift;fill:#4b9c86;fill-opacity:1;stroke:none;stroke-width:0.387421;stroke-opacity:1"
       x="221.9577"
       y="116.18819"
       id="text43144-7-0-5-9"><tspan
         sodipodi:role="line"
         style="font-size:8.265px;fill:#4b9c86;fill-opacity:1;stroke:none;stroke-width:0.387421;stroke-opacity:1"
         x="221.9577"
         y="116.18819"
         id="tspan4758-1">Valeur</tspan></text><g
       id="g49585"
       transform="matrix(1.4642721,0,0,1.4642721,153.06606,82.389418)"><path
         style="fill:none;fill-opacity:1;stroke:#000000;stroke-width:0.499999;stroke-opacity:1;paint-order:markers stroke fill"
         d="M 21.435622,5.7709037 V 3.0109062 h 26.915591 v 2.7558661"
         id="path49546"
         sodipodi:nodetypes="cccc" /><path
         style="fill:none;fill-opacity:1;stroke:#000000;stroke-width:0.499999;stroke-opacity:1;paint-order:markers stroke fill"
         d="M 34.893417,1.0036354 V 3.1363607"
         id="path49552" /><g
         id="g49282"
         transform="translate(-6.5236303)"><path
           style="fill:none;fill-opacity:1;stroke:#000000;stroke-width:0.499999;stroke-opacity:1;paint-order:markers stroke fill"
           d="m 56.663875,13.27471 v 2.759998 h 7.310752 l 0.04436,-2.755866"
           id="path49546-5"
           sodipodi:nodetypes="cccc" /><path
           style="fill:none;fill-opacity:1;stroke:#000000;stroke-width:0.499999;stroke-opacity:1;paint-order:markers stroke fill"
           d="M 60.341415,18.396818 V 16.264092"
           id="path49552-3" /></g></g></g></svg>
