<?xml version="1.0" encoding="UTF-8" standalone="no"?>
<!-- Created with Inkscape (http://www.inkscape.org/) -->

<svg
   width="56.014618mm"
   height="82.025871mm"
   viewBox="0 0 56.014618 82.025871"
   version="1.1"
   id="svg10251"
   xml:space="preserve"
   inkscape:version="1.2.2 (732a01da63, 2022-12-09)"
   sodipodi:docname="RGB.svg"
   xmlns:inkscape="http://www.inkscape.org/namespaces/inkscape"
   xmlns:sodipodi="http://sodipodi.sourceforge.net/DTD/sodipodi-0.dtd"
   xmlns="http://www.w3.org/2000/svg"
   xmlns:svg="http://www.w3.org/2000/svg"><sodipodi:namedview
     id="namedview10253"
     pagecolor="#505050"
     bordercolor="#eeeeee"
     borderopacity="1"
     inkscape:showpageshadow="0"
     inkscape:pageopacity="0"
     inkscape:pagecheckerboard="0"
     inkscape:deskcolor="#505050"
     inkscape:document-units="mm"
     showgrid="false"
     inkscape:zoom="0.74564394"
     inkscape:cx="502.92101"
     inkscape:cy="374.17323"
     inkscape:window-width="1920"
     inkscape:window-height="1017"
     inkscape:window-x="-8"
     inkscape:window-y="-8"
     inkscape:window-maximized="1"
     inkscape:current-layer="layer1" /><defs
     id="defs10248" /><g
     inkscape:label="Layer 1"
     inkscape:groupmode="layer"
     id="layer1"
     transform="translate(28.633069,-49.816958)"><g
       id="g4396"
       transform="matrix(0.26458333,0,0,0.26458333,184.94824,-22.615205)"><g
         transform="matrix(1.5418028,0,0,1.5418028,471.28261,-316.29275)"
         id="g4308"><g
           id="g4263"><g
             transform="translate(57.73759,0.03125)"
             id="g4136"><path
               style="fill:#00ff00;fill-opacity:1;stroke:none"
               d="m -793.69278,382.67146 c -9.11888,0 -17.59779,2.78376 -24.625,7.53125 11.70049,7.91474 19.375,21.31106 19.375,36.5 0,1.06597 -0.0505,2.10925 -0.125,3.15625 13.75751,6.71021 23.48317,20.39175 24.625,36.4375 14.65559,-7.14825 24.78125,-22.19039 24.78125,-39.59375 0,-24.31702 -19.71423,-44.03125 -44.03125,-44.03125 z"
               id="path3908-1-4"
               inkscape:connector-curvature="0" /><path
               style="fill:#0000ff;fill-opacity:1;stroke:none"
               d="m -818.34903,463.20271 c -7.02721,4.74749 -15.50611,7.53125 -24.625,7.53125 -6.91366,0 -13.45901,-1.59763 -19.28125,-4.4375 -0.073,1.03688 -0.125,2.06953 -0.125,3.125 0,24.31703 19.71423,44.03125 44.03125,44.03125 24.31703,0 44.03125,-19.71422 44.03125,-44.03125 0,-1.05547 -0.052,-2.08812 -0.125,-3.125 -5.82224,2.83987 -12.36759,4.4375 -19.28125,4.4375 -9.11888,0 -17.59779,-2.78376 -24.625,-7.53125 z"
               id="path3908-1-0"
               inkscape:connector-curvature="0" /><path
               style="fill:#ff0000;fill-opacity:1;stroke:none"
               d="m -842.94278,382.67146 c -24.31702,0 -44.03125,19.71423 -44.03125,44.03125 0,17.40337 10.09442,32.4455 24.75,39.59375 1.14197,-16.04499 10.86874,-29.72684 24.625,-36.4375 -0.0736,-1.04054 -0.125,-2.09699 -0.125,-3.15625 0,-15.19814 7.69382,-28.58711 19.40625,-36.5 -7.02721,-4.74749 -15.50611,-7.53125 -24.625,-7.53125 z"
               id="path3908-1"
               inkscape:connector-curvature="0" /><path
               style="fill:#ffffff;fill-opacity:1;stroke:none"
               d="m -818.34903,425.42146 c -6.91366,0 -13.45917,1.59779 -19.28125,4.4375 0.98754,13.88071 8.39069,25.98623 19.28125,33.34375 10.89083,-7.3577 18.29401,-19.46261 19.28125,-33.34375 -5.8227,-2.84047 -12.36661,-4.4375 -19.28125,-4.4375 z"
               id="path3908-1-2"
               inkscape:connector-curvature="0" /></g><path
             sodipodi:nodetypes="cccsc"
             inkscape:connector-curvature="0"
             id="path3908-1-45-1"
             d="m -760.61139,463.20271 c -10.8825,-7.35204 -18.2849,-19.44476 -19.2813,-33.3125 -13.7362,6.71731 -23.4528,20.37605 -24.5937,36.40625 5.8158,2.83208 12.3464,4.4375 19.25,4.4375 9.1188,0 17.5977,-2.78376 24.625,-7.53125 z"
             style="fill:#ff00ff;fill-opacity:1;stroke:none" /><path
             sodipodi:nodetypes="cscscsccc"
             inkscape:connector-curvature="0"
             id="path3908-1-45-1-1"
             d="m -760.61149,390.23396 c -11.7124,7.91289 -19.4062,21.30186 -19.4062,36.5 0,1.05926 0.051,2.11571 0.125,3.15625 5.8156,-2.83192 12.3464,-4.4375 19.25,-4.4375 6.9146,0 13.4585,1.59703 19.2812,4.4375 0.075,-1.047 0.125,-2.09028 0.125,-3.15625 0,-15.17992 -7.655,-28.58345 -19.3437,-36.5 -0.01,-0.005 -0.024,0.005 -0.031,0 z"
             style="fill:#ffff00;fill-opacity:1;stroke:none" /><path
             sodipodi:nodetypes="ccsccccc"
             inkscape:connector-curvature="0"
             id="path3908-1-45-1-5"
             d="m -741.36149,429.89021 c -0.9872,13.88114 -8.3904,25.98605 -19.2812,33.34375 7.0272,4.74749 15.5061,7.53125 24.625,7.53125 6.9136,0 13.459,-1.59763 19.2812,-4.4375 -1.1418,-16.04575 -10.8675,-29.72729 -24.625,-36.4375 z m 24.6562,36.43745 c -0.01,0.004 -0.023,-0.004 -0.031,0 v 5e-5"
             style="fill:#00ffff;fill-opacity:1;stroke:none" /></g><g
           style="font-style:normal;font-variant:normal;font-weight:normal;font-stretch:normal;font-size:40px;line-height:1000%;font-family:Lato;-inkscape-font-specification:'Lato, Normal';text-align:center;letter-spacing:0px;word-spacing:0px;writing-mode:lr-tb;text-anchor:middle;fill:#000000;fill-opacity:1;stroke:none"
           id="text4282"><path
             inkscape:connector-curvature="0"
             d="m -789.88806,568.67828 c 1.11978,2e-5 2.10977,-0.1367 2.96997,-0.41015 0.86017,-0.27342 1.58018,-0.65998 2.16003,-1.15967 0.57982,-0.49966 1.01642,-1.09617 1.30982,-1.78955 0.29336,-0.69334 0.44004,-1.45994 0.44006,-2.29981 -2e-5,-1.70733 -0.56012,-2.99436 -1.6803,-3.86108 -1.12021,-0.86667 -2.8001,-1.30002 -5.03967,-1.30005 h -4.24072 v 10.82031 z m 13.23974,14.78028 h -3.43994 c -0.7064,0 -1.22642,-0.27344 -1.56006,-0.82032 l -7.44018,-10.23925 c -0.22625,-0.32063 -0.46937,-0.55094 -0.72937,-0.69092 -0.26002,-0.13996 -0.66346,-0.20995 -1.21033,-0.20996 h -2.94067 v 11.96045 h -3.85987 v -28.65967 h 8.10059 c 1.81314,3e-5 3.37971,0.18334 4.69971,0.54993 1.31997,0.36664 2.41005,0.89663 3.27026,1.58996 0.86017,0.69339 1.49677,1.52997 1.90979,2.50977 0.41298,0.97984 0.61949,2.07644 0.61951,3.28979 -2e-5,1.01321 -0.15994,1.95986 -0.47974,2.83997 -0.31984,0.88014 -0.7831,1.67014 -1.38977,2.36999 -0.60671,0.69989 -1.34666,1.29661 -2.21985,1.79016 -0.87322,0.49359 -1.86321,0.86692 -2.96997,1.12 0.49315,0.27996 0.91958,0.68686 1.2793,1.2207 z"
             id="path4302" /><path
             inkscape:connector-curvature="0"
             d="m -749.47058,569.67804 v 11.00098 c -1.43964,1.04004 -2.9761,1.81661 -4.60938,2.32971 -1.63332,0.5131 -3.42327,0.76965 -5.36987,0.76965 -2.30714,0 -4.38742,-0.35665 -6.24084,-1.06994 -1.85345,-0.7133 -3.4367,-1.71326 -4.74976,-2.99988 -1.31307,-1.28662 -2.323,-2.82999 -3.02978,-4.63013 -0.70679,-1.80012 -1.06019,-3.7801 -1.06019,-5.93994 0,-2.18667 0.34343,-4.18008 1.03028,-5.98023 0.68684,-1.8001 1.66361,-3.34348 2.9303,-4.63012 1.26667,-1.2866 2.80659,-2.2831 4.61975,-2.9895 1.81314,-0.70636 3.83991,-1.05955 6.08032,-1.05958 1.13279,3e-5 2.18585,0.0833 3.15918,0.24964 0.97329,0.16645 1.87335,0.40632 2.70019,0.7196 0.8268,0.31334 1.59361,0.69339 2.30042,1.14014 0.70676,0.4468 1.36655,0.95014 1.97937,1.51001 l -1.09985,1.76025 c -0.17337,0.26695 -0.39676,0.43704 -0.67017,0.51026 -0.27346,0.0733 -0.5766,0.01 -0.90942,-0.19043 -0.31985,-0.18634 -0.68647,-0.41298 -1.09986,-0.67993 -0.41343,-0.26691 -0.91677,-0.52366 -1.51001,-0.77027 -0.59328,-0.24655 -1.29335,-0.45652 -2.10022,-0.62988 -0.8069,-0.17331 -1.76373,-0.25998 -2.87048,-0.26001 -1.61297,3e-5 -3.07273,0.26329 -4.37927,0.78979 -1.30657,0.52656 -2.41985,1.27994 -3.33985,2.26014 -0.92001,0.98024 -1.62679,2.16697 -2.12036,3.56018 -0.49358,1.39324 -0.74036,2.95656 -0.74035,4.68994 -10e-6,1.80014 0.25674,3.41025 0.77026,4.83032 0.5135,1.42009 1.24694,2.62676 2.20032,3.62 0.95336,0.99325 2.10997,1.74988 3.46985,2.26989 1.35984,0.52003 2.88654,0.78004 4.58007,0.78003 1.33299,10e-6 2.51626,-0.14994 3.54981,-0.44983 1.03351,-0.29988 2.04343,-0.71675 3.02978,-1.25061 v -6.30005 h -4.46045 c -0.25311,2e-5 -0.45635,-0.0732 -0.60974,-0.21972 -0.15342,-0.14648 -0.23012,-0.32633 -0.2301,-0.53955 v -2.20093 z"
             id="path4304" /><path
             inkscape:connector-curvature="0"
             d="m -733.47205,580.37872 c 1.10676,10e-6 2.06013,-0.12674 2.86011,-0.38025 0.79995,-0.25349 1.45669,-0.61014 1.97022,-1.06994 0.51349,-0.4598 0.89028,-1.00647 1.13037,-1.64002 0.24005,-0.63353 0.36008,-1.33035 0.3601,-2.09045 -2e-5,-1.47948 -0.52675,-2.64932 -1.5802,-3.50952 -1.05348,-0.86018 -2.63368,-1.29027 -4.7406,-1.29029 h -6.19995 v 9.98047 z m -6.19995,-22.52075 v 9.78027 h 5.12085 c 1.09293,2e-5 2.04283,-0.12002 2.84973,-0.3601 0.80687,-0.24006 1.47358,-0.57331 2.00013,-0.99976 0.52651,-0.42641 0.91652,-0.94297 1.17004,-1.54968 0.25348,-0.60667 0.38023,-1.27012 0.38025,-1.99036 -2e-5,-1.6935 -0.50681,-2.93027 -1.52039,-3.71032 -1.0136,-0.78001 -2.58689,-1.17002 -4.71985,-1.17005 z m 5.28076,-3.05908 c 1.75943,3e-5 3.27595,0.17337 4.54957,0.52002 1.27358,0.34671 2.32033,0.84007 3.14025,1.4801 0.81989,0.64008 1.42312,1.42337 1.8097,2.34985 0.38653,0.92654 0.57981,1.96963 0.57983,3.12928 -2e-5,0.70721 -0.10989,1.38409 -0.32959,2.03064 -0.21975,0.64658 -0.54974,1.24981 -0.98999,1.80969 -0.44029,0.55991 -0.99713,1.06325 -1.67053,1.51001 -0.67344,0.44679 -1.46344,0.81015 -2.37,1.09009 2.10692,0.4004 3.69037,1.15052 4.75037,2.25036 1.05995,1.09987 1.58994,2.54294 1.58996,4.32923 -2e-5,1.21338 -0.22341,2.32015 -0.67016,3.32031 -0.4468,1.00017 -1.10008,1.86015 -1.95984,2.57996 -0.8598,0.7198 -1.91632,1.27644 -3.16956,1.66992 -1.25327,0.39347 -2.67986,0.59021 -4.27978,0.59021 h -10.12085 v -28.65967 z"
             id="path4306" /></g></g><g
         transform="matrix(1.5418028,0,0,1.5418028,437.36295,-316.29275)"
         id="g4323"><g
           id="g4273"
           transform="translate(363.10235,-247.66519)" /><g
           style="font-style:normal;font-variant:normal;font-weight:normal;font-stretch:normal;font-size:40px;line-height:1000%;font-family:Lato;-inkscape-font-specification:'Lato, Normal';text-align:center;letter-spacing:0px;word-spacing:0px;writing-mode:lr-tb;text-anchor:middle;fill:#000000;fill-opacity:1;stroke:none"
           id="text4286" /></g></g></g></svg>
